<svg width="186" height="87" viewBox="0 0 186 87" fill="none" xmlns="http://www.w3.org/2000/svg">
<path d="M178.145 0.639705C181.109 6.58467 179.978 20.358 179.765 25.757C179.743 26.3028 179.3 26.7489 178.754 26.782C175.889 26.9559 168.605 27.6335 164.656 28.0157C164.486 28.0322 164.328 28.1022 164.201 28.2162C163.628 28.7268 164.026 29.7115 164.793 29.7229C169.267 29.7895 174.295 30.6961 177.035 31.3272C177.482 31.4302 177.791 31.8302 177.791 32.2887V47.5266C177.791 47.9159 177.514 48.2503 177.132 48.3233C176.165 48.5081 176.268 50.5425 177.233 50.7353C180.854 51.4586 183.473 52.5376 185.001 53.4038C185.542 53.7108 185.596 54.4534 185.252 54.9719C183.386 57.7858 181.112 64.5637 179.945 68.5006C179.819 68.9282 179.442 69.2203 178.996 69.2259C166.517 69.3842 134.101 73.3391 131.561 73.3391C129.487 73.3391 95.2683 76.8069 78.4181 78.5408C43.935 80.2041 26.0443 83.9948 20.7033 85.8951C20.3245 86.0299 19.903 85.945 19.6409 85.6402C16.1772 81.6114 15.0828 73.5665 14.9264 69.0447C14.9057 68.4453 14.3818 67.9837 13.7864 68.0554L4.91551 69.1234C4.44357 69.1802 3.99939 68.8971 3.87377 68.4386C3.03953 65.3942 1.18697 56.9793 0.161118 52.2009C0.0655494 51.7557 0.280839 51.3061 0.706958 51.1457C3.96651 49.9188 12.0963 48.5648 16.7566 47.8981C17.2905 47.8217 17.6704 47.3383 17.6152 46.8018L15.0237 21.6436C14.9615 21.0394 15.4219 20.519 16.029 20.5368C46.4018 21.4293 113.345 15.2828 127 12.5C137.833 10.2924 165.666 3.05233 177.092 0.17574C177.515 0.0692379 177.95 0.24934 178.145 0.639705Z" fill="#6821FF"/>
<path d="M64.6611 37.7296C52.9128 38.4861 41.2369 39.6863 29.5366 40.9227" stroke="white" stroke-width="3" stroke-linecap="round"/>
<path d="M41.5109 37.7296C37.1577 50.6401 31.2582 63.2302 29.5366 76.8455" stroke="white" stroke-width="3" stroke-linecap="round"/>
<path d="M32.73 60.8798C43.1344 59.7983 53.4952 58.2401 63.863 56.8884" stroke="white" stroke-width="3" stroke-linecap="round"/>
<path d="M98.7415 56.6621C91.2469 56.8035 83.9849 57.5513 76.6353 58.6013" stroke="white" stroke-width="3" stroke-linecap="round"/>
<path d="M90.5965 48.9056C88.7416 53.2336 88.2695 58.1959 88.2695 62.8674" stroke="white" stroke-width="3" stroke-linecap="round"/>
<path d="M93.7012 51.6205C92.1273 52.5198 91.1119 54.6463 90.0383 56.0589C88.8022 57.6855 87.3339 58.9358 85.9015 60.3682C84.7258 61.5438 83.5201 62.7518 82.4541 64.031" stroke="white" stroke-width="3" stroke-linecap="round"/>
<path d="M84.0034 52.784C86.0328 56.1861 88.6543 59.0931 92.1478 61.0146C92.8394 61.3949 93.6992 62.0867 93.6992 62.8675" stroke="white" stroke-width="3" stroke-linecap="round"/>
<path d="M125.883 54.2673C118.389 54.4087 111.126 55.1565 103.777 56.2064" stroke="white" stroke-width="3" stroke-linecap="round"/>
<path d="M117.738 46.5107C115.883 50.8387 115.411 55.801 115.411 60.4726" stroke="white" stroke-width="3" stroke-linecap="round"/>
<path d="M120.843 49.2256C119.269 50.1249 118.254 52.2514 117.18 53.664C115.944 55.2906 114.475 56.5409 113.043 57.9733C111.867 59.1489 110.662 60.3569 109.596 61.6361" stroke="white" stroke-width="3" stroke-linecap="round"/>
<path d="M111.146 50.3891C113.175 53.7913 115.796 56.6983 119.29 58.6197C119.981 59 120.841 59.6918 120.841 60.4727" stroke="white" stroke-width="3" stroke-linecap="round"/>
<path d="M157.814 54.2673C150.32 54.4087 143.058 55.1565 135.708 56.2064" stroke="white" stroke-width="3" stroke-linecap="round"/>
<path d="M149.669 46.5107C147.814 50.8387 147.342 55.801 147.342 60.4726" stroke="white" stroke-width="3" stroke-linecap="round"/>
<path d="M152.774 49.2256C151.2 50.1249 150.185 52.2514 149.111 53.664C147.875 55.2906 146.407 56.5409 144.974 57.9733C143.799 59.1489 142.593 60.3569 141.527 61.6361" stroke="white" stroke-width="3" stroke-linecap="round"/>
<path d="M143.077 50.3891C145.106 53.7913 147.728 56.6983 151.221 58.6197C151.913 59 152.772 59.6918 152.772 60.4727" stroke="white" stroke-width="3" stroke-linecap="round"/>
</svg>
