<svg width="1822" height="501" viewBox="0 0 1822 501" fill="none" xmlns="http://www.w3.org/2000/svg">
<line y1="0.5" x2="604.956" y2="0.5" stroke="white" stroke-opacity="0.31"/>
<line x1="0.5" y1="1" x2="0.5" y2="501" stroke="white" stroke-opacity="0.31"/>
<line x1="607.5" y1="1" x2="607.5" y2="497.884" stroke="white" stroke-opacity="0.31"/>
<line x1="386.589" y1="1" x2="386.589" y2="497.884" stroke="white" stroke-opacity="0.31"/>
<line y1="221.227" x2="604.956" y2="221.227" stroke="white" stroke-opacity="0.31"/>
<line x1="166.353" y1="1" x2="166.353" y2="497.884" stroke="white" stroke-opacity="0.31"/>
<line y1="441.955" x2="604.956" y2="441.955" stroke="white" stroke-opacity="0.31"/>
<line x1="497.384" y1="1" x2="497.384" y2="497.884" stroke="white" stroke-opacity="0.31"/>
<line y1="110.864" x2="604.956" y2="110.864" stroke="white" stroke-opacity="0.31"/>
<line x1="276.469" y1="1" x2="276.469" y2="497.884" stroke="white" stroke-opacity="0.31"/>
<line y1="331.591" x2="604.956" y2="331.591" stroke="white" stroke-opacity="0.31"/>
<line x1="55.5581" y1="1" x2="55.5581" y2="497.884" stroke="white" stroke-opacity="0.31"/>
<line x1="552.442" y1="1" x2="552.442" y2="497.884" stroke="white" stroke-opacity="0.31"/>
<line y1="55.6819" x2="604.956" y2="55.6819" stroke="white" stroke-opacity="0.31"/>
<line x1="331.531" y1="1" x2="331.531" y2="497.884" stroke="white" stroke-opacity="0.31"/>
<line y1="276.409" x2="604.956" y2="276.409" stroke="white" stroke-opacity="0.31"/>
<line x1="110.616" y1="1" x2="110.616" y2="497.884" stroke="white" stroke-opacity="0.31"/>
<line y1="497.136" x2="604.956" y2="497.136" stroke="white" stroke-opacity="0.31"/>
<line x1="441.647" y1="1" x2="441.647" y2="497.884" stroke="white" stroke-opacity="0.31"/>
<line y1="166.045" x2="604.956" y2="166.045" stroke="white" stroke-opacity="0.31"/>
<line x1="221.411" y1="1" x2="221.411" y2="497.884" stroke="white" stroke-opacity="0.31"/>
<line y1="386.773" x2="604.956" y2="386.773" stroke="white" stroke-opacity="0.31"/>
<line x1="607" y1="0.5" x2="1211.96" y2="0.5" stroke="white" stroke-opacity="0.31"/>
<line x1="1214.5" y1="1" x2="1214.5" y2="497.884" stroke="white" stroke-opacity="0.31"/>
<line x1="993.589" y1="1" x2="993.589" y2="497.884" stroke="white" stroke-opacity="0.31"/>
<line x1="607" y1="221.227" x2="1211.96" y2="221.227" stroke="white" stroke-opacity="0.31"/>
<line x1="773.353" y1="1" x2="773.353" y2="497.884" stroke="white" stroke-opacity="0.31"/>
<line x1="607" y1="441.955" x2="1211.96" y2="441.955" stroke="white" stroke-opacity="0.31"/>
<line x1="1104.38" y1="1" x2="1104.38" y2="497.884" stroke="white" stroke-opacity="0.31"/>
<line x1="607" y1="110.864" x2="1211.96" y2="110.864" stroke="white" stroke-opacity="0.31"/>
<line x1="883.469" y1="1" x2="883.469" y2="497.884" stroke="white" stroke-opacity="0.31"/>
<line x1="607" y1="331.591" x2="1211.96" y2="331.591" stroke="white" stroke-opacity="0.31"/>
<line x1="662.558" y1="1" x2="662.558" y2="497.884" stroke="white" stroke-opacity="0.31"/>
<line x1="1159.44" y1="1" x2="1159.44" y2="497.884" stroke="white" stroke-opacity="0.31"/>
<line x1="607" y1="55.6819" x2="1211.96" y2="55.6819" stroke="white" stroke-opacity="0.31"/>
<line x1="938.531" y1="1" x2="938.531" y2="497.884" stroke="white" stroke-opacity="0.31"/>
<line x1="607" y1="276.409" x2="1211.96" y2="276.409" stroke="white" stroke-opacity="0.31"/>
<line x1="717.616" y1="1" x2="717.616" y2="497.884" stroke="white" stroke-opacity="0.31"/>
<line x1="607" y1="497.136" x2="1211.96" y2="497.136" stroke="white" stroke-opacity="0.31"/>
<line x1="1048.65" y1="1" x2="1048.65" y2="497.884" stroke="white" stroke-opacity="0.31"/>
<line x1="607" y1="166.045" x2="1211.96" y2="166.045" stroke="white" stroke-opacity="0.31"/>
<line x1="828.411" y1="1" x2="828.411" y2="497.884" stroke="white" stroke-opacity="0.31"/>
<line x1="607" y1="386.773" x2="1211.96" y2="386.773" stroke="white" stroke-opacity="0.31"/>
<line x1="1214" y1="0.5" x2="1818.96" y2="0.5" stroke="white" stroke-opacity="0.31"/>
<line x1="1821.5" y1="1" x2="1821.5" y2="497.884" stroke="white" stroke-opacity="0.31"/>
<line x1="1600.59" y1="1" x2="1600.59" y2="497.884" stroke="white" stroke-opacity="0.31"/>
<line x1="1214" y1="221.227" x2="1818.96" y2="221.227" stroke="white" stroke-opacity="0.31"/>
<line x1="1380.35" y1="1" x2="1380.35" y2="497.884" stroke="white" stroke-opacity="0.31"/>
<line x1="1214" y1="441.955" x2="1818.96" y2="441.955" stroke="white" stroke-opacity="0.31"/>
<line x1="1711.38" y1="1" x2="1711.38" y2="497.884" stroke="white" stroke-opacity="0.31"/>
<line x1="1214" y1="110.864" x2="1818.96" y2="110.864" stroke="white" stroke-opacity="0.31"/>
<line x1="1490.47" y1="1" x2="1490.47" y2="497.884" stroke="white" stroke-opacity="0.31"/>
<line x1="1214" y1="331.591" x2="1818.96" y2="331.591" stroke="white" stroke-opacity="0.31"/>
<line x1="1269.56" y1="1" x2="1269.56" y2="497.884" stroke="white" stroke-opacity="0.31"/>
<line x1="1766.44" y1="1" x2="1766.44" y2="497.884" stroke="white" stroke-opacity="0.31"/>
<line x1="1214" y1="55.6819" x2="1818.96" y2="55.6819" stroke="white" stroke-opacity="0.31"/>
<line x1="1545.53" y1="1" x2="1545.53" y2="497.884" stroke="white" stroke-opacity="0.31"/>
<line x1="1214" y1="276.409" x2="1818.96" y2="276.409" stroke="white" stroke-opacity="0.31"/>
<line x1="1324.62" y1="1" x2="1324.62" y2="497.884" stroke="white" stroke-opacity="0.31"/>
<line x1="1214" y1="497.136" x2="1818.96" y2="497.136" stroke="white" stroke-opacity="0.31"/>
<line x1="1655.65" y1="1" x2="1655.65" y2="497.884" stroke="white" stroke-opacity="0.31"/>
<line x1="1214" y1="166.045" x2="1818.96" y2="166.045" stroke="white" stroke-opacity="0.31"/>
<line x1="1435.41" y1="1" x2="1435.41" y2="497.884" stroke="white" stroke-opacity="0.31"/>
<line x1="1214" y1="386.773" x2="1818.96" y2="386.773" stroke="white" stroke-opacity="0.31"/>
</svg>
