<svg width="347" height="323" viewBox="0 0 347 323" fill="none" xmlns="http://www.w3.org/2000/svg">
<g filter="url(#filter0_b_130_549)">
<rect x="80" width="267" height="84" rx="12" fill="white" fill-opacity="0.09"/>
<rect x="80.5" y="0.5" width="266" height="83" rx="11.5" stroke="url(#paint0_linear_130_549)"/>
</g>
<g filter="url(#filter1_b_130_549)">
<rect y="245" width="239" height="78" rx="12" fill="white" fill-opacity="0.09"/>
<rect x="0.5" y="245.5" width="238" height="77" rx="11.5" stroke="url(#paint1_linear_130_549)"/>
</g>
<path d="M86.848 269.8V277.032C86.848 278.52 86.144 279.48 84.688 279.48C83.472 279.48 82.528 278.648 82.528 277.48C82.528 276.92 82.656 276.44 82.928 276.04L81.248 275.4C80.928 275.96 80.768 276.6 80.768 277.32C80.768 279.496 82.176 281.16 84.688 281.16C86.08 281.16 87.072 280.776 87.68 280.024C88.304 279.256 88.608 278.328 88.608 277.24V269.8H86.848ZM90.201 277.208C90.201 279.448 91.817 281.16 94.105 281.16C96.393 281.16 98.009 279.448 98.009 277.208C98.009 274.968 96.393 273.256 94.105 273.256C91.817 273.256 90.201 274.968 90.201 277.208ZM96.329 277.208C96.329 278.632 95.385 279.64 94.105 279.64C92.825 279.64 91.881 278.632 91.881 277.208C91.881 275.784 92.825 274.776 94.105 274.776C95.385 274.776 96.329 275.784 96.329 277.208ZM99.6021 273.416V281H101.282V273.416H99.6021ZM99.5221 272.12H101.362V270.28H99.5221V272.12ZM105.017 281V276.776C105.017 275.48 105.785 274.696 106.809 274.696C107.769 274.696 108.377 275.4 108.377 276.616V281H110.057V276.04C110.057 274.312 108.985 273.256 107.401 273.256C106.393 273.256 105.545 273.64 105.017 274.52V273.416H103.337V281H105.017ZM116.074 269.8V281H117.834V276.36H123.674V274.68H117.834V271.48H124.154V269.8H116.074ZM125.045 277.208C125.045 279.448 126.661 281.16 128.949 281.16C131.237 281.16 132.853 279.448 132.853 277.208C132.853 274.968 131.237 273.256 128.949 273.256C126.661 273.256 125.045 274.968 125.045 277.208ZM131.173 277.208C131.173 278.632 130.229 279.64 128.949 279.64C127.669 279.64 126.725 278.632 126.725 277.208C126.725 275.784 127.669 274.776 128.949 274.776C130.229 274.776 131.173 275.784 131.173 277.208ZM138.222 276.52L141.166 273.416H139.006L136.126 276.6V269.8H134.446V281H136.126V278.728L137.07 277.736L139.326 281H141.326L138.222 276.52ZM142.824 269.8V281H151.144V279.32H144.584V276.04H150.504V274.36H144.584V271.48H150.984V269.8H142.824ZM152.962 281H154.642V269.8H152.962V281ZM156.248 277.208C156.248 279.448 157.864 281.16 160.152 281.16C162.44 281.16 164.056 279.448 164.056 277.208C164.056 274.968 162.44 273.256 160.152 273.256C157.864 273.256 156.248 274.968 156.248 277.208ZM162.376 277.208C162.376 278.632 161.432 279.64 160.152 279.64C158.872 279.64 157.928 278.632 157.928 277.208C157.928 275.784 158.872 274.776 160.152 274.776C161.432 274.776 162.376 275.784 162.376 277.208ZM167.329 281V276.776C167.329 275.48 168.097 274.696 169.121 274.696C170.081 274.696 170.689 275.4 170.689 276.616V281H172.369V276.04C172.369 274.312 171.297 273.256 169.713 273.256C168.705 273.256 167.857 273.64 167.329 274.52V273.416H165.649V281H167.329ZM174.06 273.64H175.02L175.42 271.4V269.8H173.66V271.4L174.06 273.64ZM176.261 279.08C176.773 280.36 177.925 281.16 179.669 281.16C181.397 281.16 182.757 280.168 182.757 278.76C182.757 277.464 181.989 276.696 180.117 276.424C178.661 276.216 178.197 276.008 178.197 275.432C178.197 274.968 178.773 274.6 179.525 274.6C180.293 274.6 180.789 274.936 181.013 275.608L182.293 274.904C181.797 273.864 180.981 273.256 179.509 273.256C177.973 273.256 176.677 274.136 176.677 275.4C176.677 276.664 177.605 277.352 179.285 277.624C180.757 277.864 181.157 278.152 181.157 278.84C181.157 279.352 180.629 279.72 179.733 279.72C178.693 279.72 178.021 279.304 177.621 278.36L176.261 279.08ZM84.576 299.72C83.36 299.72 82.176 298.712 82.176 297.16C82.176 295.56 83.312 294.696 84.416 294.696C85.52 294.696 86.32 295.384 86.496 296.52L88.016 296.04C87.696 294.312 86.288 293.256 84.416 293.256C82.32 293.256 80.576 294.872 80.576 297.16C80.576 299.56 82.192 301.16 84.656 301.16C86.56 301.16 88.032 300.056 88.416 298.12L86.896 297.56C86.72 298.824 85.984 299.72 84.576 299.72ZM89.8834 293.416V301H91.5634V295.96C91.5634 295.176 92.0434 294.696 92.7634 294.696C93.4034 294.696 93.8834 295.128 93.8834 295.72C93.8834 295.928 93.8674 296.152 93.8194 296.36H95.4834C95.5634 296.056 95.5954 295.736 95.5954 295.4C95.5954 294.792 95.3874 294.28 94.9714 293.88C94.5554 293.464 94.0274 293.256 93.4034 293.256C92.5074 293.256 91.8674 293.704 91.5634 294.52V293.416H89.8834ZM102.285 293.416V297.4C102.285 298.824 101.501 299.72 100.365 299.72C99.4046 299.72 98.8446 299.08 98.8446 297.88V293.416H97.1646V298.28C97.1646 300.2 98.2686 301.16 99.9326 301.16C100.957 301.16 101.741 300.712 102.285 299.8V301H103.965V293.416H102.285ZM105.448 299.08C105.96 300.36 107.112 301.16 108.856 301.16C110.584 301.16 111.944 300.168 111.944 298.76C111.944 297.464 111.176 296.696 109.304 296.424C107.848 296.216 107.384 296.008 107.384 295.432C107.384 294.968 107.96 294.6 108.712 294.6C109.48 294.6 109.976 294.936 110.2 295.608L111.48 294.904C110.984 293.864 110.168 293.256 108.696 293.256C107.16 293.256 105.864 294.136 105.864 295.4C105.864 296.664 106.792 297.352 108.472 297.624C109.944 297.864 110.344 298.152 110.344 298.84C110.344 299.352 109.816 299.72 108.92 299.72C107.88 299.72 107.208 299.304 106.808 298.36L105.448 299.08ZM113.204 298.84C113.204 300.296 114.452 301.16 115.7 301.16C117.044 301.16 117.908 300.568 118.244 299.72V301H119.844V296.28C119.844 294.36 118.644 293.256 116.484 293.256C114.628 293.256 113.46 294.232 113.124 295.72L114.644 296.12C114.82 295.208 115.476 294.616 116.484 294.616C117.492 294.616 118.244 295.192 118.244 296.2V296.76L117.444 296.568C117.012 296.456 116.564 296.408 116.1 296.408C114.42 296.408 113.204 297.192 113.204 298.84ZM118.244 298.12C118.244 299.128 117.476 299.72 116.372 299.72C115.412 299.72 114.964 299.272 114.964 298.68C114.964 297.992 115.524 297.672 116.372 297.672C116.676 297.672 117.092 297.736 117.636 297.88L118.244 298.04V298.12ZM121.451 297.256C121.451 299.512 122.843 301.16 124.971 301.16C126.107 301.16 127.051 300.632 127.515 299.72V301H129.131V289.8H127.451V294.76C127.019 293.848 126.139 293.256 124.971 293.256C122.843 293.256 121.451 294.936 121.451 297.256ZM127.515 297.256C127.515 298.744 126.475 299.672 125.323 299.672C124.699 299.672 124.187 299.448 123.755 299.016C123.339 298.568 123.131 297.976 123.131 297.256C123.131 295.8 124.123 294.776 125.323 294.776C126.475 294.776 127.515 295.768 127.515 297.256ZM136.732 298.12C136.492 299.16 135.772 299.72 134.684 299.72C134.076 299.72 133.548 299.528 133.084 299.16C132.636 298.776 132.412 298.216 132.412 297.48H137.772C137.82 297.192 137.852 296.904 137.852 296.6C137.852 294.536 136.412 293.256 134.428 293.256C132.204 293.256 130.732 294.984 130.732 297.16C130.732 299.608 132.332 301.16 134.668 301.16C136.46 301.16 137.644 300.264 138.172 298.68L136.732 298.12ZM132.412 296.36C132.556 295.336 133.372 294.696 134.412 294.696C135.436 294.696 136.188 295.272 136.188 296.216L136.172 296.36H132.412Z" fill="white"/>
<path d="M153.912 26.08L159.128 36H162.184V24.8H160.424V34.736L155.208 24.8H152.152V36H153.912V26.08ZM163.92 32.208C163.92 34.448 165.536 36.16 167.824 36.16C170.112 36.16 171.728 34.448 171.728 32.208C171.728 29.968 170.112 28.256 167.824 28.256C165.536 28.256 163.92 29.968 163.92 32.208ZM170.048 32.208C170.048 33.632 169.104 34.64 167.824 34.64C166.544 34.64 165.6 33.632 165.6 32.208C165.6 30.784 166.544 29.776 167.824 29.776C169.104 29.776 170.048 30.784 170.048 32.208ZM178.845 36V31.776C178.845 30.48 179.613 29.696 180.637 29.696C181.597 29.696 182.205 30.4 182.205 31.616V36H183.885V31.04C183.885 29.312 182.813 28.256 181.229 28.256C180.221 28.256 179.373 28.64 178.845 29.52V28.416H177.165V36H178.845ZM191.482 33.12C191.242 34.16 190.522 34.72 189.434 34.72C188.826 34.72 188.298 34.528 187.834 34.16C187.386 33.776 187.162 33.216 187.162 32.48H192.522C192.57 32.192 192.602 31.904 192.602 31.6C192.602 29.536 191.162 28.256 189.178 28.256C186.954 28.256 185.482 29.984 185.482 32.16C185.482 34.608 187.082 36.16 189.418 36.16C191.21 36.16 192.394 35.264 192.922 33.68L191.482 33.12ZM187.162 31.36C187.306 30.336 188.122 29.696 189.162 29.696C190.186 29.696 190.938 30.272 190.938 31.216L190.922 31.36H187.162ZM199.982 33.12C199.742 34.16 199.022 34.72 197.934 34.72C197.326 34.72 196.798 34.528 196.334 34.16C195.886 33.776 195.662 33.216 195.662 32.48H201.022C201.07 32.192 201.102 31.904 201.102 31.6C201.102 29.536 199.662 28.256 197.678 28.256C195.454 28.256 193.982 29.984 193.982 32.16C193.982 34.608 195.582 36.16 197.918 36.16C199.71 36.16 200.894 35.264 201.422 33.68L199.982 33.12ZM195.662 31.36C195.806 30.336 196.622 29.696 197.662 29.696C198.686 29.696 199.438 30.272 199.438 31.216L199.422 31.36H195.662ZM202.482 32.256C202.482 34.512 203.874 36.16 206.002 36.16C207.138 36.16 208.082 35.632 208.546 34.72V36H210.162V24.8H208.482V29.76C208.05 28.848 207.17 28.256 206.002 28.256C203.874 28.256 202.482 29.936 202.482 32.256ZM208.546 32.256C208.546 33.744 207.506 34.672 206.354 34.672C205.73 34.672 205.218 34.448 204.786 34.016C204.37 33.568 204.162 32.976 204.162 32.256C204.162 30.8 205.154 29.776 206.354 29.776C207.506 29.776 208.546 30.768 208.546 32.256ZM216.839 36H218.519V29.856H220.599V28.416H218.519V27.248C218.519 26.496 218.919 26.08 219.559 26.08C220.247 26.08 220.631 26.48 220.631 27.056C220.631 27.168 220.615 27.264 220.599 27.376H222.199C222.215 27.296 222.215 27.168 222.215 27.008C222.215 25.68 221.367 24.64 219.559 24.64C217.895 24.64 216.839 25.68 216.839 27.2V28.416H215.175V29.856H216.839V36ZM221.498 32.208C221.498 34.448 223.114 36.16 225.402 36.16C227.69 36.16 229.306 34.448 229.306 32.208C229.306 29.968 227.69 28.256 225.402 28.256C223.114 28.256 221.498 29.968 221.498 32.208ZM227.626 32.208C227.626 33.632 226.682 34.64 225.402 34.64C224.122 34.64 223.178 33.632 223.178 32.208C223.178 30.784 224.122 29.776 225.402 29.776C226.682 29.776 227.626 30.784 227.626 32.208ZM230.899 28.416V36H232.579V30.96C232.579 30.176 233.059 29.696 233.779 29.696C234.419 29.696 234.899 30.128 234.899 30.72C234.899 30.928 234.883 31.152 234.835 31.36H236.499C236.579 31.056 236.611 30.736 236.611 30.4C236.611 29.792 236.403 29.28 235.987 28.88C235.571 28.464 235.043 28.256 234.419 28.256C233.523 28.256 232.883 28.704 232.579 29.52V28.416H230.899ZM242.84 33.6C242.84 35.184 243.768 36.16 245.56 36.16C247.016 36.16 247.976 35.28 248.12 33.76L246.52 33.44C246.456 34.32 246.12 34.72 245.48 34.72C244.952 34.72 244.52 34.368 244.52 33.68V29.856H247.4V28.416H244.52V26H242.84V28.416H241.32V29.856H242.84V33.6ZM249.493 28.416V36H251.173V30.96C251.173 30.176 251.653 29.696 252.373 29.696C253.013 29.696 253.493 30.128 253.493 30.72C253.493 30.928 253.477 31.152 253.429 31.36H255.093C255.173 31.056 255.205 30.736 255.205 30.4C255.205 29.792 254.997 29.28 254.581 28.88C254.165 28.464 253.637 28.256 253.013 28.256C252.117 28.256 251.477 28.704 251.173 29.52V28.416H249.493ZM262.217 33.12C261.977 34.16 261.257 34.72 260.169 34.72C259.561 34.72 259.033 34.528 258.569 34.16C258.121 33.776 257.897 33.216 257.897 32.48H263.257C263.305 32.192 263.337 31.904 263.337 31.6C263.337 29.536 261.897 28.256 259.913 28.256C257.689 28.256 256.217 29.984 256.217 32.16C256.217 34.608 257.817 36.16 260.153 36.16C261.945 36.16 263.129 35.264 263.657 33.68L262.217 33.12ZM257.897 31.36C258.041 30.336 258.857 29.696 259.897 29.696C260.921 29.696 261.673 30.272 261.673 31.216L261.657 31.36H257.897ZM266.845 36V31.776C266.845 30.48 267.613 29.696 268.637 29.696C269.597 29.696 270.205 30.4 270.205 31.616V36H271.885V31.04C271.885 29.312 270.813 28.256 269.229 28.256C268.221 28.256 267.373 28.64 266.845 29.52V28.416H265.165V36H266.845ZM273.482 32.256C273.482 34.512 274.874 36.16 277.002 36.16C278.138 36.16 279.082 35.632 279.546 34.72V36H281.162V24.8H279.482V29.76C279.05 28.848 278.17 28.256 277.002 28.256C274.874 28.256 273.482 29.936 273.482 32.256ZM279.546 32.256C279.546 33.744 278.506 34.672 277.354 34.672C276.73 34.672 276.218 34.448 275.786 34.016C275.37 33.568 275.162 32.976 275.162 32.256C275.162 30.8 276.154 29.776 277.354 29.776C278.506 29.776 279.546 30.768 279.546 32.256ZM282.652 34.08C283.164 35.36 284.316 36.16 286.06 36.16C287.788 36.16 289.148 35.168 289.148 33.76C289.148 32.464 288.38 31.696 286.508 31.424C285.052 31.216 284.588 31.008 284.588 30.432C284.588 29.968 285.164 29.6 285.916 29.6C286.684 29.6 287.18 29.936 287.404 30.608L288.684 29.904C288.188 28.864 287.372 28.256 285.9 28.256C284.364 28.256 283.068 29.136 283.068 30.4C283.068 31.664 283.996 32.352 285.676 32.624C287.148 32.864 287.548 33.152 287.548 33.84C287.548 34.352 287.02 34.72 286.124 34.72C285.084 34.72 284.412 34.304 284.012 33.36L282.652 34.08ZM294.17 32.208C294.17 34.448 295.786 36.16 298.074 36.16C300.362 36.16 301.978 34.448 301.978 32.208C301.978 29.968 300.362 28.256 298.074 28.256C295.786 28.256 294.17 29.968 294.17 32.208ZM300.298 32.208C300.298 33.632 299.354 34.64 298.074 34.64C296.794 34.64 295.85 33.632 295.85 32.208C295.85 30.784 296.794 29.776 298.074 29.776C299.354 29.776 300.298 30.784 300.298 32.208ZM303.571 28.416V36H305.251V30.96C305.251 30.176 305.731 29.696 306.451 29.696C307.091 29.696 307.571 30.128 307.571 30.72C307.571 30.928 307.555 31.152 307.507 31.36H309.171C309.251 31.056 309.283 30.736 309.283 30.4C309.283 29.792 309.075 29.28 308.659 28.88C308.243 28.464 307.715 28.256 307.091 28.256C306.195 28.256 305.555 28.704 305.251 29.52V28.416H303.571ZM314.392 33.84C314.392 35.296 315.64 36.16 316.888 36.16C318.232 36.16 319.096 35.568 319.432 34.72V36H321.032V31.28C321.032 29.36 319.832 28.256 317.672 28.256C315.816 28.256 314.648 29.232 314.312 30.72L315.832 31.12C316.008 30.208 316.664 29.616 317.672 29.616C318.68 29.616 319.432 30.192 319.432 31.2V31.76L318.632 31.568C318.2 31.456 317.752 31.408 317.288 31.408C315.608 31.408 314.392 32.192 314.392 33.84ZM319.432 33.12C319.432 34.128 318.664 34.72 317.56 34.72C316.6 34.72 316.152 34.272 316.152 33.68C316.152 32.992 316.712 32.672 317.56 32.672C317.864 32.672 318.28 32.736 318.824 32.88L319.432 33.04V33.12ZM155.576 54.72C154.36 54.72 153.176 53.712 153.176 52.16C153.176 50.56 154.312 49.696 155.416 49.696C156.52 49.696 157.32 50.384 157.496 51.52L159.016 51.04C158.696 49.312 157.288 48.256 155.416 48.256C153.32 48.256 151.576 49.872 151.576 52.16C151.576 54.56 153.192 56.16 155.656 56.16C157.56 56.16 159.032 55.056 159.416 53.12L157.896 52.56C157.72 53.824 156.984 54.72 155.576 54.72ZM162.563 56V51.968C162.563 50.544 163.379 49.648 164.467 49.648C165.603 49.648 166.211 50.288 166.211 51.488V56H167.891V51.008C167.891 49.392 166.851 48.256 165.187 48.256C163.923 48.256 162.963 48.896 162.563 49.968V44.8H160.883V56H162.563ZM169.579 53.84C169.579 55.296 170.827 56.16 172.075 56.16C173.419 56.16 174.283 55.568 174.619 54.72V56H176.219V51.28C176.219 49.36 175.019 48.256 172.859 48.256C171.003 48.256 169.835 49.232 169.499 50.72L171.019 51.12C171.195 50.208 171.851 49.616 172.859 49.616C173.867 49.616 174.619 50.192 174.619 51.2V51.76L173.819 51.568C173.387 51.456 172.939 51.408 172.475 51.408C170.795 51.408 169.579 52.192 169.579 53.84ZM174.619 53.12C174.619 54.128 173.851 54.72 172.747 54.72C171.787 54.72 171.339 54.272 171.339 53.68C171.339 52.992 171.899 52.672 172.747 52.672C173.051 52.672 173.467 52.736 174.011 52.88L174.619 53.04V53.12ZM178.274 48.416V56H179.954V50.96C179.954 50.176 180.434 49.696 181.154 49.696C181.794 49.696 182.274 50.128 182.274 50.72C182.274 50.928 182.258 51.152 182.21 51.36H183.874C183.954 51.056 183.986 50.736 183.986 50.4C183.986 49.792 183.778 49.28 183.362 48.88C182.946 48.464 182.418 48.256 181.794 48.256C180.898 48.256 180.258 48.704 179.954 49.52V48.416H178.274ZM186.371 53.6C186.371 55.184 187.299 56.16 189.091 56.16C190.547 56.16 191.507 55.28 191.651 53.76L190.051 53.44C189.987 54.32 189.651 54.72 189.011 54.72C188.483 54.72 188.051 54.368 188.051 53.68V49.856H190.931V48.416H188.051V46H186.371V48.416H184.851V49.856H186.371V53.6ZM196.626 53.84C196.626 55.296 197.874 56.16 199.122 56.16C200.466 56.16 201.33 55.568 201.666 54.72V56H203.266V51.28C203.266 49.36 202.066 48.256 199.906 48.256C198.05 48.256 196.882 49.232 196.546 50.72L198.066 51.12C198.242 50.208 198.898 49.616 199.906 49.616C200.914 49.616 201.666 50.192 201.666 51.2V51.76L200.866 51.568C200.434 51.456 199.986 51.408 199.522 51.408C197.842 51.408 196.626 52.192 196.626 53.84ZM201.666 53.12C201.666 54.128 200.898 54.72 199.794 54.72C198.834 54.72 198.386 54.272 198.386 53.68C198.386 52.992 198.946 52.672 199.794 52.672C200.098 52.672 200.514 52.736 201.058 52.88L201.666 53.04V53.12ZM207.001 56V51.776C207.001 50.48 207.769 49.696 208.793 49.696C209.753 49.696 210.361 50.4 210.361 51.616V56H212.041V51.04C212.041 49.312 210.969 48.256 209.385 48.256C208.377 48.256 207.529 48.64 207.001 49.52V48.416H205.321V56H207.001ZM213.72 53.84C213.72 55.296 214.968 56.16 216.216 56.16C217.56 56.16 218.424 55.568 218.76 54.72V56H220.36V51.28C220.36 49.36 219.16 48.256 217 48.256C215.144 48.256 213.976 49.232 213.64 50.72L215.16 51.12C215.336 50.208 215.992 49.616 217 49.616C218.008 49.616 218.76 50.192 218.76 51.2V51.76L217.96 51.568C217.528 51.456 217.08 51.408 216.616 51.408C214.936 51.408 213.72 52.192 213.72 53.84ZM218.76 53.12C218.76 54.128 217.992 54.72 216.888 54.72C215.928 54.72 215.48 54.272 215.48 53.68C215.48 52.992 216.04 52.672 216.888 52.672C217.192 52.672 217.608 52.736 218.152 52.88L218.76 53.04V53.12ZM222.415 56H224.095V44.8H222.415V56ZM231.317 48.416L229.109 53.056L227.045 48.416H225.237L228.229 54.88L226.197 59.168H227.957L233.077 48.416H231.317ZM233.542 54.08C234.054 55.36 235.206 56.16 236.95 56.16C238.678 56.16 240.038 55.168 240.038 53.76C240.038 52.464 239.27 51.696 237.398 51.424C235.942 51.216 235.478 51.008 235.478 50.432C235.478 49.968 236.054 49.6 236.806 49.6C237.574 49.6 238.07 49.936 238.294 50.608L239.574 49.904C239.078 48.864 238.262 48.256 236.79 48.256C235.254 48.256 233.958 49.136 233.958 50.4C233.958 51.664 234.886 52.352 236.566 52.624C238.038 52.864 238.438 53.152 238.438 53.84C238.438 54.352 237.91 54.72 237.014 54.72C235.974 54.72 235.302 54.304 234.902 53.36L233.542 54.08ZM241.665 48.416V56H243.345V48.416H241.665ZM241.585 47.12H243.425V45.28H241.585V47.12ZM244.839 54.08C245.351 55.36 246.503 56.16 248.247 56.16C249.975 56.16 251.335 55.168 251.335 53.76C251.335 52.464 250.567 51.696 248.695 51.424C247.239 51.216 246.775 51.008 246.775 50.432C246.775 49.968 247.351 49.6 248.103 49.6C248.871 49.6 249.367 49.936 249.591 50.608L250.871 49.904C250.375 48.864 249.559 48.256 248.087 48.256C246.551 48.256 245.255 49.136 245.255 50.4C245.255 51.664 246.183 52.352 247.863 52.624C249.335 52.864 249.735 53.152 249.735 53.84C249.735 54.352 249.207 54.72 248.311 54.72C247.271 54.72 246.599 54.304 246.199 53.36L244.839 54.08Z" fill="white"/>
<path d="M109.744 34.7437H111.149H120.14V56.6603H106.934V53.8505H104.967V50.4787H103V43.4541H104.967V41.4872H106.372V38.9584H108.058V36.7105H109.744V34.7437Z" fill="white"/>
<path d="M129.694 34.7437H128.289H119.298V56.6603H132.504V53.8505H134.471V50.4787H136.438V43.4541H134.471V41.4872H133.066V38.9584H131.38V36.7105H129.694V34.7437Z" fill="white"/>
<path d="M124.073 33.3387V36.9915H118.734V28H128.288V31.9338H126.321V33.3387H124.073Z" fill="white"/>
<path d="M115.642 33.3387V36.9915H120.98V28H111.427V31.9338H113.394V33.3387H115.642Z" fill="white"/>
<path d="M120.006 44.9548C118.465 44.5541 117.969 44.1399 117.969 43.4948C117.969 42.7547 118.655 42.2386 119.803 42.2386C121.011 42.2386 121.459 42.8158 121.5 43.6646H123.001C122.953 42.4966 122.24 41.4237 120.821 41.0774V39.5903H118.784V41.0571C117.467 41.3423 116.407 42.1979 116.407 43.5084C116.407 45.077 117.704 45.8579 119.599 46.3129C121.296 46.7203 121.636 47.3178 121.636 47.9493C121.636 48.4179 121.303 49.1648 119.803 49.1648C118.404 49.1648 117.854 48.5401 117.779 47.7388H116.285C116.367 49.2259 117.48 50.0612 118.784 50.3396V51.8131H120.821V50.3532C122.145 50.1019 123.198 49.3346 123.198 47.9426C123.198 46.0141 121.548 45.3554 120.006 44.9548Z" fill="black"/>
<path d="M54.7726 287C54.7726 292.776 53.7524 297.994 52.1121 301.759C51.2918 303.643 50.3209 305.152 49.2541 306.188C48.1884 307.223 47.0385 307.775 45.8503 307.775C44.6622 307.775 43.5123 307.223 42.4466 306.188C41.3798 305.152 40.4089 303.643 39.5886 301.759C37.9483 297.994 36.9281 292.776 36.9281 287C36.9281 281.224 37.9483 276.006 39.5886 272.241C40.4089 270.357 41.3798 268.848 42.4466 267.812C43.5123 266.777 44.6622 266.225 45.8503 266.225C47.0385 266.225 48.1884 266.777 49.2541 267.812C50.3209 268.848 51.2918 270.357 52.1121 272.241C53.7524 276.006 54.7726 281.224 54.7726 287Z" stroke="white" stroke-width="0.45"/>
<path d="M49.974 279.088C55.0956 281.758 59.2514 285.074 61.8326 288.269C63.1234 289.867 64.0135 291.426 64.439 292.851C64.8641 294.274 64.822 295.549 64.2729 296.602C63.7237 297.656 62.7028 298.421 61.2926 298.887C59.8809 299.355 58.0933 299.518 56.0441 299.375C51.9466 299.089 46.8479 297.582 41.7262 294.912C36.6046 292.243 32.4489 288.926 29.8677 285.731C28.5768 284.133 27.6867 282.574 27.2612 281.15C26.8361 279.726 26.8782 278.451 27.4274 277.398C27.9766 276.344 28.9975 275.579 30.4077 275.113C31.8193 274.646 33.607 274.482 35.6561 274.625C39.7536 274.911 44.8524 276.419 49.974 279.088Z" stroke="white" stroke-width="0.45"/>
<circle cx="59.6802" cy="298.2" r="2.53178" fill="white"/>
<circle cx="50.5005" cy="269.085" r="2.30678" fill="#C429F1" stroke="white" stroke-width="0.45"/>
<circle cx="45.5967" cy="286.648" r="4.68033" fill="white" stroke="white" stroke-width="0.45"/>
<circle cx="45.9085" cy="284.117" r="1.42413" fill="white"/>
<defs>
<filter id="filter0_b_130_549" x="66" y="-14" width="295" height="112" filterUnits="userSpaceOnUse" color-interpolation-filters="sRGB">
<feFlood flood-opacity="0" result="BackgroundImageFix"/>
<feGaussianBlur in="BackgroundImageFix" stdDeviation="7"/>
<feComposite in2="SourceAlpha" operator="in" result="effect1_backgroundBlur_130_549"/>
<feBlend mode="normal" in="SourceGraphic" in2="effect1_backgroundBlur_130_549" result="shape"/>
</filter>
<filter id="filter1_b_130_549" x="-14" y="231" width="267" height="106" filterUnits="userSpaceOnUse" color-interpolation-filters="sRGB">
<feFlood flood-opacity="0" result="BackgroundImageFix"/>
<feGaussianBlur in="BackgroundImageFix" stdDeviation="7"/>
<feComposite in2="SourceAlpha" operator="in" result="effect1_backgroundBlur_130_549"/>
<feBlend mode="normal" in="SourceGraphic" in2="effect1_backgroundBlur_130_549" result="shape"/>
</filter>
<linearGradient id="paint0_linear_130_549" x1="63.1723" y1="-17.3333" x2="107.841" y2="81.4322" gradientUnits="userSpaceOnUse">
<stop stop-color="white" stop-opacity="0.54"/>
<stop offset="1" stop-color="white" stop-opacity="0"/>
</linearGradient>
<linearGradient id="paint1_linear_130_549" x1="-15.063" y1="228.905" x2="27.4152" y2="319.445" gradientUnits="userSpaceOnUse">
<stop stop-color="white" stop-opacity="0.54"/>
<stop offset="1" stop-color="white" stop-opacity="0"/>
</linearGradient>
</defs>
</svg>
