<svg width="28" height="33" viewBox="0 0 28 33" fill="none" xmlns="http://www.w3.org/2000/svg">
<path d="M6.4599 15.6769H18.4832V18.7098H6.4599V15.6769ZM9.46572 27.8085H3.45407V3.54535H13.9745V11.1276H21.489V15.8286L24.4949 12.7957V9.61115L15.4774 0.512451H3.45407C2.65687 0.512451 1.89233 0.831988 1.32863 1.40077C0.764927 1.96955 0.448242 2.74098 0.448242 3.54535V27.8085C0.448242 28.6129 0.764927 29.3843 1.32863 29.9531C1.89233 30.5219 2.65687 30.8414 3.45407 30.8414H9.46572V27.8085ZM6.4599 24.7756H12.6218L13.9745 23.4108V21.7427H6.4599V24.7756ZM24.7954 17.1934C24.9457 17.1934 25.2463 17.345 25.3966 17.4967L27.3504 19.4681C27.651 19.7714 27.651 20.3779 27.3504 20.6812L25.8475 22.1977L22.6914 19.0131L24.1943 17.4967C24.3446 17.345 24.4949 17.1934 24.7954 17.1934ZM24.7954 23.1075L15.6277 32.3579H12.4716V29.1733L21.6393 19.923L24.7954 23.1075Z" fill="white"/>
</svg>
