<svg width="37" height="36" viewBox="0 0 37 36" fill="none" xmlns="http://www.w3.org/2000/svg">
<g clip-path="url(#clip0_61_100)">
<path d="M13.711 31.1144C12.8731 31.1144 12.1555 30.8254 11.5583 30.2475C10.9611 29.6695 10.663 28.9756 10.6641 28.1657V13.4225C10.6641 12.6116 10.9627 11.9172 11.5599 11.3392C12.1571 10.7613 12.8741 10.4728 13.711 10.4738H15.2345V7.52516C15.2345 5.48568 15.9774 3.74696 17.4633 2.309C18.9492 0.87104 20.7454 0.152552 22.8518 0.153535C24.9593 0.153535 26.756 0.872514 28.2419 2.31047C29.7278 3.74843 30.4702 5.48666 30.4692 7.52516V10.4738H31.9926C32.8306 10.4738 33.5481 10.7628 34.1453 11.3407C34.7425 11.9187 35.0406 12.6126 35.0396 13.4225V28.1657C35.0396 28.9766 34.741 29.671 34.1438 30.2489C33.5466 30.8269 32.8295 31.1154 31.9926 31.1144H13.711ZM22.8518 23.7427C23.6897 23.7427 24.4073 23.4538 25.0045 22.8758C25.6017 22.2979 25.8998 21.604 25.8988 20.7941C25.8988 19.9832 25.6002 19.2888 25.003 18.7109C24.4058 18.1329 23.6887 17.8445 22.8518 17.8454C22.0139 17.8454 21.2964 18.1344 20.6992 18.7123C20.102 19.2903 19.8039 19.9842 19.8049 20.7941C19.8049 21.605 20.1035 22.2994 20.7007 22.8773C21.2979 23.4552 22.0149 23.7437 22.8518 23.7427ZM18.2814 10.4738H27.4222V7.52516C27.4222 6.29656 26.9779 5.25224 26.0892 4.39222C25.2005 3.5322 24.1214 3.10219 22.8518 3.10219C21.5823 3.10219 20.5031 3.5322 19.6145 4.39222C18.7258 5.25224 18.2814 6.29656 18.2814 7.52516V10.4738Z" fill="white"/>
</g>
<defs>
<clipPath id="clip0_61_100">
<rect width="36.5633" height="35.3838" fill="white" transform="translate(0 0.153534)"/>
</clipPath>
</defs>
</svg>
