<svg width="430" height="100" viewBox="0 0 430 100" fill="none" xmlns="http://www.w3.org/2000/svg">
<rect x="-377.849" width="1073.66" height="39.3033" transform="rotate(3.13706 -377.849 0)" fill="white" fill-opacity="0.13"/>
<rect x="-339.368" y="43.3521" width="1010.66" height="39.3033" transform="rotate(-2.02141 -339.368 43.3521)" fill="url(#paint0_linear_61_556)"/>
<path d="M166.845 39.6953L167.289 52.2875L168.944 52.2291L168.755 46.8684L175.357 46.6354L175.302 45.0704L168.7 45.3034L168.555 41.202L175.697 40.9499L175.641 39.3849L166.845 39.6953ZM183.561 38.9252C179.907 38.9822 177.117 42.1065 177.296 45.6304C177.367 49.1761 180.369 52.078 184.018 51.8772C187.655 51.8209 190.481 48.7132 190.302 45.1714C190.231 41.6436 187.192 38.725 183.561 38.9252ZM183.963 50.3121C181.283 50.4067 179.127 48.5376 179.023 45.5874C178.919 42.6373 180.9 40.5861 183.616 40.4903C186.333 40.3944 188.453 42.3008 188.557 45.2329C188.66 48.1651 186.643 50.2175 183.963 50.3121ZM197.836 43.5366L202.285 38.4445L200.145 38.52L194.122 45.4688L193.884 38.741L192.229 38.7994L192.674 51.3915L194.329 51.3331L194.201 47.6994L196.746 44.7998L200.985 51.0982L202.964 51.0284L197.836 43.5366ZM204.21 38.3765L204.655 50.9687L213.703 50.6493L213.648 49.0843L206.254 49.3452L206.107 45.1718L212.781 44.9363L212.726 43.3713L206.052 43.6068L205.921 39.8831L213.134 39.6285L213.079 38.0635L204.21 38.3765ZM215.594 37.9747L216.038 50.5669L225.392 50.2368L225.337 48.6717L217.638 48.9435L217.249 37.9163L215.594 37.9747ZM232.117 37.2115C228.463 37.2684 225.673 40.3927 225.851 43.9166C225.923 47.4623 228.925 50.3642 232.574 50.1634C236.21 50.1071 239.036 46.9995 238.857 43.4576C238.787 39.9299 235.748 37.0112 232.117 37.2115ZM232.519 48.5984C229.838 48.693 227.683 46.8238 227.579 43.8737C227.475 40.9235 229.456 38.8724 232.172 38.7765C234.888 38.6806 237.009 40.587 237.112 43.5192C237.216 46.4513 235.199 48.5038 232.519 48.5984ZM242.481 38.1785L249.415 49.3889L252.275 49.2879L251.83 36.6958L250.175 36.7542L250.579 48.1951L243.627 36.9853L240.785 37.0856L241.23 49.6778L242.885 49.6194L242.481 38.1785Z" fill="white"/>
<path d="M16.7433 44.9932L17.1878 57.5853L18.8427 57.5269L18.6535 52.1663L25.2554 51.9333L25.2002 50.3682L18.5983 50.6012L18.4535 46.4998L25.5951 46.2477L25.5399 44.6827L16.7433 44.9932ZM33.4595 44.2231C29.8053 44.28 27.0157 47.4044 27.1942 50.9283C27.2653 54.4739 30.2675 57.3759 33.9167 57.175C37.553 57.1187 40.3791 54.0111 40.2001 50.4692C40.1296 46.9415 37.0907 44.0229 33.4595 44.2231ZM33.8614 55.61C31.1811 55.7046 29.0258 53.8355 28.9217 50.8853C28.8176 47.9351 30.7985 45.884 33.5148 45.7881C36.2311 45.6922 38.3516 47.5986 38.4551 50.5308C38.5586 53.463 36.5418 55.5154 33.8614 55.61ZM47.7345 48.8344L52.1837 43.7423L50.043 43.8179L44.0203 50.7666L43.7829 44.0388L42.1279 44.0972L42.5724 56.6894L44.2273 56.631L44.0991 52.9973L46.6444 50.0977L50.8832 56.3961L52.8619 56.3262L47.7345 48.8344ZM54.1087 43.6744L54.5532 56.2665L63.6015 55.9472L63.5463 54.3822L56.1529 54.6431L56.0056 50.4697L62.6795 50.2341L62.6242 48.6691L55.9504 48.9047L55.8189 45.181L63.0325 44.9264L62.9772 43.3614L54.1087 43.6744ZM65.4923 43.2726L65.9367 55.8648L75.2909 55.5346L75.2357 53.9696L67.5364 54.2413L67.1472 43.2142L65.4923 43.2726ZM82.0152 42.5093C78.361 42.5662 75.5714 45.6906 75.7499 49.2145C75.821 52.7602 78.8232 55.6621 82.4724 55.4612C86.1087 55.4049 88.9348 52.2973 88.7558 48.7554C88.6853 45.2277 85.6464 42.3091 82.0152 42.5093ZM82.4171 53.8962C79.7368 53.9908 77.5815 52.1217 77.4774 49.1715C77.3733 46.2214 79.3542 44.1702 82.0705 44.0743C84.7868 43.9785 86.9074 45.8849 87.0108 48.817C87.1143 51.7492 85.0975 53.8016 82.4171 53.8962ZM92.3792 43.4763L99.313 54.6867L102.173 54.5858L101.729 41.9936L100.074 42.052L100.478 53.4929L93.5258 42.2832L90.6836 42.3835L91.1281 54.9756L92.783 54.9172L92.3792 43.4763Z" fill="white"/>
<path d="M315.544 34.447L315.989 47.0392L317.644 46.9808L317.454 41.6201L324.056 41.3871L324.001 39.8221L317.399 40.0551L317.254 35.9537L324.396 35.7016L324.341 34.1366L315.544 34.447ZM332.26 33.6769C328.606 33.7339 325.817 36.8582 325.995 40.3821C326.066 43.9278 329.068 46.8297 332.717 46.6289C336.354 46.5726 339.18 43.465 339.001 39.9231C338.93 36.3954 335.892 33.4767 332.26 33.6769ZM332.662 45.0638C329.982 45.1584 327.827 43.2893 327.722 40.3391C327.618 37.389 329.599 35.3378 332.316 35.242C335.032 35.1461 337.152 37.0525 337.256 39.9847C337.359 42.9168 335.343 44.9692 332.662 45.0638ZM346.535 38.2883L350.984 33.1962L348.844 33.2717L342.821 40.2205L342.584 33.4927L340.929 33.5511L341.373 46.1433L343.028 46.0848L342.9 42.4511L345.445 39.5515L349.684 45.8499L351.663 45.7801L346.535 38.2883ZM352.91 33.1282L353.354 45.7204L362.402 45.401L362.347 43.836L354.954 44.097L354.806 39.9236L361.48 39.688L361.425 38.123L354.751 38.3585L354.62 34.6348L361.833 34.3802L361.778 32.8152L352.91 33.1282ZM364.293 32.7265L364.737 45.3186L374.092 44.9885L374.036 43.4234L366.337 43.6952L365.948 32.668L364.293 32.7265ZM380.816 31.9632C377.162 32.0201 374.372 35.1444 374.551 38.6683C374.622 42.214 377.624 45.1159 381.273 44.9151C384.909 44.8588 387.736 41.7512 387.557 38.2093C387.486 34.6816 384.447 31.763 380.816 31.9632ZM381.218 43.3501C378.538 43.4447 376.382 41.5755 376.278 38.6254C376.174 35.6752 378.155 33.6241 380.871 33.5282C383.588 33.4323 385.708 35.3387 385.812 38.2709C385.915 41.2031 383.898 43.2555 381.218 43.3501ZM391.18 32.9302L398.114 44.1406L400.974 44.0397L400.53 31.4475L398.875 31.5059L399.278 42.9468L392.327 31.737L389.484 31.8373L389.929 44.4295L391.584 44.3711L391.18 32.9302Z" fill="white"/>
<g clip-path="url(#clip0_61_556)">
<mask id="mask0_61_556" style="mask-type:luminance" maskUnits="userSpaceOnUse" x="124" y="32" width="29" height="29">
<path d="M124.549 32.1775H152.623V60.2513H124.549V32.1775Z" fill="white"/>
</mask>
<g mask="url(#mask0_61_556)">
<path d="M133.832 44.2124C134.885 43.8247 135.909 44.8485 135.521 45.9021L133.225 52.1433C133.174 52.2816 133.09 52.4048 132.979 52.5017C132.868 52.5986 132.734 52.6659 132.59 52.6976C132.446 52.7292 132.297 52.7241 132.155 52.6827C132.014 52.6414 131.885 52.5651 131.781 52.4609L127.274 47.9533C127.17 47.8491 127.093 47.7205 127.052 47.5792C127.011 47.4379 127.006 47.2885 127.038 47.1448C127.069 47.0011 127.137 46.8676 127.233 46.7567C127.33 46.6458 127.453 46.561 127.591 46.5101L133.832 44.2116V44.2124Z" fill="url(#paint1_linear_61_556)"/>
<path d="M133.832 44.2124C134.885 43.8247 135.909 44.8485 135.521 45.9021L133.225 52.1433C133.174 52.2816 133.09 52.4048 132.979 52.5017C132.868 52.5986 132.734 52.6659 132.59 52.6976C132.446 52.7292 132.297 52.7241 132.155 52.6827C132.014 52.6414 131.885 52.5651 131.781 52.4609L127.274 47.9533C127.17 47.8491 127.093 47.7205 127.052 47.5792C127.011 47.4379 127.006 47.2885 127.038 47.1448C127.069 47.0011 127.137 46.8676 127.233 46.7567C127.33 46.6458 127.453 46.561 127.591 46.5101L133.832 44.2116V44.2124Z" fill="url(#paint2_radial_61_556)"/>
<path d="M133.832 44.2124C134.885 43.8247 135.909 44.8485 135.521 45.9021L133.225 52.1433C133.174 52.2816 133.09 52.4048 132.979 52.5017C132.868 52.5986 132.734 52.6659 132.59 52.6976C132.446 52.7292 132.297 52.7241 132.155 52.6827C132.014 52.6414 131.885 52.5651 131.781 52.4609L127.274 47.9533C127.17 47.8491 127.093 47.7205 127.052 47.5792C127.011 47.4379 127.006 47.2885 127.038 47.1448C127.069 47.0011 127.137 46.8676 127.233 46.7567C127.33 46.6458 127.453 46.561 127.591 46.5101L133.832 44.2116V44.2124Z" fill="url(#paint3_linear_61_556)"/>
<path d="M139.095 49.4762C140.149 49.0885 141.173 50.1123 140.785 51.1659L138.487 57.4071C138.436 57.5452 138.351 57.6683 138.241 57.765C138.13 57.8618 137.996 57.9291 137.852 57.9607C137.709 57.9923 137.559 57.9873 137.418 57.946C137.277 57.9048 137.148 57.8287 137.044 57.7247L132.536 53.2171C132.432 53.1129 132.356 52.9843 132.315 52.843C132.274 52.7017 132.269 52.5523 132.3 52.4086C132.332 52.2649 132.399 52.1314 132.496 52.0205C132.593 51.9095 132.716 51.8248 132.854 51.7739L139.095 49.4753V49.4762Z" fill="url(#paint4_linear_61_556)"/>
<path d="M139.095 49.4762C140.149 49.0885 141.173 50.1123 140.785 51.1659L138.487 57.4071C138.436 57.5452 138.351 57.6683 138.241 57.765C138.13 57.8618 137.996 57.9291 137.852 57.9607C137.709 57.9923 137.559 57.9873 137.418 57.946C137.277 57.9048 137.148 57.8287 137.044 57.7247L132.536 53.2171C132.432 53.1129 132.356 52.9843 132.315 52.843C132.274 52.7017 132.269 52.5523 132.3 52.4086C132.332 52.2649 132.399 52.1314 132.496 52.0205C132.593 51.9095 132.716 51.8248 132.854 51.7739L139.095 49.4753V49.4762Z" fill="url(#paint5_radial_61_556)"/>
<path d="M139.095 49.4762C140.149 49.0885 141.173 50.1123 140.785 51.1659L138.487 57.4071C138.436 57.5452 138.351 57.6683 138.241 57.765C138.13 57.8618 137.996 57.9291 137.852 57.9607C137.709 57.9923 137.559 57.9873 137.418 57.946C137.277 57.9048 137.148 57.8287 137.044 57.7247L132.536 53.2171C132.432 53.1129 132.356 52.9843 132.315 52.843C132.274 52.7017 132.269 52.5523 132.3 52.4086C132.332 52.2649 132.399 52.1314 132.496 52.0205C132.593 51.9095 132.716 51.8248 132.854 51.7739L139.095 49.4753V49.4762Z" fill="url(#paint6_radial_61_556)"/>
<g filter="url(#filter0_d_61_556)">
<path d="M144.2 35.292C144.224 35.2825 144.251 35.2802 144.276 35.2855C144.301 35.2908 144.324 35.3034 144.343 35.3218L149.505 40.5242C149.524 40.5425 149.536 40.5657 149.541 40.591C149.546 40.6162 149.544 40.6424 149.534 40.6664C148.297 43.7018 146.593 46.9303 144.311 49.2131C142.088 51.4362 138.328 53.3303 134.933 54.7235L130.115 49.9053C131.508 46.5101 133.403 42.7508 135.626 40.5278C137.915 38.238 141.156 36.5299 144.2 35.2929L144.2 35.292Z" fill="url(#paint7_linear_61_556)"/>
<path d="M144.2 35.292C144.224 35.2825 144.251 35.2802 144.276 35.2855C144.301 35.2908 144.324 35.3034 144.343 35.3218L149.505 40.5242C149.524 40.5425 149.536 40.5657 149.541 40.591C149.546 40.6162 149.544 40.6424 149.534 40.6664C148.297 43.7018 146.593 46.9303 144.311 49.2131C142.088 51.4362 138.328 53.3303 134.933 54.7235L130.115 49.9053C131.508 46.5101 133.403 42.7508 135.626 40.5278C137.915 38.238 141.156 36.5299 144.2 35.2929L144.2 35.292Z" fill="url(#paint8_radial_61_556)"/>
<path d="M144.2 35.292C144.224 35.2825 144.251 35.2802 144.276 35.2855C144.301 35.2908 144.324 35.3034 144.343 35.3218L149.505 40.5242C149.524 40.5425 149.536 40.5657 149.541 40.591C149.546 40.6162 149.544 40.6424 149.534 40.6664C148.297 43.7018 146.593 46.9303 144.311 49.2131C142.088 51.4362 138.328 53.3303 134.933 54.7235L130.115 49.9053C131.508 46.5101 133.403 42.7508 135.626 40.5278C137.915 38.238 141.156 36.5299 144.2 35.2929L144.2 35.292Z" fill="url(#paint9_radial_61_556)"/>
<path d="M144.2 35.292C144.224 35.2825 144.251 35.2802 144.276 35.2855C144.301 35.2908 144.324 35.3034 144.343 35.3218L149.505 40.5242C149.524 40.5425 149.536 40.5657 149.541 40.591C149.546 40.6162 149.544 40.6424 149.534 40.6664C148.297 43.7018 146.593 46.9303 144.311 49.2131C142.088 51.4362 138.328 53.3303 134.933 54.7235L130.115 49.9053C131.508 46.5101 133.403 42.7508 135.626 40.5278C137.915 38.238 141.156 36.5299 144.2 35.2929L144.2 35.292Z" fill="url(#paint10_radial_61_556)"/>
<path d="M144.2 35.292C144.224 35.2825 144.251 35.2802 144.276 35.2855C144.301 35.2908 144.324 35.3034 144.343 35.3218L149.505 40.5242C149.524 40.5425 149.536 40.5657 149.541 40.591C149.546 40.6162 149.544 40.6424 149.534 40.6664C148.297 43.7018 146.593 46.9303 144.311 49.2131C142.088 51.4362 138.328 53.3303 134.933 54.7235L130.115 49.9053C131.508 46.5101 133.403 42.7508 135.626 40.5278C137.915 38.238 141.156 36.5299 144.2 35.2929L144.2 35.292Z" fill="url(#paint11_radial_61_556)"/>
</g>
<g filter="url(#filter1_ddd_61_556)">
<path d="M146.043 41.8823C146.049 42.2736 145.978 42.6623 145.833 43.0258C145.688 43.3893 145.472 43.7203 145.197 43.9994C144.923 44.2785 144.596 44.5002 144.235 44.6516C143.874 44.8029 143.487 44.8809 143.095 44.8809C142.704 44.8809 142.316 44.8029 141.955 44.6516C141.594 44.5002 141.267 44.2785 140.993 43.9994C140.719 43.7203 140.503 43.3893 140.357 43.0258C140.212 42.6623 140.141 42.2736 140.148 41.8823C140.161 41.1094 140.478 40.3727 141.029 39.8308C141.58 39.289 142.322 38.9854 143.095 38.9854C143.868 38.9854 144.61 39.289 145.162 39.8308C145.713 40.3727 146.029 41.1094 146.043 41.8823Z" fill="url(#paint12_linear_61_556)"/>
<path d="M146.043 41.8823C146.049 42.2736 145.978 42.6623 145.833 43.0258C145.688 43.3893 145.472 43.7203 145.197 43.9994C144.923 44.2785 144.596 44.5002 144.235 44.6516C143.874 44.8029 143.487 44.8809 143.095 44.8809C142.704 44.8809 142.316 44.8029 141.955 44.6516C141.594 44.5002 141.267 44.2785 140.993 43.9994C140.719 43.7203 140.503 43.3893 140.357 43.0258C140.212 42.6623 140.141 42.2736 140.148 41.8823C140.161 41.1094 140.478 40.3727 141.029 39.8308C141.58 39.289 142.322 38.9854 143.095 38.9854C143.868 38.9854 144.61 39.289 145.162 39.8308C145.713 40.3727 146.029 41.1094 146.043 41.8823Z" fill="url(#paint13_radial_61_556)"/>
</g>
<path d="M145.135 41.8823C145.141 42.1538 145.093 42.4237 144.993 42.6761C144.893 42.9286 144.743 43.1586 144.553 43.3525C144.363 43.5465 144.136 43.7006 143.886 43.8059C143.636 43.9111 143.367 43.9653 143.095 43.9653C142.824 43.9653 142.555 43.9111 142.305 43.8059C142.054 43.7006 141.827 43.5465 141.637 43.3525C141.447 43.1586 141.298 42.9286 141.198 42.6761C141.098 42.4237 141.049 42.1538 141.055 41.8823C141.066 41.3486 141.286 40.8404 141.667 40.4668C142.049 40.0933 142.561 39.884 143.095 39.884C143.629 39.884 144.142 40.0933 144.523 40.4668C144.905 40.8404 145.124 41.3486 145.135 41.8823Z" fill="url(#paint14_radial_61_556)"/>
<g filter="url(#filter2_d_61_556)">
<path d="M126.674 58.087C126.054 57.4668 126.303 53.1644 128.497 52.2871C128.497 52.2871 130.69 51.4098 132.103 52.8135C133.516 54.2172 132.883 55.7964 132.883 55.7964C132.263 57.6571 129.622 58.3967 129.312 58.0861C129.14 57.9151 129.448 57.6036 129.312 57.4668C129.175 57.329 128.962 57.4861 128.382 57.7764C127.968 57.9835 126.923 58.3353 126.674 58.087Z" fill="url(#paint15_radial_61_556)"/>
<path d="M126.674 58.087C126.054 57.4668 126.303 53.1644 128.497 52.2871C128.497 52.2871 130.69 51.4098 132.103 52.8135C133.516 54.2172 132.883 55.7964 132.883 55.7964C132.263 57.6571 129.622 58.3967 129.312 58.0861C129.14 57.9151 129.448 57.6036 129.312 57.4668C129.175 57.329 128.962 57.4861 128.382 57.7764C127.968 57.9835 126.923 58.3353 126.674 58.087Z" fill="url(#paint16_radial_61_556)"/>
</g>
<path d="M129.865 50.5852C129.987 50.4629 130.133 50.3659 130.292 50.2997C130.452 50.2335 130.623 50.1995 130.796 50.1995C130.969 50.1995 131.14 50.2335 131.3 50.2997C131.46 50.3659 131.605 50.4629 131.727 50.5852L134.828 53.6874C135.064 53.9363 135.193 54.2672 135.188 54.6099C135.183 54.9525 135.045 55.2798 134.803 55.5222C134.561 55.7645 134.234 55.9029 133.891 55.9077C133.548 55.9125 133.217 55.7835 132.968 55.5481L129.865 52.4468C129.743 52.3246 129.646 52.1795 129.58 52.0198C129.514 51.8601 129.479 51.6889 129.479 51.516C129.479 51.3431 129.514 51.1719 129.58 51.0122C129.646 50.8525 129.743 50.7074 129.865 50.5852Z" fill="url(#paint17_linear_61_556)"/>
<path d="M129.865 50.5852C129.987 50.4629 130.133 50.3659 130.292 50.2997C130.452 50.2335 130.623 50.1995 130.796 50.1995C130.969 50.1995 131.14 50.2335 131.3 50.2997C131.46 50.3659 131.605 50.4629 131.727 50.5852L134.828 53.6874C135.064 53.9363 135.193 54.2672 135.188 54.6099C135.183 54.9525 135.045 55.2798 134.803 55.5222C134.561 55.7645 134.234 55.9029 133.891 55.9077C133.548 55.9125 133.217 55.7835 132.968 55.5481L129.865 52.4468C129.743 52.3246 129.646 52.1795 129.58 52.0198C129.514 51.8601 129.479 51.6889 129.479 51.516C129.479 51.3431 129.514 51.1719 129.58 51.0122C129.646 50.8525 129.743 50.7074 129.865 50.5852Z" fill="url(#paint18_radial_61_556)"/>
<path d="M129.865 50.5852C129.987 50.4629 130.133 50.3659 130.292 50.2997C130.452 50.2335 130.623 50.1995 130.796 50.1995C130.969 50.1995 131.14 50.2335 131.3 50.2997C131.46 50.3659 131.605 50.4629 131.727 50.5852L134.828 53.6874C135.064 53.9363 135.193 54.2672 135.188 54.6099C135.183 54.9525 135.045 55.2798 134.803 55.5222C134.561 55.7645 134.234 55.9029 133.891 55.9077C133.548 55.9125 133.217 55.7835 132.968 55.5481L129.865 52.4468C129.743 52.3246 129.646 52.1795 129.58 52.0198C129.514 51.8601 129.479 51.6889 129.479 51.516C129.479 51.3431 129.514 51.1719 129.58 51.0122C129.646 50.8525 129.743 50.7074 129.865 50.5852Z" fill="url(#paint19_radial_61_556)"/>
<path d="M150.142 34.6963C149.311 33.8655 147.854 33.9593 146.792 34.3243C145.991 34.5988 145.197 34.8933 144.411 35.2077C144.398 35.2131 144.386 35.2217 144.376 35.2328C144.367 35.2439 144.361 35.2571 144.358 35.2712C144.355 35.2854 144.355 35.3001 144.36 35.3139C144.364 35.3278 144.371 35.3404 144.381 35.3507L149.478 40.4821C149.489 40.4921 149.501 40.4994 149.515 40.5034C149.529 40.5075 149.543 40.5081 149.557 40.5052C149.571 40.5024 149.584 40.4961 149.595 40.4871C149.606 40.478 149.615 40.4663 149.62 40.4532C149.939 39.6587 150.237 38.8563 150.514 38.0467C150.874 36.9992 151.164 35.7183 150.142 34.6963Z" fill="url(#paint20_linear_61_556)"/>
<path d="M150.142 34.6963C149.311 33.8655 147.854 33.9593 146.792 34.3243C145.991 34.5988 145.197 34.8933 144.411 35.2077C144.398 35.2131 144.386 35.2217 144.376 35.2328C144.367 35.2439 144.361 35.2571 144.358 35.2712C144.355 35.2854 144.355 35.3001 144.36 35.3139C144.364 35.3278 144.371 35.3404 144.381 35.3507L149.478 40.4821C149.489 40.4921 149.501 40.4994 149.515 40.5034C149.529 40.5075 149.543 40.5081 149.557 40.5052C149.571 40.5024 149.584 40.4961 149.595 40.4871C149.606 40.478 149.615 40.4663 149.62 40.4532C149.939 39.6587 150.237 38.8563 150.514 38.0467C150.874 36.9992 151.164 35.7183 150.142 34.6963Z" fill="url(#paint21_radial_61_556)"/>
<path d="M150.142 34.6963C149.311 33.8655 147.854 33.9593 146.792 34.3243C145.991 34.5988 145.197 34.8933 144.411 35.2077C144.398 35.2131 144.386 35.2217 144.376 35.2328C144.367 35.2439 144.361 35.2571 144.358 35.2712C144.355 35.2854 144.355 35.3001 144.36 35.3139C144.364 35.3278 144.371 35.3404 144.381 35.3507L149.478 40.4821C149.489 40.4921 149.501 40.4994 149.515 40.5034C149.529 40.5075 149.543 40.5081 149.557 40.5052C149.571 40.5024 149.584 40.4961 149.595 40.4871C149.606 40.478 149.615 40.4663 149.62 40.4532C149.939 39.6587 150.237 38.8563 150.514 38.0467C150.874 36.9992 151.164 35.7183 150.142 34.6963Z" fill="url(#paint22_linear_61_556)"/>
<path d="M136.464 46.8444C137.517 46.4566 138.541 47.4804 138.153 48.5341L135.856 54.7752C135.805 54.9135 135.721 55.0368 135.61 55.1336C135.499 55.2305 135.365 55.2979 135.221 55.3295C135.077 55.3612 134.928 55.3561 134.786 55.3147C134.645 55.2733 134.516 55.197 134.412 55.0928L129.904 50.5852C129.8 50.4811 129.724 50.3524 129.683 50.2112C129.642 50.0699 129.637 49.9205 129.668 49.7768C129.7 49.633 129.767 49.4995 129.864 49.3886C129.961 49.2777 130.084 49.1929 130.222 49.1421L136.464 46.8435V46.8444Z" fill="url(#paint23_linear_61_556)"/>
<path d="M136.464 46.8444C137.517 46.4566 138.541 47.4804 138.153 48.5341L135.856 54.7752C135.805 54.9135 135.721 55.0368 135.61 55.1336C135.499 55.2305 135.365 55.2979 135.221 55.3295C135.077 55.3612 134.928 55.3561 134.786 55.3147C134.645 55.2733 134.516 55.197 134.412 55.0928L129.904 50.5852C129.8 50.4811 129.724 50.3524 129.683 50.2112C129.642 50.0699 129.637 49.9205 129.668 49.7768C129.7 49.633 129.767 49.4995 129.864 49.3886C129.961 49.2777 130.084 49.1929 130.222 49.1421L136.464 46.8435V46.8444Z" fill="url(#paint24_radial_61_556)"/>
<path d="M136.464 46.8444C137.517 46.4566 138.541 47.4804 138.153 48.5341L135.856 54.7752C135.805 54.9135 135.721 55.0368 135.61 55.1336C135.499 55.2305 135.365 55.2979 135.221 55.3295C135.077 55.3612 134.928 55.3561 134.786 55.3147C134.645 55.2733 134.516 55.197 134.412 55.0928L129.904 50.5852C129.8 50.4811 129.724 50.3524 129.683 50.2112C129.642 50.0699 129.637 49.9205 129.668 49.7768C129.7 49.633 129.767 49.4995 129.864 49.3886C129.961 49.2777 130.084 49.1929 130.222 49.1421L136.464 46.8435V46.8444Z" fill="url(#paint25_radial_61_556)"/>
<path d="M136.464 46.8444C137.517 46.4566 138.541 47.4804 138.153 48.5341L135.856 54.7752C135.805 54.9135 135.721 55.0368 135.61 55.1336C135.499 55.2305 135.365 55.2979 135.221 55.3295C135.077 55.3612 134.928 55.3561 134.786 55.3147C134.645 55.2733 134.516 55.197 134.412 55.0928L129.904 50.5852C129.8 50.4811 129.724 50.3524 129.683 50.2112C129.642 50.0699 129.637 49.9205 129.668 49.7768C129.7 49.633 129.767 49.4995 129.864 49.3886C129.961 49.2777 130.084 49.1929 130.222 49.1421L136.464 46.8435V46.8444Z" fill="url(#paint26_radial_61_556)"/>
<g filter="url(#filter3_f_61_556)">
<path d="M132.624 51.5195L137.559 47.6532L134.379 53.3013L132.624 51.5195Z" fill="url(#paint27_linear_61_556)"/>
</g>
</g>
</g>
<g clip-path="url(#clip1_61_556)">
<mask id="mask1_61_556" style="mask-type:luminance" maskUnits="userSpaceOnUse" x="271" y="27" width="30" height="29">
<path d="M271.937 27.2645H300.01V55.3383H271.937V27.2645Z" fill="white"/>
</mask>
<g mask="url(#mask1_61_556)">
<path d="M281.22 39.2995C282.273 38.9117 283.297 39.9355 282.909 40.9892L280.613 47.2303C280.562 47.3686 280.477 47.4919 280.366 47.5887C280.255 47.6856 280.122 47.753 279.978 47.7846C279.834 47.8162 279.685 47.8111 279.543 47.7698C279.402 47.7284 279.273 47.6521 279.169 47.5479L274.661 43.0403C274.557 42.9362 274.481 42.8075 274.44 42.6662C274.399 42.525 274.394 42.3756 274.425 42.2318C274.457 42.0881 274.524 41.9546 274.621 41.8437C274.718 41.7328 274.841 41.648 274.979 41.5971L281.22 39.2986V39.2995Z" fill="url(#paint28_linear_61_556)"/>
<path d="M281.22 39.2995C282.273 38.9117 283.297 39.9355 282.909 40.9892L280.613 47.2303C280.562 47.3686 280.477 47.4919 280.366 47.5887C280.255 47.6856 280.122 47.753 279.978 47.7846C279.834 47.8162 279.685 47.8111 279.543 47.7698C279.402 47.7284 279.273 47.6521 279.169 47.5479L274.661 43.0403C274.557 42.9362 274.481 42.8075 274.44 42.6662C274.399 42.525 274.394 42.3756 274.425 42.2318C274.457 42.0881 274.524 41.9546 274.621 41.8437C274.718 41.7328 274.841 41.648 274.979 41.5971L281.22 39.2986V39.2995Z" fill="url(#paint29_radial_61_556)"/>
<path d="M281.22 39.2995C282.273 38.9117 283.297 39.9355 282.909 40.9892L280.613 47.2303C280.562 47.3686 280.477 47.4919 280.366 47.5887C280.255 47.6856 280.122 47.753 279.978 47.7846C279.834 47.8162 279.685 47.8111 279.543 47.7698C279.402 47.7284 279.273 47.6521 279.169 47.5479L274.661 43.0403C274.557 42.9362 274.481 42.8075 274.44 42.6662C274.399 42.525 274.394 42.3756 274.425 42.2318C274.457 42.0881 274.524 41.9546 274.621 41.8437C274.718 41.7328 274.841 41.648 274.979 41.5971L281.22 39.2986V39.2995Z" fill="url(#paint30_linear_61_556)"/>
<path d="M286.483 44.5633C287.536 44.1755 288.56 45.1993 288.172 46.253L285.875 52.4941C285.824 52.6322 285.739 52.7553 285.628 52.8521C285.517 52.9488 285.384 53.0161 285.24 53.0477C285.096 53.0794 284.947 53.0743 284.806 53.0331C284.664 52.9918 284.536 52.9157 284.432 52.8117L279.924 48.3041C279.82 48.2 279.744 48.0713 279.703 47.93C279.661 47.7888 279.656 47.6394 279.688 47.4956C279.72 47.3519 279.787 47.2184 279.884 47.1075C279.98 46.9966 280.103 46.9118 280.242 46.8609L286.483 44.5624V44.5633Z" fill="url(#paint31_linear_61_556)"/>
<path d="M286.483 44.5633C287.536 44.1755 288.56 45.1993 288.172 46.253L285.875 52.4941C285.824 52.6322 285.739 52.7553 285.628 52.8521C285.517 52.9488 285.384 53.0161 285.24 53.0477C285.096 53.0794 284.947 53.0743 284.806 53.0331C284.664 52.9918 284.536 52.9157 284.432 52.8117L279.924 48.3041C279.82 48.2 279.744 48.0713 279.703 47.93C279.661 47.7888 279.656 47.6394 279.688 47.4956C279.72 47.3519 279.787 47.2184 279.884 47.1075C279.98 46.9966 280.103 46.9118 280.242 46.8609L286.483 44.5624V44.5633Z" fill="url(#paint32_radial_61_556)"/>
<path d="M286.483 44.5633C287.536 44.1755 288.56 45.1993 288.172 46.253L285.875 52.4941C285.824 52.6322 285.739 52.7553 285.628 52.8521C285.517 52.9488 285.384 53.0161 285.24 53.0477C285.096 53.0794 284.947 53.0743 284.806 53.0331C284.664 52.9918 284.536 52.9157 284.432 52.8117L279.924 48.3041C279.82 48.2 279.744 48.0713 279.703 47.93C279.661 47.7888 279.656 47.6394 279.688 47.4956C279.72 47.3519 279.787 47.2184 279.884 47.1075C279.98 46.9966 280.103 46.9118 280.242 46.8609L286.483 44.5624V44.5633Z" fill="url(#paint33_radial_61_556)"/>
<g filter="url(#filter4_d_61_556)">
<path d="M291.588 30.379C291.612 30.3695 291.638 30.3673 291.664 30.3726C291.689 30.3779 291.712 30.3905 291.73 30.4089L296.893 35.6113C296.911 35.6295 296.924 35.6527 296.929 35.678C296.934 35.7033 296.932 35.7295 296.922 35.7534C295.685 38.7889 293.981 42.0174 291.699 44.3001C289.476 46.5232 285.715 48.4173 282.32 49.8105L277.503 44.9923C278.896 41.5971 280.79 37.8379 283.013 35.6148C285.303 33.325 288.544 31.6169 291.587 30.3799L291.588 30.379Z" fill="url(#paint34_linear_61_556)"/>
<path d="M291.588 30.379C291.612 30.3695 291.638 30.3673 291.664 30.3726C291.689 30.3779 291.712 30.3905 291.73 30.4089L296.893 35.6113C296.911 35.6295 296.924 35.6527 296.929 35.678C296.934 35.7033 296.932 35.7295 296.922 35.7534C295.685 38.7889 293.981 42.0174 291.699 44.3001C289.476 46.5232 285.715 48.4173 282.32 49.8105L277.503 44.9923C278.896 41.5971 280.79 37.8379 283.013 35.6148C285.303 33.325 288.544 31.6169 291.587 30.3799L291.588 30.379Z" fill="url(#paint35_radial_61_556)"/>
<path d="M291.588 30.379C291.612 30.3695 291.638 30.3673 291.664 30.3726C291.689 30.3779 291.712 30.3905 291.73 30.4089L296.893 35.6113C296.911 35.6295 296.924 35.6527 296.929 35.678C296.934 35.7033 296.932 35.7295 296.922 35.7534C295.685 38.7889 293.981 42.0174 291.699 44.3001C289.476 46.5232 285.715 48.4173 282.32 49.8105L277.503 44.9923C278.896 41.5971 280.79 37.8379 283.013 35.6148C285.303 33.325 288.544 31.6169 291.587 30.3799L291.588 30.379Z" fill="url(#paint36_radial_61_556)"/>
<path d="M291.588 30.379C291.612 30.3695 291.638 30.3673 291.664 30.3726C291.689 30.3779 291.712 30.3905 291.73 30.4089L296.893 35.6113C296.911 35.6295 296.924 35.6527 296.929 35.678C296.934 35.7033 296.932 35.7295 296.922 35.7534C295.685 38.7889 293.981 42.0174 291.699 44.3001C289.476 46.5232 285.715 48.4173 282.32 49.8105L277.503 44.9923C278.896 41.5971 280.79 37.8379 283.013 35.6148C285.303 33.325 288.544 31.6169 291.587 30.3799L291.588 30.379Z" fill="url(#paint37_radial_61_556)"/>
<path d="M291.588 30.379C291.612 30.3695 291.638 30.3673 291.664 30.3726C291.689 30.3779 291.712 30.3905 291.73 30.4089L296.893 35.6113C296.911 35.6295 296.924 35.6527 296.929 35.678C296.934 35.7033 296.932 35.7295 296.922 35.7534C295.685 38.7889 293.981 42.0174 291.699 44.3001C289.476 46.5232 285.715 48.4173 282.32 49.8105L277.503 44.9923C278.896 41.5971 280.79 37.8379 283.013 35.6148C285.303 33.325 288.544 31.6169 291.587 30.3799L291.588 30.379Z" fill="url(#paint38_radial_61_556)"/>
</g>
<g filter="url(#filter5_ddd_61_556)">
<path d="M293.43 36.9693C293.437 37.3606 293.366 37.7494 293.221 38.1129C293.076 38.4764 292.86 38.8073 292.585 39.0865C292.311 39.3656 291.984 39.5873 291.623 39.7386C291.262 39.8899 290.874 39.9679 290.483 39.9679C290.092 39.9679 289.704 39.8899 289.343 39.7386C288.982 39.5873 288.655 39.3656 288.381 39.0865C288.106 38.8073 287.89 38.4764 287.745 38.1129C287.6 37.7494 287.529 37.3606 287.536 36.9693C287.549 36.1964 287.865 35.4597 288.417 34.9179C288.968 34.376 289.71 34.0724 290.483 34.0724C291.256 34.0724 291.998 34.376 292.549 34.9179C293.101 35.4597 293.417 36.1964 293.43 36.9693Z" fill="url(#paint39_linear_61_556)"/>
<path d="M293.43 36.9693C293.437 37.3606 293.366 37.7494 293.221 38.1129C293.076 38.4764 292.86 38.8073 292.585 39.0865C292.311 39.3656 291.984 39.5873 291.623 39.7386C291.262 39.8899 290.874 39.9679 290.483 39.9679C290.092 39.9679 289.704 39.8899 289.343 39.7386C288.982 39.5873 288.655 39.3656 288.381 39.0865C288.106 38.8073 287.89 38.4764 287.745 38.1129C287.6 37.7494 287.529 37.3606 287.536 36.9693C287.549 36.1964 287.865 35.4597 288.417 34.9179C288.968 34.376 289.71 34.0724 290.483 34.0724C291.256 34.0724 291.998 34.376 292.549 34.9179C293.101 35.4597 293.417 36.1964 293.43 36.9693Z" fill="url(#paint40_radial_61_556)"/>
</g>
<path d="M292.523 36.9694C292.529 37.2409 292.48 37.5107 292.38 37.7632C292.28 38.0156 292.131 38.2456 291.941 38.4396C291.751 38.6336 291.524 38.7877 291.274 38.8929C291.023 38.9981 290.755 39.0523 290.483 39.0523C290.211 39.0523 289.943 38.9981 289.692 38.8929C289.442 38.7877 289.215 38.6336 289.025 38.4396C288.835 38.2456 288.686 38.0156 288.586 37.7632C288.486 37.5107 288.437 37.2409 288.443 36.9694C288.454 36.4356 288.674 35.9274 289.055 35.5539C289.437 35.1803 289.949 34.9711 290.483 34.9711C291.017 34.9711 291.529 35.1803 291.911 35.5539C292.292 35.9274 292.512 36.4356 292.523 36.9694Z" fill="url(#paint41_radial_61_556)"/>
<g filter="url(#filter6_d_61_556)">
<path d="M274.062 53.174C273.442 52.5538 273.691 48.2515 275.884 47.3742C275.884 47.3742 278.077 46.4969 279.491 47.9006C280.904 49.3042 280.271 50.8834 280.271 50.8834C279.65 52.7442 277.01 53.4837 276.699 53.1732C276.528 53.0021 276.836 52.6906 276.699 52.5538C276.562 52.416 276.35 52.5731 275.769 52.8635C275.355 53.0705 274.31 53.4223 274.062 53.174Z" fill="url(#paint42_radial_61_556)"/>
<path d="M274.062 53.174C273.442 52.5538 273.691 48.2515 275.884 47.3742C275.884 47.3742 278.077 46.4969 279.491 47.9006C280.904 49.3042 280.271 50.8834 280.271 50.8834C279.65 52.7442 277.01 53.4837 276.699 53.1732C276.528 53.0021 276.836 52.6906 276.699 52.5538C276.562 52.416 276.35 52.5731 275.769 52.8635C275.355 53.0705 274.31 53.4223 274.062 53.174Z" fill="url(#paint43_radial_61_556)"/>
</g>
<path d="M277.253 45.6722C277.375 45.5499 277.52 45.4529 277.68 45.3868C277.84 45.3206 278.011 45.2865 278.184 45.2865C278.357 45.2865 278.528 45.3206 278.688 45.3868C278.847 45.4529 278.992 45.5499 279.115 45.6722L282.216 48.7744C282.451 49.0233 282.581 49.3542 282.576 49.6969C282.571 50.0395 282.433 50.3668 282.191 50.6092C281.949 50.8516 281.621 50.9899 281.279 50.9947C280.936 50.9996 280.605 50.8706 280.356 50.6352L277.253 47.5339C277.131 47.4117 277.034 47.2666 276.967 47.1068C276.901 46.9471 276.867 46.7759 276.867 46.6031C276.867 46.4302 276.901 46.259 276.967 46.0993C277.034 45.9395 277.131 45.7944 277.253 45.6722Z" fill="url(#paint44_linear_61_556)"/>
<path d="M277.253 45.6722C277.375 45.5499 277.52 45.4529 277.68 45.3868C277.84 45.3206 278.011 45.2865 278.184 45.2865C278.357 45.2865 278.528 45.3206 278.688 45.3868C278.847 45.4529 278.992 45.5499 279.115 45.6722L282.216 48.7744C282.451 49.0233 282.581 49.3542 282.576 49.6969C282.571 50.0395 282.433 50.3668 282.191 50.6092C281.949 50.8516 281.621 50.9899 281.279 50.9947C280.936 50.9996 280.605 50.8706 280.356 50.6352L277.253 47.5339C277.131 47.4117 277.034 47.2666 276.967 47.1068C276.901 46.9471 276.867 46.7759 276.867 46.6031C276.867 46.4302 276.901 46.259 276.967 46.0993C277.034 45.9395 277.131 45.7944 277.253 45.6722Z" fill="url(#paint45_radial_61_556)"/>
<path d="M277.253 45.6722C277.375 45.5499 277.52 45.4529 277.68 45.3868C277.84 45.3206 278.011 45.2865 278.184 45.2865C278.357 45.2865 278.528 45.3206 278.688 45.3868C278.847 45.4529 278.992 45.5499 279.115 45.6722L282.216 48.7744C282.451 49.0233 282.581 49.3542 282.576 49.6969C282.571 50.0395 282.433 50.3668 282.191 50.6092C281.949 50.8516 281.621 50.9899 281.279 50.9947C280.936 50.9996 280.605 50.8706 280.356 50.6352L277.253 47.5339C277.131 47.4117 277.034 47.2666 276.967 47.1068C276.901 46.9471 276.867 46.7759 276.867 46.6031C276.867 46.4302 276.901 46.259 276.967 46.0993C277.034 45.9395 277.131 45.7944 277.253 45.6722Z" fill="url(#paint46_radial_61_556)"/>
<path d="M297.529 29.7833C296.698 28.9525 295.241 29.0464 294.18 29.4113C293.379 29.6858 292.585 29.9804 291.799 30.2948C291.785 30.3002 291.773 30.3088 291.764 30.3198C291.755 30.3309 291.748 30.3441 291.746 30.3583C291.743 30.3724 291.743 30.3871 291.747 30.401C291.751 30.4148 291.759 30.4275 291.769 30.4378L296.866 35.5691C296.876 35.5791 296.889 35.5864 296.903 35.5905C296.916 35.5945 296.931 35.5951 296.945 35.5923C296.959 35.5894 296.972 35.5832 296.983 35.5741C296.994 35.565 297.003 35.5534 297.008 35.5402C297.327 34.7457 297.625 33.9433 297.902 33.1337C298.262 32.0862 298.551 30.8054 297.529 29.7833Z" fill="url(#paint47_linear_61_556)"/>
<path d="M297.529 29.7833C296.698 28.9525 295.241 29.0464 294.18 29.4113C293.379 29.6858 292.585 29.9804 291.799 30.2948C291.785 30.3002 291.773 30.3088 291.764 30.3198C291.755 30.3309 291.748 30.3441 291.746 30.3583C291.743 30.3724 291.743 30.3871 291.747 30.401C291.751 30.4148 291.759 30.4275 291.769 30.4378L296.866 35.5691C296.876 35.5791 296.889 35.5864 296.903 35.5905C296.916 35.5945 296.931 35.5951 296.945 35.5923C296.959 35.5894 296.972 35.5832 296.983 35.5741C296.994 35.565 297.003 35.5534 297.008 35.5402C297.327 34.7457 297.625 33.9433 297.902 33.1337C298.262 32.0862 298.551 30.8054 297.529 29.7833Z" fill="url(#paint48_radial_61_556)"/>
<path d="M297.529 29.7833C296.698 28.9525 295.241 29.0464 294.18 29.4113C293.379 29.6858 292.585 29.9804 291.799 30.2948C291.785 30.3002 291.773 30.3088 291.764 30.3198C291.755 30.3309 291.748 30.3441 291.746 30.3583C291.743 30.3724 291.743 30.3871 291.747 30.401C291.751 30.4148 291.759 30.4275 291.769 30.4378L296.866 35.5691C296.876 35.5791 296.889 35.5864 296.903 35.5905C296.916 35.5945 296.931 35.5951 296.945 35.5923C296.959 35.5894 296.972 35.5832 296.983 35.5741C296.994 35.565 297.003 35.5534 297.008 35.5402C297.327 34.7457 297.625 33.9433 297.902 33.1337C298.262 32.0862 298.551 30.8054 297.529 29.7833Z" fill="url(#paint49_linear_61_556)"/>
<path d="M283.852 41.9314C284.905 41.5437 285.928 42.5675 285.541 43.6211L283.244 49.8623C283.193 50.0006 283.108 50.1238 282.997 50.2207C282.886 50.3175 282.753 50.3849 282.609 50.4166C282.465 50.4482 282.315 50.4431 282.174 50.4017C282.033 50.3604 281.904 50.2841 281.8 50.1799L277.292 45.6723C277.188 45.5681 277.112 45.4395 277.071 45.2982C277.03 45.1569 277.025 45.0075 277.056 44.8638C277.088 44.7201 277.155 44.5866 277.252 44.4757C277.349 44.3647 277.472 44.28 277.61 44.2291L283.852 41.9305V41.9314Z" fill="url(#paint50_linear_61_556)"/>
<path d="M283.852 41.9314C284.905 41.5437 285.928 42.5675 285.541 43.6211L283.244 49.8623C283.193 50.0006 283.108 50.1238 282.997 50.2207C282.886 50.3175 282.753 50.3849 282.609 50.4166C282.465 50.4482 282.315 50.4431 282.174 50.4017C282.033 50.3604 281.904 50.2841 281.8 50.1799L277.292 45.6723C277.188 45.5681 277.112 45.4395 277.071 45.2982C277.03 45.1569 277.025 45.0075 277.056 44.8638C277.088 44.7201 277.155 44.5866 277.252 44.4757C277.349 44.3647 277.472 44.28 277.61 44.2291L283.852 41.9305V41.9314Z" fill="url(#paint51_radial_61_556)"/>
<path d="M283.852 41.9314C284.905 41.5437 285.928 42.5675 285.541 43.6211L283.244 49.8623C283.193 50.0006 283.108 50.1238 282.997 50.2207C282.886 50.3175 282.753 50.3849 282.609 50.4166C282.465 50.4482 282.315 50.4431 282.174 50.4017C282.033 50.3604 281.904 50.2841 281.8 50.1799L277.292 45.6723C277.188 45.5681 277.112 45.4395 277.071 45.2982C277.03 45.1569 277.025 45.0075 277.056 44.8638C277.088 44.7201 277.155 44.5866 277.252 44.4757C277.349 44.3647 277.472 44.28 277.61 44.2291L283.852 41.9305V41.9314Z" fill="url(#paint52_radial_61_556)"/>
<path d="M283.852 41.9314C284.905 41.5437 285.928 42.5675 285.541 43.6211L283.244 49.8623C283.193 50.0006 283.108 50.1238 282.997 50.2207C282.886 50.3175 282.753 50.3849 282.609 50.4166C282.465 50.4482 282.315 50.4431 282.174 50.4017C282.033 50.3604 281.904 50.2841 281.8 50.1799L277.292 45.6723C277.188 45.5681 277.112 45.4395 277.071 45.2982C277.03 45.1569 277.025 45.0075 277.056 44.8638C277.088 44.7201 277.155 44.5866 277.252 44.4757C277.349 44.3647 277.472 44.28 277.61 44.2291L283.852 41.9305V41.9314Z" fill="url(#paint53_radial_61_556)"/>
<g filter="url(#filter7_f_61_556)">
<path d="M280.012 46.6065L284.947 42.7402L281.766 48.3883L280.012 46.6065Z" fill="url(#paint54_linear_61_556)"/>
</g>
</g>
</g>
<g clip-path="url(#clip2_61_556)">
<mask id="mask2_61_556" style="mask-type:luminance" maskUnits="userSpaceOnUse" x="422" y="21" width="29" height="29">
<path d="M422.131 21.6498H450.205V49.7236H422.131V21.6498Z" fill="white"/>
</mask>
<g mask="url(#mask2_61_556)">
<path d="M431.415 33.6847C432.468 33.297 433.491 34.3208 433.104 35.3744L430.808 41.6156C430.757 41.7538 430.672 41.8771 430.561 41.974C430.45 42.0708 430.317 42.1382 430.173 42.1698C430.029 42.2015 429.879 42.1964 429.738 42.155C429.597 42.1137 429.468 42.0374 429.364 41.9332L424.856 37.4256C424.752 37.3214 424.676 37.1928 424.635 37.0515C424.594 36.9102 424.588 36.7608 424.62 36.6171C424.652 36.4733 424.719 36.3399 424.816 36.229C424.913 36.118 425.036 36.0333 425.174 35.9824L431.415 33.6838V33.6847Z" fill="url(#paint55_linear_61_556)"/>
<path d="M431.415 33.6847C432.468 33.297 433.491 34.3208 433.104 35.3744L430.808 41.6156C430.757 41.7538 430.672 41.8771 430.561 41.974C430.45 42.0708 430.317 42.1382 430.173 42.1698C430.029 42.2015 429.879 42.1964 429.738 42.155C429.597 42.1137 429.468 42.0374 429.364 41.9332L424.856 37.4256C424.752 37.3214 424.676 37.1928 424.635 37.0515C424.594 36.9102 424.588 36.7608 424.62 36.6171C424.652 36.4733 424.719 36.3399 424.816 36.229C424.913 36.118 425.036 36.0333 425.174 35.9824L431.415 33.6838V33.6847Z" fill="url(#paint56_radial_61_556)"/>
<path d="M431.415 33.6847C432.468 33.297 433.491 34.3208 433.104 35.3744L430.808 41.6156C430.757 41.7538 430.672 41.8771 430.561 41.974C430.45 42.0708 430.317 42.1382 430.173 42.1698C430.029 42.2015 429.879 42.1964 429.738 42.155C429.597 42.1137 429.468 42.0374 429.364 41.9332L424.856 37.4256C424.752 37.3214 424.676 37.1928 424.635 37.0515C424.594 36.9102 424.588 36.7608 424.62 36.6171C424.652 36.4733 424.719 36.3399 424.816 36.229C424.913 36.118 425.036 36.0333 425.174 35.9824L431.415 33.6838V33.6847Z" fill="url(#paint57_linear_61_556)"/>
<path d="M436.678 38.9485C437.731 38.5607 438.755 39.5846 438.367 40.6382L436.07 46.8794C436.019 47.0175 435.934 47.1406 435.823 47.2373C435.712 47.3341 435.579 47.4013 435.435 47.433C435.291 47.4646 435.142 47.4596 435 47.4183C434.859 47.3771 434.731 47.301 434.626 47.197L430.119 42.6894C430.015 42.5852 429.939 42.4566 429.897 42.3153C429.856 42.174 429.851 42.0246 429.883 41.8809C429.914 41.7371 429.982 41.6037 430.078 41.4928C430.175 41.3818 430.298 41.297 430.436 41.2462L436.678 38.9476V38.9485Z" fill="url(#paint58_linear_61_556)"/>
<path d="M436.678 38.9485C437.731 38.5607 438.755 39.5846 438.367 40.6382L436.07 46.8794C436.019 47.0175 435.934 47.1406 435.823 47.2373C435.712 47.3341 435.579 47.4013 435.435 47.433C435.291 47.4646 435.142 47.4596 435 47.4183C434.859 47.3771 434.731 47.301 434.626 47.197L430.119 42.6894C430.015 42.5852 429.939 42.4566 429.897 42.3153C429.856 42.174 429.851 42.0246 429.883 41.8809C429.914 41.7371 429.982 41.6037 430.078 41.4928C430.175 41.3818 430.298 41.297 430.436 41.2462L436.678 38.9476V38.9485Z" fill="url(#paint59_radial_61_556)"/>
<path d="M436.678 38.9485C437.731 38.5607 438.755 39.5846 438.367 40.6382L436.07 46.8794C436.019 47.0175 435.934 47.1406 435.823 47.2373C435.712 47.3341 435.579 47.4013 435.435 47.433C435.291 47.4646 435.142 47.4596 435 47.4183C434.859 47.3771 434.731 47.301 434.626 47.197L430.119 42.6894C430.015 42.5852 429.939 42.4566 429.897 42.3153C429.856 42.174 429.851 42.0246 429.883 41.8809C429.914 41.7371 429.982 41.6037 430.078 41.4928C430.175 41.3818 430.298 41.297 430.436 41.2462L436.678 38.9476V38.9485Z" fill="url(#paint60_radial_61_556)"/>
<g filter="url(#filter8_d_61_556)">
<path d="M441.783 24.7643C441.807 24.7548 441.833 24.7525 441.858 24.7578C441.884 24.7631 441.907 24.7757 441.925 24.7941L447.088 29.9965C447.106 30.0148 447.119 30.038 447.124 30.0632C447.129 30.0885 447.127 30.1147 447.117 30.1387C445.88 33.1741 444.175 36.4026 441.893 38.6854C439.67 40.9085 435.91 42.8026 432.515 44.1957L427.698 39.3776C429.091 35.9824 430.985 32.2231 433.208 30C435.498 27.7103 438.739 26.0022 441.782 24.7652L441.783 24.7643Z" fill="url(#paint61_linear_61_556)"/>
<path d="M441.783 24.7643C441.807 24.7548 441.833 24.7525 441.858 24.7578C441.884 24.7631 441.907 24.7757 441.925 24.7941L447.088 29.9965C447.106 30.0148 447.119 30.038 447.124 30.0632C447.129 30.0885 447.127 30.1147 447.117 30.1387C445.88 33.1741 444.175 36.4026 441.893 38.6854C439.67 40.9085 435.91 42.8026 432.515 44.1957L427.698 39.3776C429.091 35.9824 430.985 32.2231 433.208 30C435.498 27.7103 438.739 26.0022 441.782 24.7652L441.783 24.7643Z" fill="url(#paint62_radial_61_556)"/>
<path d="M441.783 24.7643C441.807 24.7548 441.833 24.7525 441.858 24.7578C441.884 24.7631 441.907 24.7757 441.925 24.7941L447.088 29.9965C447.106 30.0148 447.119 30.038 447.124 30.0632C447.129 30.0885 447.127 30.1147 447.117 30.1387C445.88 33.1741 444.175 36.4026 441.893 38.6854C439.67 40.9085 435.91 42.8026 432.515 44.1957L427.698 39.3776C429.091 35.9824 430.985 32.2231 433.208 30C435.498 27.7103 438.739 26.0022 441.782 24.7652L441.783 24.7643Z" fill="url(#paint63_radial_61_556)"/>
<path d="M441.783 24.7643C441.807 24.7548 441.833 24.7525 441.858 24.7578C441.884 24.7631 441.907 24.7757 441.925 24.7941L447.088 29.9965C447.106 30.0148 447.119 30.038 447.124 30.0632C447.129 30.0885 447.127 30.1147 447.117 30.1387C445.88 33.1741 444.175 36.4026 441.893 38.6854C439.67 40.9085 435.91 42.8026 432.515 44.1957L427.698 39.3776C429.091 35.9824 430.985 32.2231 433.208 30C435.498 27.7103 438.739 26.0022 441.782 24.7652L441.783 24.7643Z" fill="url(#paint64_radial_61_556)"/>
<path d="M441.783 24.7643C441.807 24.7548 441.833 24.7525 441.858 24.7578C441.884 24.7631 441.907 24.7757 441.925 24.7941L447.088 29.9965C447.106 30.0148 447.119 30.038 447.124 30.0632C447.129 30.0885 447.127 30.1147 447.117 30.1387C445.88 33.1741 444.175 36.4026 441.893 38.6854C439.67 40.9085 435.91 42.8026 432.515 44.1957L427.698 39.3776C429.091 35.9824 430.985 32.2231 433.208 30C435.498 27.7103 438.739 26.0022 441.782 24.7652L441.783 24.7643Z" fill="url(#paint65_radial_61_556)"/>
</g>
<g filter="url(#filter9_d_61_556)">
<path d="M424.257 47.5593C423.637 46.939 423.886 42.6367 426.079 41.7594C426.079 41.7594 428.272 40.8821 429.686 42.2858C431.099 43.6895 430.466 45.2686 430.466 45.2686C429.845 47.1294 427.205 47.869 426.894 47.5584C426.723 47.3873 427.031 47.0759 426.894 46.939C426.757 46.8013 426.545 46.9583 425.964 47.2487C425.55 47.4558 424.505 47.8076 424.257 47.5593Z" fill="url(#paint66_radial_61_556)"/>
<path d="M424.257 47.5593C423.637 46.939 423.886 42.6367 426.079 41.7594C426.079 41.7594 428.272 40.8821 429.686 42.2858C431.099 43.6895 430.466 45.2686 430.466 45.2686C429.845 47.1294 427.205 47.869 426.894 47.5584C426.723 47.3873 427.031 47.0759 426.894 46.939C426.757 46.8013 426.545 46.9583 425.964 47.2487C425.55 47.4558 424.505 47.8076 424.257 47.5593Z" fill="url(#paint67_radial_61_556)"/>
</g>
<path d="M427.448 40.0575C427.57 39.9352 427.715 39.8382 427.875 39.772C428.034 39.7058 428.206 39.6718 428.379 39.6718C428.551 39.6718 428.723 39.7058 428.882 39.772C429.042 39.8382 429.187 39.9352 429.309 40.0575L432.411 43.1596C432.646 43.4085 432.775 43.7395 432.771 44.0821C432.766 44.4248 432.628 44.7521 432.386 44.9945C432.143 45.2368 431.816 45.3751 431.473 45.38C431.131 45.3848 430.8 45.2558 430.551 45.0204L427.448 41.9191C427.325 41.7969 427.228 41.6518 427.162 41.4921C427.096 41.3324 427.062 41.1612 427.062 40.9883C427.062 40.8154 427.096 40.6442 427.162 40.4845C427.228 40.3248 427.325 40.1797 427.448 40.0575Z" fill="url(#paint68_linear_61_556)"/>
<path d="M427.448 40.0575C427.57 39.9352 427.715 39.8382 427.875 39.772C428.034 39.7058 428.206 39.6718 428.379 39.6718C428.551 39.6718 428.723 39.7058 428.882 39.772C429.042 39.8382 429.187 39.9352 429.309 40.0575L432.411 43.1596C432.646 43.4085 432.775 43.7395 432.771 44.0821C432.766 44.4248 432.628 44.7521 432.386 44.9945C432.143 45.2368 431.816 45.3751 431.473 45.38C431.131 45.3848 430.8 45.2558 430.551 45.0204L427.448 41.9191C427.325 41.7969 427.228 41.6518 427.162 41.4921C427.096 41.3324 427.062 41.1612 427.062 40.9883C427.062 40.8154 427.096 40.6442 427.162 40.4845C427.228 40.3248 427.325 40.1797 427.448 40.0575Z" fill="url(#paint69_radial_61_556)"/>
<path d="M427.448 40.0575C427.57 39.9352 427.715 39.8382 427.875 39.772C428.034 39.7058 428.206 39.6718 428.379 39.6718C428.551 39.6718 428.723 39.7058 428.882 39.772C429.042 39.8382 429.187 39.9352 429.309 40.0575L432.411 43.1596C432.646 43.4085 432.775 43.7395 432.771 44.0821C432.766 44.4248 432.628 44.7521 432.386 44.9945C432.143 45.2368 431.816 45.3751 431.473 45.38C431.131 45.3848 430.8 45.2558 430.551 45.0204L427.448 41.9191C427.325 41.7969 427.228 41.6518 427.162 41.4921C427.096 41.3324 427.062 41.1612 427.062 40.9883C427.062 40.8154 427.096 40.6442 427.162 40.4845C427.228 40.3248 427.325 40.1797 427.448 40.0575Z" fill="url(#paint70_radial_61_556)"/>
<path d="M434.047 36.3167C435.099 35.9289 436.123 36.9527 435.735 38.0064L433.439 44.2475C433.388 44.3858 433.303 44.5091 433.192 44.6059C433.081 44.7028 432.947 44.7702 432.804 44.8018C432.66 44.8334 432.51 44.8284 432.369 44.787C432.227 44.7456 432.099 44.6693 431.995 44.5651L427.487 40.0575C427.383 39.9534 427.307 39.8247 427.266 39.6835C427.224 39.5422 427.219 39.3928 427.251 39.249C427.283 39.1053 427.35 38.9718 427.447 38.8609C427.543 38.75 427.666 38.6652 427.805 38.6143L434.047 36.3158V36.3167Z" fill="url(#paint71_linear_61_556)"/>
<path d="M434.047 36.3167C435.099 35.9289 436.123 36.9527 435.735 38.0064L433.439 44.2475C433.388 44.3858 433.303 44.5091 433.192 44.6059C433.081 44.7028 432.947 44.7702 432.804 44.8018C432.66 44.8334 432.51 44.8284 432.369 44.787C432.227 44.7456 432.099 44.6693 431.995 44.5651L427.487 40.0575C427.383 39.9534 427.307 39.8247 427.266 39.6835C427.224 39.5422 427.219 39.3928 427.251 39.249C427.283 39.1053 427.35 38.9718 427.447 38.8609C427.543 38.75 427.666 38.6652 427.805 38.6143L434.047 36.3158V36.3167Z" fill="url(#paint72_radial_61_556)"/>
<path d="M434.047 36.3167C435.099 35.9289 436.123 36.9527 435.735 38.0064L433.439 44.2475C433.388 44.3858 433.303 44.5091 433.192 44.6059C433.081 44.7028 432.947 44.7702 432.804 44.8018C432.66 44.8334 432.51 44.8284 432.369 44.787C432.227 44.7456 432.099 44.6693 431.995 44.5651L427.487 40.0575C427.383 39.9534 427.307 39.8247 427.266 39.6835C427.224 39.5422 427.219 39.3928 427.251 39.249C427.283 39.1053 427.35 38.9718 427.447 38.8609C427.543 38.75 427.666 38.6652 427.805 38.6143L434.047 36.3158V36.3167Z" fill="url(#paint73_radial_61_556)"/>
<path d="M434.047 36.3167C435.099 35.9289 436.123 36.9527 435.735 38.0064L433.439 44.2475C433.388 44.3858 433.303 44.5091 433.192 44.6059C433.081 44.7028 432.947 44.7702 432.804 44.8018C432.66 44.8334 432.51 44.8284 432.369 44.787C432.227 44.7456 432.099 44.6693 431.995 44.5651L427.487 40.0575C427.383 39.9534 427.307 39.8247 427.266 39.6835C427.224 39.5422 427.219 39.3928 427.251 39.249C427.283 39.1053 427.35 38.9718 427.447 38.8609C427.543 38.75 427.666 38.6652 427.805 38.6143L434.047 36.3158V36.3167Z" fill="url(#paint74_radial_61_556)"/>
<g filter="url(#filter10_f_61_556)">
</g>
</g>
</g>
<g clip-path="url(#clip3_61_556)">
<mask id="mask3_61_556" style="mask-type:luminance" maskUnits="userSpaceOnUse" x="-26" y="39" width="29" height="29">
<path d="M-25.646 39.1959H2.42782V67.2697H-25.646V39.1959Z" fill="white"/>
</mask>
<g mask="url(#mask3_61_556)">
<g filter="url(#filter11_d_61_556)">
</g>
<path d="M-0.05323 41.7147C-0.884039 40.8839 -2.34125 40.9778 -3.40279 41.3427C-4.20374 41.6172 -4.99766 41.9118 -5.7838 42.2262C-5.79722 42.2315 -5.80909 42.2402 -5.81838 42.2512C-5.82766 42.2623 -5.83407 42.2755 -5.83702 42.2897C-5.83997 42.3038 -5.83938 42.3185 -5.8353 42.3324C-5.83122 42.3462 -5.82377 42.3589 -5.81363 42.3692L-0.716474 47.5005C-0.70623 47.5105 -0.693704 47.5178 -0.679984 47.5219C-0.666264 47.5259 -0.651767 47.5265 -0.637756 47.5236C-0.623745 47.5208 -0.610643 47.5146 -0.599592 47.5055C-0.588541 47.4964 -0.579877 47.4848 -0.574352 47.4716C-0.256008 46.6771 0.0420807 45.8747 0.319625 45.0651C0.67932 44.0176 0.968832 42.7368 -0.05323 41.7147Z" fill="url(#paint75_linear_61_556)"/>
<path d="M-0.05323 41.7147C-0.884039 40.8839 -2.34125 40.9778 -3.40279 41.3427C-4.20374 41.6172 -4.99766 41.9118 -5.7838 42.2262C-5.79722 42.2315 -5.80909 42.2402 -5.81838 42.2512C-5.82766 42.2623 -5.83407 42.2755 -5.83702 42.2897C-5.83997 42.3038 -5.83938 42.3185 -5.8353 42.3324C-5.83122 42.3462 -5.82377 42.3589 -5.81363 42.3692L-0.716474 47.5005C-0.70623 47.5105 -0.693704 47.5178 -0.679984 47.5219C-0.666264 47.5259 -0.651767 47.5265 -0.637756 47.5236C-0.623745 47.5208 -0.610643 47.5146 -0.599592 47.5055C-0.588541 47.4964 -0.579877 47.4848 -0.574352 47.4716C-0.256008 46.6771 0.0420807 45.8747 0.319625 45.0651C0.67932 44.0176 0.968832 42.7368 -0.05323 41.7147Z" fill="url(#paint76_radial_61_556)"/>
<path d="M-0.05323 41.7147C-0.884039 40.8839 -2.34125 40.9778 -3.40279 41.3427C-4.20374 41.6172 -4.99766 41.9118 -5.7838 42.2262C-5.79722 42.2315 -5.80909 42.2402 -5.81838 42.2512C-5.82766 42.2623 -5.83407 42.2755 -5.83702 42.2897C-5.83997 42.3038 -5.83938 42.3185 -5.8353 42.3324C-5.83122 42.3462 -5.82377 42.3589 -5.81363 42.3692L-0.716474 47.5005C-0.70623 47.5105 -0.693704 47.5178 -0.679984 47.5219C-0.666264 47.5259 -0.651767 47.5265 -0.637756 47.5236C-0.623745 47.5208 -0.610643 47.5146 -0.599592 47.5055C-0.588541 47.4964 -0.579877 47.4848 -0.574352 47.4716C-0.256008 46.6771 0.0420807 45.8747 0.319625 45.0651C0.67932 44.0176 0.968832 42.7368 -0.05323 41.7147Z" fill="url(#paint77_linear_61_556)"/>
</g>
</g>
<defs>
<filter id="filter0_d_61_556" x="128.365" y="33.2827" width="22.4287" height="22.4408" filterUnits="userSpaceOnUse" color-interpolation-filters="sRGB">
<feFlood flood-opacity="0" result="BackgroundImageFix"/>
<feColorMatrix in="SourceAlpha" type="matrix" values="0 0 0 0 0 0 0 0 0 0 0 0 0 0 0 0 0 0 127 0" result="hardAlpha"/>
<feOffset dx="-0.25" dy="-0.5"/>
<feGaussianBlur stdDeviation="0.75"/>
<feComposite in2="hardAlpha" operator="out"/>
<feColorMatrix type="matrix" values="0 0 0 0 0.745098 0 0 0 0 0.772549 0 0 0 0 0.952941 0 0 0 1 0"/>
<feBlend mode="normal" in2="BackgroundImageFix" result="effect1_dropShadow_61_556"/>
<feBlend mode="normal" in="SourceGraphic" in2="effect1_dropShadow_61_556" result="shape"/>
</filter>
<filter id="filter1_ddd_61_556" x="139.147" y="38.2354" width="7.89551" height="7.89551" filterUnits="userSpaceOnUse" color-interpolation-filters="sRGB">
<feFlood flood-opacity="0" result="BackgroundImageFix"/>
<feColorMatrix in="SourceAlpha" type="matrix" values="0 0 0 0 0 0 0 0 0 0 0 0 0 0 0 0 0 0 127 0" result="hardAlpha"/>
<feOffset dy="0.25"/>
<feGaussianBlur stdDeviation="0.5"/>
<feComposite in2="hardAlpha" operator="out"/>
<feColorMatrix type="matrix" values="0 0 0 0 0.866667 0 0 0 0 0.764706 0 0 0 0 0.847059 0 0 0 1 0"/>
<feBlend mode="normal" in2="BackgroundImageFix" result="effect1_dropShadow_61_556"/>
<feColorMatrix in="SourceAlpha" type="matrix" values="0 0 0 0 0 0 0 0 0 0 0 0 0 0 0 0 0 0 127 0" result="hardAlpha"/>
<feOffset dx="-0.1" dy="0.1"/>
<feGaussianBlur stdDeviation="0.05"/>
<feComposite in2="hardAlpha" operator="out"/>
<feColorMatrix type="matrix" values="0 0 0 0 0.721569 0 0 0 0 0.690196 0 0 0 0 0.701961 0 0 0 1 0"/>
<feBlend mode="normal" in2="effect1_dropShadow_61_556" result="effect2_dropShadow_61_556"/>
<feColorMatrix in="SourceAlpha" type="matrix" values="0 0 0 0 0 0 0 0 0 0 0 0 0 0 0 0 0 0 127 0" result="hardAlpha"/>
<feOffset dx="0.1" dy="-0.1"/>
<feGaussianBlur stdDeviation="0.05"/>
<feComposite in2="hardAlpha" operator="out"/>
<feColorMatrix type="matrix" values="0 0 0 0 0.615686 0 0 0 0 0.560784 0 0 0 0 0.65098 0 0 0 1 0"/>
<feBlend mode="normal" in2="effect2_dropShadow_61_556" result="effect3_dropShadow_61_556"/>
<feBlend mode="normal" in="SourceGraphic" in2="effect3_dropShadow_61_556" result="shape"/>
</filter>
<filter id="filter2_d_61_556" x="125.98" y="51.4164" width="7.44453" height="6.95601" filterUnits="userSpaceOnUse" color-interpolation-filters="sRGB">
<feFlood flood-opacity="0" result="BackgroundImageFix"/>
<feColorMatrix in="SourceAlpha" type="matrix" values="0 0 0 0 0 0 0 0 0 0 0 0 0 0 0 0 0 0 127 0" result="hardAlpha"/>
<feOffset dy="-0.2"/>
<feGaussianBlur stdDeviation="0.2"/>
<feComposite in2="hardAlpha" operator="out"/>
<feColorMatrix type="matrix" values="0 0 0 0 0.847059 0 0 0 0 0.505882 0 0 0 0 0.360784 0 0 0 1 0"/>
<feBlend mode="normal" in2="BackgroundImageFix" result="effect1_dropShadow_61_556"/>
<feBlend mode="normal" in="SourceGraphic" in2="effect1_dropShadow_61_556" result="shape"/>
</filter>
<filter id="filter3_f_61_556" x="131.624" y="46.6532" width="6.93506" height="7.64807" filterUnits="userSpaceOnUse" color-interpolation-filters="sRGB">
<feFlood flood-opacity="0" result="BackgroundImageFix"/>
<feBlend mode="normal" in="SourceGraphic" in2="BackgroundImageFix" result="shape"/>
<feGaussianBlur stdDeviation="0.5" result="effect1_foregroundBlur_61_556"/>
</filter>
<filter id="filter4_d_61_556" x="275.753" y="28.3698" width="22.4287" height="22.4408" filterUnits="userSpaceOnUse" color-interpolation-filters="sRGB">
<feFlood flood-opacity="0" result="BackgroundImageFix"/>
<feColorMatrix in="SourceAlpha" type="matrix" values="0 0 0 0 0 0 0 0 0 0 0 0 0 0 0 0 0 0 127 0" result="hardAlpha"/>
<feOffset dx="-0.25" dy="-0.5"/>
<feGaussianBlur stdDeviation="0.75"/>
<feComposite in2="hardAlpha" operator="out"/>
<feColorMatrix type="matrix" values="0 0 0 0 0.745098 0 0 0 0 0.772549 0 0 0 0 0.952941 0 0 0 1 0"/>
<feBlend mode="normal" in2="BackgroundImageFix" result="effect1_dropShadow_61_556"/>
<feBlend mode="normal" in="SourceGraphic" in2="effect1_dropShadow_61_556" result="shape"/>
</filter>
<filter id="filter5_ddd_61_556" x="286.535" y="33.3224" width="7.89551" height="7.89551" filterUnits="userSpaceOnUse" color-interpolation-filters="sRGB">
<feFlood flood-opacity="0" result="BackgroundImageFix"/>
<feColorMatrix in="SourceAlpha" type="matrix" values="0 0 0 0 0 0 0 0 0 0 0 0 0 0 0 0 0 0 127 0" result="hardAlpha"/>
<feOffset dy="0.25"/>
<feGaussianBlur stdDeviation="0.5"/>
<feComposite in2="hardAlpha" operator="out"/>
<feColorMatrix type="matrix" values="0 0 0 0 0.866667 0 0 0 0 0.764706 0 0 0 0 0.847059 0 0 0 1 0"/>
<feBlend mode="normal" in2="BackgroundImageFix" result="effect1_dropShadow_61_556"/>
<feColorMatrix in="SourceAlpha" type="matrix" values="0 0 0 0 0 0 0 0 0 0 0 0 0 0 0 0 0 0 127 0" result="hardAlpha"/>
<feOffset dx="-0.1" dy="0.1"/>
<feGaussianBlur stdDeviation="0.05"/>
<feComposite in2="hardAlpha" operator="out"/>
<feColorMatrix type="matrix" values="0 0 0 0 0.721569 0 0 0 0 0.690196 0 0 0 0 0.701961 0 0 0 1 0"/>
<feBlend mode="normal" in2="effect1_dropShadow_61_556" result="effect2_dropShadow_61_556"/>
<feColorMatrix in="SourceAlpha" type="matrix" values="0 0 0 0 0 0 0 0 0 0 0 0 0 0 0 0 0 0 127 0" result="hardAlpha"/>
<feOffset dx="0.1" dy="-0.1"/>
<feGaussianBlur stdDeviation="0.05"/>
<feComposite in2="hardAlpha" operator="out"/>
<feColorMatrix type="matrix" values="0 0 0 0 0.615686 0 0 0 0 0.560784 0 0 0 0 0.65098 0 0 0 1 0"/>
<feBlend mode="normal" in2="effect2_dropShadow_61_556" result="effect3_dropShadow_61_556"/>
<feBlend mode="normal" in="SourceGraphic" in2="effect3_dropShadow_61_556" result="shape"/>
</filter>
<filter id="filter6_d_61_556" x="273.368" y="46.5034" width="7.44453" height="6.95601" filterUnits="userSpaceOnUse" color-interpolation-filters="sRGB">
<feFlood flood-opacity="0" result="BackgroundImageFix"/>
<feColorMatrix in="SourceAlpha" type="matrix" values="0 0 0 0 0 0 0 0 0 0 0 0 0 0 0 0 0 0 127 0" result="hardAlpha"/>
<feOffset dy="-0.2"/>
<feGaussianBlur stdDeviation="0.2"/>
<feComposite in2="hardAlpha" operator="out"/>
<feColorMatrix type="matrix" values="0 0 0 0 0.847059 0 0 0 0 0.505882 0 0 0 0 0.360784 0 0 0 1 0"/>
<feBlend mode="normal" in2="BackgroundImageFix" result="effect1_dropShadow_61_556"/>
<feBlend mode="normal" in="SourceGraphic" in2="effect1_dropShadow_61_556" result="shape"/>
</filter>
<filter id="filter7_f_61_556" x="279.012" y="41.7402" width="6.93506" height="7.64807" filterUnits="userSpaceOnUse" color-interpolation-filters="sRGB">
<feFlood flood-opacity="0" result="BackgroundImageFix"/>
<feBlend mode="normal" in="SourceGraphic" in2="BackgroundImageFix" result="shape"/>
<feGaussianBlur stdDeviation="0.5" result="effect1_foregroundBlur_61_556"/>
</filter>
<filter id="filter8_d_61_556" x="425.948" y="22.755" width="22.4287" height="22.4408" filterUnits="userSpaceOnUse" color-interpolation-filters="sRGB">
<feFlood flood-opacity="0" result="BackgroundImageFix"/>
<feColorMatrix in="SourceAlpha" type="matrix" values="0 0 0 0 0 0 0 0 0 0 0 0 0 0 0 0 0 0 127 0" result="hardAlpha"/>
<feOffset dx="-0.25" dy="-0.5"/>
<feGaussianBlur stdDeviation="0.75"/>
<feComposite in2="hardAlpha" operator="out"/>
<feColorMatrix type="matrix" values="0 0 0 0 0.745098 0 0 0 0 0.772549 0 0 0 0 0.952941 0 0 0 1 0"/>
<feBlend mode="normal" in2="BackgroundImageFix" result="effect1_dropShadow_61_556"/>
<feBlend mode="normal" in="SourceGraphic" in2="effect1_dropShadow_61_556" result="shape"/>
</filter>
<filter id="filter9_d_61_556" x="423.562" y="40.8886" width="7.44453" height="6.95601" filterUnits="userSpaceOnUse" color-interpolation-filters="sRGB">
<feFlood flood-opacity="0" result="BackgroundImageFix"/>
<feColorMatrix in="SourceAlpha" type="matrix" values="0 0 0 0 0 0 0 0 0 0 0 0 0 0 0 0 0 0 127 0" result="hardAlpha"/>
<feOffset dy="-0.2"/>
<feGaussianBlur stdDeviation="0.2"/>
<feComposite in2="hardAlpha" operator="out"/>
<feColorMatrix type="matrix" values="0 0 0 0 0.847059 0 0 0 0 0.505882 0 0 0 0 0.360784 0 0 0 1 0"/>
<feBlend mode="normal" in2="BackgroundImageFix" result="effect1_dropShadow_61_556"/>
<feBlend mode="normal" in="SourceGraphic" in2="effect1_dropShadow_61_556" result="shape"/>
</filter>
<filter id="filter10_f_61_556" x="429.207" y="36.1255" width="6.93506" height="7.64807" filterUnits="userSpaceOnUse" color-interpolation-filters="sRGB">
<feFlood flood-opacity="0" result="BackgroundImageFix"/>
<feBlend mode="normal" in="SourceGraphic" in2="BackgroundImageFix" result="shape"/>
<feGaussianBlur stdDeviation="0.5" result="effect1_foregroundBlur_61_556"/>
</filter>
<filter id="filter11_d_61_556" x="-21.8296" y="40.3011" width="22.4287" height="22.4408" filterUnits="userSpaceOnUse" color-interpolation-filters="sRGB">
<feFlood flood-opacity="0" result="BackgroundImageFix"/>
<feColorMatrix in="SourceAlpha" type="matrix" values="0 0 0 0 0 0 0 0 0 0 0 0 0 0 0 0 0 0 127 0" result="hardAlpha"/>
<feOffset dx="-0.25" dy="-0.5"/>
<feGaussianBlur stdDeviation="0.75"/>
<feComposite in2="hardAlpha" operator="out"/>
<feColorMatrix type="matrix" values="0 0 0 0 0.745098 0 0 0 0 0.772549 0 0 0 0 0.952941 0 0 0 1 0"/>
<feBlend mode="normal" in2="BackgroundImageFix" result="effect1_dropShadow_61_556"/>
<feBlend mode="normal" in="SourceGraphic" in2="effect1_dropShadow_61_556" result="shape"/>
</filter>
<linearGradient id="paint0_linear_61_556" x1="-401.131" y1="82.6554" x2="659.358" y2="63.0035" gradientUnits="userSpaceOnUse">
<stop stop-color="#FF67C7"/>
<stop offset="1" stop-color="#6720FD"/>
</linearGradient>
<linearGradient id="paint1_linear_61_556" x1="131.665" y1="47.362" x2="127.278" y2="46.6391" gradientUnits="userSpaceOnUse">
<stop stop-color="#EE2452"/>
<stop offset="1" stop-color="#F63E7A"/>
</linearGradient>
<radialGradient id="paint2_radial_61_556" cx="0" cy="0" r="1" gradientUnits="userSpaceOnUse" gradientTransform="translate(126.652 47.147) rotate(-19.9576) scale(7.01993 1.19353)">
<stop offset="0.164" stop-color="#FF8DB0"/>
<stop offset="1" stop-color="#FF8DB0" stop-opacity="0"/>
</radialGradient>
<linearGradient id="paint3_linear_61_556" x1="128.852" y1="49.4894" x2="129.567" y2="48.792" gradientUnits="userSpaceOnUse">
<stop offset="0.491" stop-color="#DD467C"/>
<stop offset="1" stop-color="#DD467C" stop-opacity="0"/>
</linearGradient>
<linearGradient id="paint4_linear_61_556" x1="140.245" y1="51.1905" x2="134.79" y2="55.4709" gradientUnits="userSpaceOnUse">
<stop stop-color="#F83267"/>
<stop offset="1" stop-color="#FF3190"/>
</linearGradient>
<radialGradient id="paint5_radial_61_556" cx="0" cy="0" r="1" gradientUnits="userSpaceOnUse" gradientTransform="translate(137.339 51.656) rotate(86.482) scale(6.70181 5.77799)">
<stop offset="0.757" stop-color="#E76CBE" stop-opacity="0"/>
<stop offset="0.951" stop-color="#E76CBE"/>
</radialGradient>
<radialGradient id="paint6_radial_61_556" cx="0" cy="0" r="1" gradientUnits="userSpaceOnUse" gradientTransform="translate(136.352 55.1928) rotate(-57.346) scale(4.62386 2.03103)">
<stop stop-color="#FF5898"/>
<stop offset="1" stop-color="#FF5898" stop-opacity="0"/>
</radialGradient>
<linearGradient id="paint7_linear_61_556" x1="136.38" y1="39.7856" x2="144.111" y2="47.5716" gradientUnits="userSpaceOnUse">
<stop stop-color="#CCBBC0"/>
<stop offset="1" stop-color="#EAD2EC"/>
</linearGradient>
<radialGradient id="paint8_radial_61_556" cx="0" cy="0" r="1" gradientUnits="userSpaceOnUse" gradientTransform="translate(145.578 51.1072) rotate(-142.447) scale(14.6308 27.5021)">
<stop offset="0.811" stop-color="#E7E5E5" stop-opacity="0"/>
<stop offset="1" stop-color="#E7E5E5"/>
</radialGradient>
<radialGradient id="paint9_radial_61_556" cx="0" cy="0" r="1" gradientUnits="userSpaceOnUse" gradientTransform="translate(132.603 50.873) rotate(-56.929) scale(8.60094 4.04237)">
<stop offset="0.281" stop-color="#B5A3A5"/>
<stop offset="1" stop-color="#B5A3A5" stop-opacity="0"/>
</radialGradient>
<radialGradient id="paint10_radial_61_556" cx="0" cy="0" r="1" gradientUnits="userSpaceOnUse" gradientTransform="translate(130.115 49.8033) rotate(-73.625) scale(7.62484 1.29201)">
<stop offset="0.208" stop-color="#B28F96"/>
<stop offset="1" stop-color="#B28F96" stop-opacity="0"/>
</radialGradient>
<radialGradient id="paint11_radial_61_556" cx="0" cy="0" r="1" gradientUnits="userSpaceOnUse" gradientTransform="translate(148.333 38.4152) rotate(137.284) scale(11.5585 3.58879)">
<stop stop-color="#FAECF1"/>
<stop offset="1" stop-color="#FAECF1" stop-opacity="0"/>
</radialGradient>
<linearGradient id="paint12_linear_61_556" x1="140.148" y1="41.3813" x2="146.043" y2="41.8823" gradientUnits="userSpaceOnUse">
<stop stop-color="#A796A0"/>
<stop offset="1" stop-color="#A5959F"/>
</linearGradient>
<radialGradient id="paint13_radial_61_556" cx="0" cy="0" r="1" gradientUnits="userSpaceOnUse" gradientTransform="translate(143.097 41.8823) rotate(90) scale(2.94721)">
<stop offset="0.587" stop-color="#93859B"/>
<stop offset="1" stop-color="#93859B" stop-opacity="0"/>
</radialGradient>
<radialGradient id="paint14_radial_61_556" cx="0" cy="0" r="1" gradientUnits="userSpaceOnUse" gradientTransform="translate(143.095 43.923) rotate(-90) scale(4.25107 3.90951)">
<stop stop-color="#72CDFF"/>
<stop offset="0.738" stop-color="#66ACFF"/>
<stop offset="1" stop-color="#3B57F4"/>
</radialGradient>
<radialGradient id="paint15_radial_61_556" cx="0" cy="0" r="1" gradientUnits="userSpaceOnUse" gradientTransform="translate(131.735 53.4496) rotate(135) scale(5.09404 4.00403)">
<stop stop-color="#D46213"/>
<stop offset="1" stop-color="#FF9542"/>
</radialGradient>
<radialGradient id="paint16_radial_61_556" cx="0" cy="0" r="1" gradientUnits="userSpaceOnUse" gradientTransform="translate(131.834 57.5931) rotate(-131.186) scale(6.29427 6.63311)">
<stop offset="0.871" stop-color="#FFC484" stop-opacity="0"/>
<stop offset="1" stop-color="#FFC484"/>
</radialGradient>
<linearGradient id="paint17_linear_61_556" x1="129.635" y1="51.4371" x2="134.461" y2="56.1798" gradientUnits="userSpaceOnUse">
<stop stop-color="#452860"/>
<stop offset="1" stop-color="#51509F"/>
</linearGradient>
<radialGradient id="paint18_radial_61_556" cx="0" cy="0" r="1" gradientUnits="userSpaceOnUse" gradientTransform="translate(130.541 50.9984) rotate(77.8285) scale(1.43036 1.26376)">
<stop stop-color="#8E839A"/>
<stop offset="1" stop-color="#8E839A" stop-opacity="0"/>
</radialGradient>
<radialGradient id="paint19_radial_61_556" cx="0" cy="0" r="1" gradientUnits="userSpaceOnUse" gradientTransform="translate(130.871 51.845) rotate(47.9357) scale(5.45009 2.85683)">
<stop offset="0.86" stop-color="#6175B9" stop-opacity="0"/>
<stop offset="1" stop-color="#6175B9"/>
</radialGradient>
<linearGradient id="paint20_linear_61_556" x1="150.146" y1="34.7007" x2="146.921" y2="37.9256" gradientUnits="userSpaceOnUse">
<stop stop-color="#FF3745"/>
<stop offset="1" stop-color="#ED224B"/>
</linearGradient>
<radialGradient id="paint21_radial_61_556" cx="0" cy="0" r="1" gradientUnits="userSpaceOnUse" gradientTransform="translate(149.762 35.992) rotate(135) scale(7.23495 1.7368)">
<stop offset="0.189" stop-color="#FF5971"/>
<stop offset="1" stop-color="#FF5971" stop-opacity="0"/>
</radialGradient>
<linearGradient id="paint22_linear_61_556" x1="147.203" y1="38.1406" x2="147.525" y2="37.8046" gradientUnits="userSpaceOnUse">
<stop stop-color="#D2575E"/>
<stop offset="1" stop-color="#F93251" stop-opacity="0"/>
</linearGradient>
<linearGradient id="paint23_linear_61_556" x1="137.848" y1="47.1488" x2="132.158" y2="52.839" gradientUnits="userSpaceOnUse">
<stop stop-color="#FF2644"/>
<stop offset="1" stop-color="#FF2982"/>
</linearGradient>
<radialGradient id="paint24_radial_61_556" cx="0" cy="0" r="1" gradientUnits="userSpaceOnUse" gradientTransform="translate(130.019 49.2166) rotate(-20.865) scale(6.54279 1.71285)">
<stop stop-color="#FF95AF"/>
<stop offset="1" stop-color="#FF95AF" stop-opacity="0"/>
</radialGradient>
<radialGradient id="paint25_radial_61_556" cx="0" cy="0" r="1" gradientUnits="userSpaceOnUse" gradientTransform="translate(129.284 49.9939) rotate(44.7044) scale(4.04457 1.19473)">
<stop offset="0.382" stop-color="#E14678"/>
<stop offset="1" stop-color="#E14678" stop-opacity="0"/>
</radialGradient>
<radialGradient id="paint26_radial_61_556" cx="0" cy="0" r="1" gradientUnits="userSpaceOnUse" gradientTransform="translate(134.708 48.9692) rotate(84.6743) scale(6.49819 6.92477)">
<stop offset="0.832" stop-color="#E67BC7" stop-opacity="0"/>
<stop offset="1" stop-color="#E67BC7"/>
</radialGradient>
<linearGradient id="paint27_linear_61_556" x1="136.818" y1="48.0647" x2="133.2" y2="51.8485" gradientUnits="userSpaceOnUse">
<stop stop-color="#FF5970"/>
<stop offset="1" stop-color="#FF5794"/>
</linearGradient>
<linearGradient id="paint28_linear_61_556" x1="279.052" y1="42.449" x2="274.666" y2="41.7261" gradientUnits="userSpaceOnUse">
<stop stop-color="#EE2452"/>
<stop offset="1" stop-color="#F63E7A"/>
</linearGradient>
<radialGradient id="paint29_radial_61_556" cx="0" cy="0" r="1" gradientUnits="userSpaceOnUse" gradientTransform="translate(274.04 42.2341) rotate(-19.9576) scale(7.01993 1.19353)">
<stop offset="0.164" stop-color="#FF8DB0"/>
<stop offset="1" stop-color="#FF8DB0" stop-opacity="0"/>
</radialGradient>
<linearGradient id="paint30_linear_61_556" x1="276.24" y1="44.5765" x2="276.955" y2="43.879" gradientUnits="userSpaceOnUse">
<stop offset="0.491" stop-color="#DD467C"/>
<stop offset="1" stop-color="#DD467C" stop-opacity="0"/>
</linearGradient>
<linearGradient id="paint31_linear_61_556" x1="287.633" y1="46.2775" x2="282.178" y2="50.5579" gradientUnits="userSpaceOnUse">
<stop stop-color="#F83267"/>
<stop offset="1" stop-color="#FF3190"/>
</linearGradient>
<radialGradient id="paint32_radial_61_556" cx="0" cy="0" r="1" gradientUnits="userSpaceOnUse" gradientTransform="translate(284.727 46.743) rotate(86.482) scale(6.70181 5.77799)">
<stop offset="0.757" stop-color="#E76CBE" stop-opacity="0"/>
<stop offset="0.951" stop-color="#E76CBE"/>
</radialGradient>
<radialGradient id="paint33_radial_61_556" cx="0" cy="0" r="1" gradientUnits="userSpaceOnUse" gradientTransform="translate(283.739 50.2798) rotate(-57.346) scale(4.62386 2.03103)">
<stop stop-color="#FF5898"/>
<stop offset="1" stop-color="#FF5898" stop-opacity="0"/>
</radialGradient>
<linearGradient id="paint34_linear_61_556" x1="283.768" y1="34.8726" x2="291.499" y2="42.6587" gradientUnits="userSpaceOnUse">
<stop stop-color="#CCBBC0"/>
<stop offset="1" stop-color="#EAD2EC"/>
</linearGradient>
<radialGradient id="paint35_radial_61_556" cx="0" cy="0" r="1" gradientUnits="userSpaceOnUse" gradientTransform="translate(292.965 46.1942) rotate(-142.447) scale(14.6308 27.5021)">
<stop offset="0.811" stop-color="#E7E5E5" stop-opacity="0"/>
<stop offset="1" stop-color="#E7E5E5"/>
</radialGradient>
<radialGradient id="paint36_radial_61_556" cx="0" cy="0" r="1" gradientUnits="userSpaceOnUse" gradientTransform="translate(279.991 45.96) rotate(-56.929) scale(8.60094 4.04237)">
<stop offset="0.281" stop-color="#B5A3A5"/>
<stop offset="1" stop-color="#B5A3A5" stop-opacity="0"/>
</radialGradient>
<radialGradient id="paint37_radial_61_556" cx="0" cy="0" r="1" gradientUnits="userSpaceOnUse" gradientTransform="translate(277.502 44.8904) rotate(-73.625) scale(7.62484 1.29201)">
<stop offset="0.208" stop-color="#B28F96"/>
<stop offset="1" stop-color="#B28F96" stop-opacity="0"/>
</radialGradient>
<radialGradient id="paint38_radial_61_556" cx="0" cy="0" r="1" gradientUnits="userSpaceOnUse" gradientTransform="translate(295.72 33.5022) rotate(137.284) scale(11.5585 3.58879)">
<stop stop-color="#FAECF1"/>
<stop offset="1" stop-color="#FAECF1" stop-opacity="0"/>
</radialGradient>
<linearGradient id="paint39_linear_61_556" x1="287.536" y1="36.4683" x2="293.43" y2="36.9693" gradientUnits="userSpaceOnUse">
<stop stop-color="#A796A0"/>
<stop offset="1" stop-color="#A5959F"/>
</linearGradient>
<radialGradient id="paint40_radial_61_556" cx="0" cy="0" r="1" gradientUnits="userSpaceOnUse" gradientTransform="translate(290.484 36.9693) rotate(90) scale(2.94721)">
<stop offset="0.587" stop-color="#93859B"/>
<stop offset="1" stop-color="#93859B" stop-opacity="0"/>
</radialGradient>
<radialGradient id="paint41_radial_61_556" cx="0" cy="0" r="1" gradientUnits="userSpaceOnUse" gradientTransform="translate(290.483 39.01) rotate(-90) scale(4.25107 3.90951)">
<stop stop-color="#72CDFF"/>
<stop offset="0.738" stop-color="#66ACFF"/>
<stop offset="1" stop-color="#3B57F4"/>
</radialGradient>
<radialGradient id="paint42_radial_61_556" cx="0" cy="0" r="1" gradientUnits="userSpaceOnUse" gradientTransform="translate(279.122 48.5366) rotate(135) scale(5.09404 4.00403)">
<stop stop-color="#D46213"/>
<stop offset="1" stop-color="#FF9542"/>
</radialGradient>
<radialGradient id="paint43_radial_61_556" cx="0" cy="0" r="1" gradientUnits="userSpaceOnUse" gradientTransform="translate(279.221 52.6801) rotate(-131.186) scale(6.29427 6.63311)">
<stop offset="0.871" stop-color="#FFC484" stop-opacity="0"/>
<stop offset="1" stop-color="#FFC484"/>
</radialGradient>
<linearGradient id="paint44_linear_61_556" x1="277.023" y1="46.5241" x2="281.848" y2="51.2668" gradientUnits="userSpaceOnUse">
<stop stop-color="#452860"/>
<stop offset="1" stop-color="#51509F"/>
</linearGradient>
<radialGradient id="paint45_radial_61_556" cx="0" cy="0" r="1" gradientUnits="userSpaceOnUse" gradientTransform="translate(277.928 46.0854) rotate(77.8285) scale(1.43036 1.26376)">
<stop stop-color="#8E839A"/>
<stop offset="1" stop-color="#8E839A" stop-opacity="0"/>
</radialGradient>
<radialGradient id="paint46_radial_61_556" cx="0" cy="0" r="1" gradientUnits="userSpaceOnUse" gradientTransform="translate(278.259 46.932) rotate(47.9357) scale(5.45009 2.85683)">
<stop offset="0.86" stop-color="#6175B9" stop-opacity="0"/>
<stop offset="1" stop-color="#6175B9"/>
</radialGradient>
<linearGradient id="paint47_linear_61_556" x1="297.534" y1="29.7877" x2="294.309" y2="33.0127" gradientUnits="userSpaceOnUse">
<stop stop-color="#FF3745"/>
<stop offset="1" stop-color="#ED224B"/>
</linearGradient>
<radialGradient id="paint48_radial_61_556" cx="0" cy="0" r="1" gradientUnits="userSpaceOnUse" gradientTransform="translate(297.149 31.079) rotate(135) scale(7.23495 1.7368)">
<stop offset="0.189" stop-color="#FF5971"/>
<stop offset="1" stop-color="#FF5971" stop-opacity="0"/>
</radialGradient>
<linearGradient id="paint49_linear_61_556" x1="294.59" y1="33.2276" x2="294.912" y2="32.8916" gradientUnits="userSpaceOnUse">
<stop stop-color="#D2575E"/>
<stop offset="1" stop-color="#F93251" stop-opacity="0"/>
</linearGradient>
<linearGradient id="paint50_linear_61_556" x1="285.236" y1="42.2359" x2="279.546" y2="47.9261" gradientUnits="userSpaceOnUse">
<stop stop-color="#FF2644"/>
<stop offset="1" stop-color="#FF2982"/>
</linearGradient>
<radialGradient id="paint51_radial_61_556" cx="0" cy="0" r="1" gradientUnits="userSpaceOnUse" gradientTransform="translate(277.407 44.3037) rotate(-20.865) scale(6.54279 1.71285)">
<stop stop-color="#FF95AF"/>
<stop offset="1" stop-color="#FF95AF" stop-opacity="0"/>
</radialGradient>
<radialGradient id="paint52_radial_61_556" cx="0" cy="0" r="1" gradientUnits="userSpaceOnUse" gradientTransform="translate(276.672 45.081) rotate(44.7044) scale(4.04457 1.19473)">
<stop offset="0.382" stop-color="#E14678"/>
<stop offset="1" stop-color="#E14678" stop-opacity="0"/>
</radialGradient>
<radialGradient id="paint53_radial_61_556" cx="0" cy="0" r="1" gradientUnits="userSpaceOnUse" gradientTransform="translate(282.095 44.0563) rotate(84.6743) scale(6.49819 6.92477)">
<stop offset="0.832" stop-color="#E67BC7" stop-opacity="0"/>
<stop offset="1" stop-color="#E67BC7"/>
</radialGradient>
<linearGradient id="paint54_linear_61_556" x1="284.206" y1="43.1517" x2="280.587" y2="46.9355" gradientUnits="userSpaceOnUse">
<stop stop-color="#FF5970"/>
<stop offset="1" stop-color="#FF5794"/>
</linearGradient>
<linearGradient id="paint55_linear_61_556" x1="429.247" y1="36.8343" x2="424.861" y2="36.1114" gradientUnits="userSpaceOnUse">
<stop stop-color="#EE2452"/>
<stop offset="1" stop-color="#F63E7A"/>
</linearGradient>
<radialGradient id="paint56_radial_61_556" cx="0" cy="0" r="1" gradientUnits="userSpaceOnUse" gradientTransform="translate(424.235 36.6193) rotate(-19.9576) scale(7.01993 1.19353)">
<stop offset="0.164" stop-color="#FF8DB0"/>
<stop offset="1" stop-color="#FF8DB0" stop-opacity="0"/>
</radialGradient>
<linearGradient id="paint57_linear_61_556" x1="426.434" y1="38.9617" x2="427.149" y2="38.2643" gradientUnits="userSpaceOnUse">
<stop offset="0.491" stop-color="#DD467C"/>
<stop offset="1" stop-color="#DD467C" stop-opacity="0"/>
</linearGradient>
<linearGradient id="paint58_linear_61_556" x1="437.828" y1="40.6628" x2="432.373" y2="44.9432" gradientUnits="userSpaceOnUse">
<stop stop-color="#F83267"/>
<stop offset="1" stop-color="#FF3190"/>
</linearGradient>
<radialGradient id="paint59_radial_61_556" cx="0" cy="0" r="1" gradientUnits="userSpaceOnUse" gradientTransform="translate(434.922 41.1283) rotate(86.482) scale(6.70181 5.77799)">
<stop offset="0.757" stop-color="#E76CBE" stop-opacity="0"/>
<stop offset="0.951" stop-color="#E76CBE"/>
</radialGradient>
<radialGradient id="paint60_radial_61_556" cx="0" cy="0" r="1" gradientUnits="userSpaceOnUse" gradientTransform="translate(433.934 44.665) rotate(-57.346) scale(4.62386 2.03103)">
<stop stop-color="#FF5898"/>
<stop offset="1" stop-color="#FF5898" stop-opacity="0"/>
</radialGradient>
<linearGradient id="paint61_linear_61_556" x1="433.963" y1="29.2578" x2="441.693" y2="37.0439" gradientUnits="userSpaceOnUse">
<stop stop-color="#CCBBC0"/>
<stop offset="1" stop-color="#EAD2EC"/>
</linearGradient>
<radialGradient id="paint62_radial_61_556" cx="0" cy="0" r="1" gradientUnits="userSpaceOnUse" gradientTransform="translate(443.16 40.5795) rotate(-142.447) scale(14.6308 27.5021)">
<stop offset="0.811" stop-color="#E7E5E5" stop-opacity="0"/>
<stop offset="1" stop-color="#E7E5E5"/>
</radialGradient>
<radialGradient id="paint63_radial_61_556" cx="0" cy="0" r="1" gradientUnits="userSpaceOnUse" gradientTransform="translate(430.186 40.3452) rotate(-56.929) scale(8.60094 4.04237)">
<stop offset="0.281" stop-color="#B5A3A5"/>
<stop offset="1" stop-color="#B5A3A5" stop-opacity="0"/>
</radialGradient>
<radialGradient id="paint64_radial_61_556" cx="0" cy="0" r="1" gradientUnits="userSpaceOnUse" gradientTransform="translate(427.697 39.2756) rotate(-73.625) scale(7.62484 1.29201)">
<stop offset="0.208" stop-color="#B28F96"/>
<stop offset="1" stop-color="#B28F96" stop-opacity="0"/>
</radialGradient>
<radialGradient id="paint65_radial_61_556" cx="0" cy="0" r="1" gradientUnits="userSpaceOnUse" gradientTransform="translate(445.915 27.8875) rotate(137.284) scale(11.5585 3.58879)">
<stop stop-color="#FAECF1"/>
<stop offset="1" stop-color="#FAECF1" stop-opacity="0"/>
</radialGradient>
<radialGradient id="paint66_radial_61_556" cx="0" cy="0" r="1" gradientUnits="userSpaceOnUse" gradientTransform="translate(429.317 42.9219) rotate(135) scale(5.09404 4.00403)">
<stop stop-color="#D46213"/>
<stop offset="1" stop-color="#FF9542"/>
</radialGradient>
<radialGradient id="paint67_radial_61_556" cx="0" cy="0" r="1" gradientUnits="userSpaceOnUse" gradientTransform="translate(429.416 47.0654) rotate(-131.186) scale(6.29427 6.63311)">
<stop offset="0.871" stop-color="#FFC484" stop-opacity="0"/>
<stop offset="1" stop-color="#FFC484"/>
</radialGradient>
<linearGradient id="paint68_linear_61_556" x1="427.218" y1="40.9094" x2="432.043" y2="45.6521" gradientUnits="userSpaceOnUse">
<stop stop-color="#452860"/>
<stop offset="1" stop-color="#51509F"/>
</linearGradient>
<radialGradient id="paint69_radial_61_556" cx="0" cy="0" r="1" gradientUnits="userSpaceOnUse" gradientTransform="translate(428.123 40.4707) rotate(77.8285) scale(1.43036 1.26376)">
<stop stop-color="#8E839A"/>
<stop offset="1" stop-color="#8E839A" stop-opacity="0"/>
</radialGradient>
<radialGradient id="paint70_radial_61_556" cx="0" cy="0" r="1" gradientUnits="userSpaceOnUse" gradientTransform="translate(428.454 41.3173) rotate(47.9357) scale(5.45009 2.85683)">
<stop offset="0.86" stop-color="#6175B9" stop-opacity="0"/>
<stop offset="1" stop-color="#6175B9"/>
</radialGradient>
<linearGradient id="paint71_linear_61_556" x1="435.431" y1="36.6211" x2="429.741" y2="42.3113" gradientUnits="userSpaceOnUse">
<stop stop-color="#FF2644"/>
<stop offset="1" stop-color="#FF2982"/>
</linearGradient>
<radialGradient id="paint72_radial_61_556" cx="0" cy="0" r="1" gradientUnits="userSpaceOnUse" gradientTransform="translate(427.602 38.6889) rotate(-20.865) scale(6.54279 1.71285)">
<stop stop-color="#FF95AF"/>
<stop offset="1" stop-color="#FF95AF" stop-opacity="0"/>
</radialGradient>
<radialGradient id="paint73_radial_61_556" cx="0" cy="0" r="1" gradientUnits="userSpaceOnUse" gradientTransform="translate(426.867 39.4662) rotate(44.7044) scale(4.04457 1.19473)">
<stop offset="0.382" stop-color="#E14678"/>
<stop offset="1" stop-color="#E14678" stop-opacity="0"/>
</radialGradient>
<radialGradient id="paint74_radial_61_556" cx="0" cy="0" r="1" gradientUnits="userSpaceOnUse" gradientTransform="translate(432.29 38.4415) rotate(84.6743) scale(6.49819 6.92477)">
<stop offset="0.832" stop-color="#E67BC7" stop-opacity="0"/>
<stop offset="1" stop-color="#E67BC7"/>
</radialGradient>
<linearGradient id="paint75_linear_61_556" x1="-0.0488442" y1="41.7191" x2="-3.27382" y2="44.9441" gradientUnits="userSpaceOnUse">
<stop stop-color="#FF3745"/>
<stop offset="1" stop-color="#ED224B"/>
</linearGradient>
<radialGradient id="paint76_radial_61_556" cx="0" cy="0" r="1" gradientUnits="userSpaceOnUse" gradientTransform="translate(-0.43313 43.0104) rotate(135) scale(7.23495 1.7368)">
<stop offset="0.189" stop-color="#FF5971"/>
<stop offset="1" stop-color="#FF5971" stop-opacity="0"/>
</radialGradient>
<linearGradient id="paint77_linear_61_556" x1="-2.99221" y1="45.159" x2="-2.67024" y2="44.823" gradientUnits="userSpaceOnUse">
<stop stop-color="#D2575E"/>
<stop offset="1" stop-color="#F93251" stop-opacity="0"/>
</linearGradient>
<clipPath id="clip0_61_556">
<rect width="28.0738" height="28.0738" fill="white" transform="translate(124.549 32.1775)"/>
</clipPath>
<clipPath id="clip1_61_556">
<rect width="28.0738" height="28.0738" fill="white" transform="translate(271.937 27.2645)"/>
</clipPath>
<clipPath id="clip2_61_556">
<rect width="28.0738" height="28.0738" fill="white" transform="translate(422.131 21.6498)"/>
</clipPath>
<clipPath id="clip3_61_556">
<rect width="28.0738" height="28.0738" fill="white" transform="translate(-25.646 39.1959)"/>
</clipPath>
</defs>
</svg>
