<svg width="947" height="423" viewBox="0 0 947 423" fill="none" xmlns="http://www.w3.org/2000/svg">
<path d="M483.977 218.489L517.325 14.7395H595.627" stroke="white" stroke-width="0.95" stroke-miterlimit="10"/>
<path d="M600.059 18.9715C602.398 18.9715 604.294 17.0768 604.294 14.7394C604.294 12.4021 602.398 10.5073 600.059 10.5073C597.72 10.5073 595.824 12.4021 595.824 14.7394C595.824 17.0768 597.72 18.9715 600.059 18.9715Z" stroke="white" stroke-width="0.95" stroke-miterlimit="10"/>
<path d="M544.439 64.6121C534.488 60.6974 512.656 55.378 501.5 53.5C352 45 315 176.5 309.5 183L483.976 218.502L559.538 71.3967C554.602 68.8575 549.56 66.6224 544.439 64.6121Z" fill="url(#paint0_linear_111_130)"/>
<g style="mix-blend-mode:overlay" opacity="0.2">
<path d="M454.994 67.0985L483.975 218.489L554.098 81.9638C523.384 65.8685 488.355 60.9223 454.98 67.0985H454.994Z" fill="#FAFAFA"/>
</g>
<path d="M619.986 14L624.424 4.2H625.81L630.262 14H628.792L624.83 4.984H625.39L621.428 14H619.986ZM621.876 11.55L622.254 10.43H627.77L628.176 11.55H621.876ZM631.528 14V6.58H632.872V14H631.528ZM632.2 5.152C631.939 5.152 631.719 5.068 631.542 4.9C631.374 4.732 631.29 4.52667 631.29 4.284C631.29 4.032 631.374 3.822 631.542 3.654C631.719 3.486 631.939 3.402 632.2 3.402C632.461 3.402 632.676 3.486 632.844 3.654C633.021 3.81267 633.11 4.01333 633.11 4.256C633.11 4.508 633.026 4.72267 632.858 4.9C632.69 5.068 632.471 5.152 632.2 5.152ZM635.438 14V6.58H636.726V8.596L636.6 8.092C636.805 7.57867 637.151 7.18667 637.636 6.916C638.121 6.64533 638.719 6.51 639.428 6.51V7.812C639.372 7.80267 639.316 7.798 639.26 7.798C639.213 7.798 639.167 7.798 639.12 7.798C638.401 7.798 637.832 8.01267 637.412 8.442C636.992 8.87133 636.782 9.492 636.782 10.304V14H635.438ZM644.082 14.084C643.364 14.084 642.72 13.9253 642.15 13.608C641.59 13.2907 641.147 12.8473 640.82 12.278C640.494 11.7087 640.33 11.046 640.33 10.29C640.33 9.534 640.494 8.876 640.82 8.316C641.147 7.74667 641.59 7.30333 642.15 6.986C642.72 6.66867 643.364 6.51 644.082 6.51C644.708 6.51 645.272 6.65 645.776 6.93C646.28 7.21 646.682 7.63 646.98 8.19C647.288 8.75 647.442 9.45 647.442 10.29C647.442 11.13 647.293 11.83 646.994 12.39C646.705 12.95 646.308 13.3747 645.804 13.664C645.3 13.944 644.726 14.084 644.082 14.084ZM644.194 12.908C644.661 12.908 645.081 12.8007 645.454 12.586C645.837 12.3713 646.136 12.068 646.35 11.676C646.574 11.2747 646.686 10.8127 646.686 10.29C646.686 9.758 646.574 9.30067 646.35 8.918C646.136 8.526 645.837 8.22267 645.454 8.008C645.081 7.79333 644.661 7.686 644.194 7.686C643.718 7.686 643.294 7.79333 642.92 8.008C642.547 8.22267 642.248 8.526 642.024 8.918C641.8 9.30067 641.688 9.758 641.688 10.29C641.688 10.8127 641.8 11.2747 642.024 11.676C642.248 12.068 642.547 12.3713 642.92 12.586C643.294 12.8007 643.718 12.908 644.194 12.908ZM646.728 14V11.998L646.812 10.276L646.672 8.554V3.612H648.016V14H646.728ZM650.559 14V6.58H651.847V8.596L651.721 8.092C651.926 7.57867 652.272 7.18667 652.757 6.916C653.242 6.64533 653.84 6.51 654.549 6.51V7.812C654.493 7.80267 654.437 7.798 654.381 7.798C654.334 7.798 654.288 7.798 654.241 7.798C653.522 7.798 652.953 8.01267 652.533 8.442C652.113 8.87133 651.903 9.492 651.903 10.304V14H650.559ZM659.315 14.084C658.569 14.084 657.906 13.9207 657.327 13.594C656.749 13.2673 656.291 12.8193 655.955 12.25C655.619 11.6713 655.451 11.018 655.451 10.29C655.451 9.55267 655.619 8.89933 655.955 8.33C656.291 7.76067 656.749 7.31733 657.327 7C657.906 6.67333 658.569 6.51 659.315 6.51C660.053 6.51 660.711 6.67333 661.289 7C661.877 7.31733 662.335 7.76067 662.661 8.33C662.997 8.89 663.165 9.54333 663.165 10.29C663.165 11.0273 662.997 11.6807 662.661 12.25C662.335 12.8193 661.877 13.2673 661.289 13.594C660.711 13.9207 660.053 14.084 659.315 14.084ZM659.315 12.908C659.791 12.908 660.216 12.8007 660.589 12.586C660.972 12.3713 661.271 12.068 661.485 11.676C661.7 11.2747 661.807 10.8127 661.807 10.29C661.807 9.758 661.7 9.30067 661.485 8.918C661.271 8.526 660.972 8.22267 660.589 8.008C660.216 7.79333 659.791 7.686 659.315 7.686C658.839 7.686 658.415 7.79333 658.041 8.008C657.668 8.22267 657.369 8.526 657.145 8.918C656.921 9.30067 656.809 9.758 656.809 10.29C656.809 10.8127 656.921 11.2747 657.145 11.676C657.369 12.068 657.668 12.3713 658.041 12.586C658.415 12.8007 658.839 12.908 659.315 12.908ZM668.958 14.084C668.342 14.084 667.777 13.944 667.264 13.664C666.76 13.3747 666.354 12.95 666.046 12.39C665.747 11.83 665.598 11.13 665.598 10.29C665.598 9.45 665.743 8.75 666.032 8.19C666.331 7.63 666.732 7.21 667.236 6.93C667.749 6.65 668.323 6.51 668.958 6.51C669.686 6.51 670.33 6.66867 670.89 6.986C671.45 7.30333 671.893 7.74667 672.22 8.316C672.547 8.876 672.71 9.534 672.71 10.29C672.71 11.046 672.547 11.7087 672.22 12.278C671.893 12.8473 671.45 13.2907 670.89 13.608C670.33 13.9253 669.686 14.084 668.958 14.084ZM665.024 16.716V6.58H666.312V8.582L666.228 10.304L666.368 12.026V16.716H665.024ZM668.846 12.908C669.322 12.908 669.747 12.8007 670.12 12.586C670.503 12.3713 670.801 12.068 671.016 11.676C671.24 11.2747 671.352 10.8127 671.352 10.29C671.352 9.758 671.24 9.30067 671.016 8.918C670.801 8.526 670.503 8.22267 670.12 8.008C669.747 7.79333 669.322 7.686 668.846 7.686C668.379 7.686 667.955 7.79333 667.572 8.008C667.199 8.22267 666.9 8.526 666.676 8.918C666.461 9.30067 666.354 9.758 666.354 10.29C666.354 10.8127 666.461 11.2747 666.676 11.676C666.9 12.068 667.199 12.3713 667.572 12.586C667.955 12.8007 668.379 12.908 668.846 12.908ZM680.875 14.084C680.128 14.084 679.549 13.8833 679.139 13.482C678.728 13.0807 678.523 12.5067 678.523 11.76V4.956H679.867V11.704C679.867 12.1053 679.965 12.4133 680.161 12.628C680.366 12.8427 680.655 12.95 681.029 12.95C681.449 12.95 681.799 12.8333 682.079 12.6L682.499 13.566C682.293 13.7433 682.046 13.874 681.757 13.958C681.477 14.042 681.183 14.084 680.875 14.084ZM677.263 7.686V6.58H681.995V7.686H677.263ZM687.056 14.084C686.309 14.084 685.646 13.9207 685.068 13.594C684.489 13.2673 684.032 12.8193 683.696 12.25C683.36 11.6713 683.192 11.018 683.192 10.29C683.192 9.55267 683.36 8.89933 683.696 8.33C684.032 7.76067 684.489 7.31733 685.068 7C685.646 6.67333 686.309 6.51 687.056 6.51C687.793 6.51 688.451 6.67333 689.03 7C689.618 7.31733 690.075 7.76067 690.402 8.33C690.738 8.89 690.906 9.54333 690.906 10.29C690.906 11.0273 690.738 11.6807 690.402 12.25C690.075 12.8193 689.618 13.2673 689.03 13.594C688.451 13.9207 687.793 14.084 687.056 14.084ZM687.056 12.908C687.532 12.908 687.956 12.8007 688.33 12.586C688.712 12.3713 689.011 12.068 689.226 11.676C689.44 11.2747 689.548 10.8127 689.548 10.29C689.548 9.758 689.44 9.30067 689.226 8.918C689.011 8.526 688.712 8.22267 688.33 8.008C687.956 7.79333 687.532 7.686 687.056 7.686C686.58 7.686 686.155 7.79333 685.782 8.008C685.408 8.22267 685.11 8.526 684.886 8.918C684.662 9.30067 684.55 9.758 684.55 10.29C684.55 10.8127 684.662 11.2747 684.886 11.676C685.11 12.068 685.408 12.3713 685.782 12.586C686.155 12.8007 686.58 12.908 687.056 12.908ZM696.72 14V4.2H700.542C701.401 4.2 702.133 4.33533 702.74 4.606C703.347 4.87667 703.813 5.26867 704.14 5.782C704.467 6.29533 704.63 6.90667 704.63 7.616C704.63 8.32533 704.467 8.93667 704.14 9.45C703.813 9.954 703.347 10.346 702.74 10.626C702.133 10.8967 701.401 11.032 700.542 11.032H697.49L698.12 10.374V14H696.72ZM698.12 10.514L697.49 9.814H700.5C701.396 9.814 702.073 9.62267 702.53 9.24C702.997 8.85733 703.23 8.316 703.23 7.616C703.23 6.916 702.997 6.37467 702.53 5.992C702.073 5.60933 701.396 5.418 700.5 5.418H697.49L698.12 4.718V10.514ZM709.767 14.084C708.974 14.084 708.274 13.9207 707.667 13.594C707.07 13.2673 706.603 12.8193 706.267 12.25C705.941 11.6807 705.777 11.0273 705.777 10.29C705.777 9.55267 705.936 8.89933 706.253 8.33C706.58 7.76067 707.023 7.31733 707.583 7C708.153 6.67333 708.792 6.51 709.501 6.51C710.22 6.51 710.855 6.66867 711.405 6.986C711.956 7.30333 712.385 7.75133 712.693 8.33C713.011 8.89933 713.169 9.56667 713.169 10.332C713.169 10.388 713.165 10.4533 713.155 10.528C713.155 10.6027 713.151 10.6727 713.141 10.738H706.827V9.772H712.441L711.895 10.108C711.905 9.632 711.807 9.20733 711.601 8.834C711.396 8.46067 711.111 8.17133 710.747 7.966C710.393 7.75133 709.977 7.644 709.501 7.644C709.035 7.644 708.619 7.75133 708.255 7.966C707.891 8.17133 707.607 8.46533 707.401 8.848C707.196 9.22133 707.093 9.65067 707.093 10.136V10.36C707.093 10.8547 707.205 11.298 707.429 11.69C707.663 12.0727 707.985 12.3713 708.395 12.586C708.806 12.8007 709.277 12.908 709.809 12.908C710.248 12.908 710.645 12.8333 710.999 12.684C711.363 12.5347 711.681 12.3107 711.951 12.012L712.693 12.88C712.357 13.272 711.937 13.5707 711.433 13.776C710.939 13.9813 710.383 14.084 709.767 14.084ZM718.97 14.084C718.354 14.084 717.789 13.944 717.276 13.664C716.772 13.3747 716.366 12.95 716.058 12.39C715.759 11.83 715.61 11.13 715.61 10.29C715.61 9.45 715.754 8.75 716.044 8.19C716.342 7.63 716.744 7.21 717.248 6.93C717.761 6.65 718.335 6.51 718.97 6.51C719.698 6.51 720.342 6.66867 720.902 6.986C721.462 7.30333 721.905 7.74667 722.232 8.316C722.558 8.876 722.722 9.534 722.722 10.29C722.722 11.046 722.558 11.7087 722.232 12.278C721.905 12.8473 721.462 13.2907 720.902 13.608C720.342 13.9253 719.698 14.084 718.97 14.084ZM715.036 16.716V6.58H716.324V8.582L716.24 10.304L716.38 12.026V16.716H715.036ZM718.858 12.908C719.334 12.908 719.758 12.8007 720.132 12.586C720.514 12.3713 720.813 12.068 721.028 11.676C721.252 11.2747 721.364 10.8127 721.364 10.29C721.364 9.758 721.252 9.30067 721.028 8.918C720.813 8.526 720.514 8.22267 720.132 8.008C719.758 7.79333 719.334 7.686 718.858 7.686C718.391 7.686 717.966 7.79333 717.584 8.008C717.21 8.22267 716.912 8.526 716.688 8.918C716.473 9.30067 716.366 9.758 716.366 10.29C716.366 10.8127 716.473 11.2747 716.688 11.676C716.912 12.068 717.21 12.3713 717.584 12.586C717.966 12.8007 718.391 12.908 718.858 12.908ZM727.883 14.084C727.089 14.084 726.389 13.9207 725.783 13.594C725.185 13.2673 724.719 12.8193 724.383 12.25C724.056 11.6807 723.893 11.0273 723.893 10.29C723.893 9.55267 724.051 8.89933 724.369 8.33C724.695 7.76067 725.139 7.31733 725.699 7C726.268 6.67333 726.907 6.51 727.617 6.51C728.335 6.51 728.97 6.66867 729.521 6.986C730.071 7.30333 730.501 7.75133 730.809 8.33C731.126 8.89933 731.285 9.56667 731.285 10.332C731.285 10.388 731.28 10.4533 731.271 10.528C731.271 10.6027 731.266 10.6727 731.257 10.738H724.943V9.772H730.557L730.011 10.108C730.02 9.632 729.922 9.20733 729.717 8.834C729.511 8.46067 729.227 8.17133 728.863 7.966C728.508 7.75133 728.093 7.644 727.617 7.644C727.15 7.644 726.735 7.75133 726.371 7.966C726.007 8.17133 725.722 8.46533 725.517 8.848C725.311 9.22133 725.209 9.65067 725.209 10.136V10.36C725.209 10.8547 725.321 11.298 725.545 11.69C725.778 12.0727 726.1 12.3713 726.511 12.586C726.921 12.8007 727.393 12.908 727.925 12.908C728.363 12.908 728.76 12.8333 729.115 12.684C729.479 12.5347 729.796 12.3107 730.067 12.012L730.809 12.88C730.473 13.272 730.053 13.5707 729.549 13.776C729.054 13.9813 728.499 14.084 727.883 14.084ZM741.517 14V12.432L741.447 12.138V9.464C741.447 8.89467 741.279 8.456 740.943 8.148C740.616 7.83067 740.121 7.672 739.459 7.672C739.02 7.672 738.591 7.74667 738.171 7.896C737.751 8.036 737.396 8.22733 737.107 8.47L736.547 7.462C736.929 7.154 737.387 6.92067 737.919 6.762C738.46 6.594 739.025 6.51 739.613 6.51C740.63 6.51 741.414 6.75733 741.965 7.252C742.515 7.74667 742.791 8.50267 742.791 9.52V14H741.517ZM739.081 14.084C738.53 14.084 738.045 13.9907 737.625 13.804C737.214 13.6173 736.897 13.3607 736.673 13.034C736.449 12.698 736.337 12.32 736.337 11.9C736.337 11.4987 736.43 11.1347 736.617 10.808C736.813 10.4813 737.125 10.22 737.555 10.024C737.993 9.828 738.581 9.73 739.319 9.73H741.671V10.696H739.375C738.703 10.696 738.25 10.808 738.017 11.032C737.783 11.256 737.667 11.5267 737.667 11.844C737.667 12.208 737.811 12.502 738.101 12.726C738.39 12.9407 738.791 13.048 739.305 13.048C739.809 13.048 740.247 12.936 740.621 12.712C741.003 12.488 741.279 12.1613 741.447 11.732L741.713 12.656C741.535 13.0947 741.223 13.4447 740.775 13.706C740.327 13.958 739.762 14.084 739.081 14.084ZM749.24 6.51C749.847 6.51 750.379 6.62667 750.836 6.86C751.303 7.09333 751.667 7.448 751.928 7.924C752.189 8.4 752.32 9.002 752.32 9.73V14H750.976V9.884C750.976 9.16533 750.799 8.624 750.444 8.26C750.099 7.896 749.609 7.714 748.974 7.714C748.498 7.714 748.083 7.80733 747.728 7.994C747.373 8.18067 747.098 8.456 746.902 8.82C746.715 9.184 746.622 9.63667 746.622 10.178V14H745.278V6.58H746.566V8.582L746.356 8.05C746.599 7.56467 746.972 7.18667 747.476 6.916C747.98 6.64533 748.568 6.51 749.24 6.51ZM757.873 14.084C757.155 14.084 756.511 13.9253 755.941 13.608C755.381 13.2907 754.938 12.8473 754.611 12.278C754.285 11.7087 754.121 11.046 754.121 10.29C754.121 9.534 754.285 8.876 754.611 8.316C754.938 7.74667 755.381 7.30333 755.941 6.986C756.511 6.66867 757.155 6.51 757.873 6.51C758.499 6.51 759.063 6.65 759.567 6.93C760.071 7.21 760.473 7.63 760.771 8.19C761.079 8.75 761.233 9.45 761.233 10.29C761.233 11.13 761.084 11.83 760.785 12.39C760.496 12.95 760.099 13.3747 759.595 13.664C759.091 13.944 758.517 14.084 757.873 14.084ZM757.985 12.908C758.452 12.908 758.872 12.8007 759.245 12.586C759.628 12.3713 759.927 12.068 760.141 11.676C760.365 11.2747 760.477 10.8127 760.477 10.29C760.477 9.758 760.365 9.30067 760.141 8.918C759.927 8.526 759.628 8.22267 759.245 8.008C758.872 7.79333 758.452 7.686 757.985 7.686C757.509 7.686 757.085 7.79333 756.711 8.008C756.338 8.22267 756.039 8.526 755.815 8.918C755.591 9.30067 755.479 9.758 755.479 10.29C755.479 10.8127 755.591 11.2747 755.815 11.676C756.039 12.068 756.338 12.3713 756.711 12.586C757.085 12.8007 757.509 12.908 757.985 12.908ZM760.519 14V11.998L760.603 10.276L760.463 8.554V3.612H761.807V14H760.519ZM623.724 31L620.448 21.2H621.89L624.9 30.244H624.172L627.294 21.2H628.582L631.634 30.244H630.934L633.986 21.2H635.316L632.04 31H630.57L627.714 22.614H628.092L625.222 31H623.724ZM639.45 31.084C638.703 31.084 638.041 30.9207 637.462 30.594C636.883 30.2673 636.426 29.8193 636.09 29.25C635.754 28.6713 635.586 28.018 635.586 27.29C635.586 26.5527 635.754 25.8993 636.09 25.33C636.426 24.7607 636.883 24.3173 637.462 24C638.041 23.6733 638.703 23.51 639.45 23.51C640.187 23.51 640.845 23.6733 641.424 24C642.012 24.3173 642.469 24.7607 642.796 25.33C643.132 25.89 643.3 26.5433 643.3 27.29C643.3 28.0273 643.132 28.6807 642.796 29.25C642.469 29.8193 642.012 30.2673 641.424 30.594C640.845 30.9207 640.187 31.084 639.45 31.084ZM639.45 29.908C639.926 29.908 640.351 29.8007 640.724 29.586C641.107 29.3713 641.405 29.068 641.62 28.676C641.835 28.2747 641.942 27.8127 641.942 27.29C641.942 26.758 641.835 26.3007 641.62 25.918C641.405 25.526 641.107 25.2227 640.724 25.008C640.351 24.7933 639.926 24.686 639.45 24.686C638.974 24.686 638.549 24.7933 638.176 25.008C637.803 25.2227 637.504 25.526 637.28 25.918C637.056 26.3007 636.944 26.758 636.944 27.29C636.944 27.8127 637.056 28.2747 637.28 28.676C637.504 29.068 637.803 29.3713 638.176 29.586C638.549 29.8007 638.974 29.908 639.45 29.908ZM644.207 33.8C643.899 33.8 643.605 33.7627 643.325 33.688C643.035 33.6133 642.793 33.5013 642.597 33.352L643.031 32.316C643.311 32.5493 643.675 32.666 644.123 32.666C644.477 32.666 644.748 32.554 644.935 32.33C645.131 32.1153 645.229 31.7933 645.229 31.364V23.58H646.573V31.336C646.573 32.092 646.367 32.6893 645.957 33.128C645.555 33.576 644.972 33.8 644.207 33.8ZM645.901 22.152C645.639 22.152 645.42 22.068 645.243 21.9C645.075 21.732 644.991 21.5267 644.991 21.284C644.991 21.032 645.075 20.822 645.243 20.654C645.42 20.486 645.639 20.402 645.901 20.402C646.162 20.402 646.377 20.486 646.545 20.654C646.722 20.8127 646.811 21.0133 646.811 21.256C646.811 21.508 646.727 21.7227 646.559 21.9C646.391 22.068 646.171 22.152 645.901 22.152ZM653.743 31V29.432L653.673 29.138V26.464C653.673 25.8947 653.505 25.456 653.169 25.148C652.843 24.8307 652.348 24.672 651.685 24.672C651.247 24.672 650.817 24.7467 650.397 24.896C649.977 25.036 649.623 25.2273 649.333 25.47L648.773 24.462C649.156 24.154 649.613 23.9207 650.145 23.762C650.687 23.594 651.251 23.51 651.839 23.51C652.857 23.51 653.641 23.7573 654.191 24.252C654.742 24.7467 655.017 25.5027 655.017 26.52V31H653.743ZM651.307 31.084C650.757 31.084 650.271 30.9907 649.851 30.804C649.441 30.6173 649.123 30.3607 648.899 30.034C648.675 29.698 648.563 29.32 648.563 28.9C648.563 28.4987 648.657 28.1347 648.843 27.808C649.039 27.4813 649.352 27.22 649.781 27.024C650.22 26.828 650.808 26.73 651.545 26.73H653.897V27.696H651.601C650.929 27.696 650.477 27.808 650.243 28.032C650.01 28.256 649.893 28.5267 649.893 28.844C649.893 29.208 650.038 29.502 650.327 29.726C650.617 29.9407 651.018 30.048 651.531 30.048C652.035 30.048 652.474 29.936 652.847 29.712C653.23 29.488 653.505 29.1613 653.673 28.732L653.939 29.656C653.762 30.0947 653.449 30.4447 653.001 30.706C652.553 30.958 651.989 31.084 651.307 31.084ZM658.596 29.208L658.624 27.486L662.894 23.58H664.518L661.242 26.8L660.514 27.416L658.596 29.208ZM657.504 31V20.612H658.848V31H657.504ZM663.174 31L660.262 27.388L661.13 26.31L664.826 31H663.174ZM674.469 31.112C673.723 31.112 673.032 30.9907 672.397 30.748C671.772 30.496 671.226 30.146 670.759 29.698C670.302 29.2407 669.943 28.7087 669.681 28.102C669.42 27.4953 669.289 26.828 669.289 26.1C669.289 25.372 669.42 24.7047 669.681 24.098C669.943 23.4913 670.307 22.964 670.773 22.516C671.24 22.0587 671.786 21.7087 672.411 21.466C673.046 21.214 673.737 21.088 674.483 21.088C675.239 21.088 675.935 21.2187 676.569 21.48C677.213 21.732 677.759 22.11 678.207 22.614L677.297 23.496C676.924 23.104 676.504 22.8147 676.037 22.628C675.571 22.432 675.071 22.334 674.539 22.334C673.989 22.334 673.475 22.4273 672.999 22.614C672.533 22.8007 672.127 23.062 671.781 23.398C671.436 23.734 671.165 24.1353 670.969 24.602C670.783 25.0593 670.689 25.5587 670.689 26.1C670.689 26.6413 670.783 27.1453 670.969 27.612C671.165 28.0693 671.436 28.466 671.781 28.802C672.127 29.138 672.533 29.3993 672.999 29.586C673.475 29.7727 673.989 29.866 674.539 29.866C675.071 29.866 675.571 29.7727 676.037 29.586C676.504 29.39 676.924 29.0913 677.297 28.69L678.207 29.572C677.759 30.076 677.213 30.4587 676.569 30.72C675.935 30.9813 675.235 31.112 674.469 31.112ZM682.872 31.084C682.125 31.084 681.463 30.9207 680.884 30.594C680.305 30.2673 679.848 29.8193 679.512 29.25C679.176 28.6713 679.008 28.018 679.008 27.29C679.008 26.5527 679.176 25.8993 679.512 25.33C679.848 24.7607 680.305 24.3173 680.884 24C681.463 23.6733 682.125 23.51 682.872 23.51C683.609 23.51 684.267 23.6733 684.846 24C685.434 24.3173 685.891 24.7607 686.218 25.33C686.554 25.89 686.722 26.5433 686.722 27.29C686.722 28.0273 686.554 28.6807 686.218 29.25C685.891 29.8193 685.434 30.2673 684.846 30.594C684.267 30.9207 683.609 31.084 682.872 31.084ZM682.872 29.908C683.348 29.908 683.773 29.8007 684.146 29.586C684.529 29.3713 684.827 29.068 685.042 28.676C685.257 28.2747 685.364 27.8127 685.364 27.29C685.364 26.758 685.257 26.3007 685.042 25.918C684.827 25.526 684.529 25.2227 684.146 25.008C683.773 24.7933 683.348 24.686 682.872 24.686C682.396 24.686 681.971 24.7933 681.598 25.008C681.225 25.2227 680.926 25.526 680.702 25.918C680.478 26.3007 680.366 26.758 680.366 27.29C680.366 27.8127 680.478 28.2747 680.702 28.676C680.926 29.068 681.225 29.3713 681.598 29.586C681.971 29.8007 682.396 29.908 682.872 29.908ZM697.863 23.51C698.46 23.51 698.987 23.6267 699.445 23.86C699.902 24.0933 700.257 24.448 700.509 24.924C700.77 25.4 700.901 26.002 700.901 26.73V31H699.557V26.884C699.557 26.1653 699.389 25.624 699.053 25.26C698.717 24.896 698.245 24.714 697.639 24.714C697.191 24.714 696.799 24.8073 696.463 24.994C696.127 25.1807 695.865 25.456 695.679 25.82C695.501 26.184 695.413 26.6367 695.413 27.178V31H694.069V26.884C694.069 26.1653 693.901 25.624 693.565 25.26C693.238 24.896 692.767 24.714 692.151 24.714C691.712 24.714 691.325 24.8073 690.989 24.994C690.653 25.1807 690.391 25.456 690.205 25.82C690.018 26.184 689.925 26.6367 689.925 27.178V31H688.581V23.58H689.869V25.554L689.659 25.05C689.892 24.5647 690.251 24.1867 690.737 23.916C691.222 23.6453 691.787 23.51 692.431 23.51C693.14 23.51 693.751 23.6873 694.265 24.042C694.778 24.3873 695.114 24.9147 695.273 25.624L694.727 25.4C694.951 24.8307 695.343 24.3733 695.903 24.028C696.463 23.6827 697.116 23.51 697.863 23.51ZM712.656 23.51C713.253 23.51 713.78 23.6267 714.238 23.86C714.695 24.0933 715.05 24.448 715.302 24.924C715.563 25.4 715.694 26.002 715.694 26.73V31H714.35V26.884C714.35 26.1653 714.182 25.624 713.846 25.26C713.51 24.896 713.038 24.714 712.432 24.714C711.984 24.714 711.592 24.8073 711.256 24.994C710.92 25.1807 710.658 25.456 710.472 25.82C710.294 26.184 710.206 26.6367 710.206 27.178V31H708.862V26.884C708.862 26.1653 708.694 25.624 708.358 25.26C708.031 24.896 707.56 24.714 706.944 24.714C706.505 24.714 706.118 24.8073 705.782 24.994C705.446 25.1807 705.184 25.456 704.998 25.82C704.811 26.184 704.718 26.6367 704.718 27.178V31H703.374V23.58H704.662V25.554L704.452 25.05C704.685 24.5647 705.044 24.1867 705.53 23.916C706.015 23.6453 706.58 23.51 707.224 23.51C707.933 23.51 708.544 23.6873 709.058 24.042C709.571 24.3873 709.907 24.9147 710.066 25.624L709.52 25.4C709.744 24.8307 710.136 24.3733 710.696 24.028C711.256 23.6827 711.909 23.51 712.656 23.51ZM721.289 31.084C720.654 31.084 720.094 30.9673 719.609 30.734C719.133 30.5007 718.759 30.146 718.489 29.67C718.227 29.1847 718.097 28.578 718.097 27.85V23.58H719.441V27.696C719.441 28.424 719.613 28.97 719.959 29.334C720.313 29.698 720.808 29.88 721.443 29.88C721.909 29.88 722.315 29.7867 722.661 29.6C723.006 29.404 723.272 29.124 723.459 28.76C723.645 28.3867 723.739 27.9387 723.739 27.416V23.58H725.083V31H723.809V28.998L724.019 29.53C723.776 30.0247 723.412 30.4073 722.927 30.678C722.441 30.9487 721.895 31.084 721.289 31.084ZM731.603 23.51C732.21 23.51 732.742 23.6267 733.199 23.86C733.666 24.0933 734.03 24.448 734.291 24.924C734.553 25.4 734.683 26.002 734.683 26.73V31H733.339V26.884C733.339 26.1653 733.162 25.624 732.807 25.26C732.462 24.896 731.972 24.714 731.337 24.714C730.861 24.714 730.446 24.8073 730.091 24.994C729.737 25.1807 729.461 25.456 729.265 25.82C729.079 26.184 728.985 26.6367 728.985 27.178V31H727.641V23.58H728.929V25.582L728.719 25.05C728.962 24.5647 729.335 24.1867 729.839 23.916C730.343 23.6453 730.931 23.51 731.603 23.51ZM737.17 31V23.58H738.514V31H737.17ZM737.842 22.152C737.581 22.152 737.362 22.068 737.184 21.9C737.016 21.732 736.932 21.5267 736.932 21.284C736.932 21.032 737.016 20.822 737.184 20.654C737.362 20.486 737.581 20.402 737.842 20.402C738.104 20.402 738.318 20.486 738.486 20.654C738.664 20.8127 738.752 21.0133 738.752 21.256C738.752 21.508 738.668 21.7227 738.5 21.9C738.332 22.068 738.113 22.152 737.842 22.152ZM743.629 31.084C742.882 31.084 742.303 30.8833 741.893 30.482C741.482 30.0807 741.277 29.5067 741.277 28.76V21.956H742.621V28.704C742.621 29.1053 742.719 29.4133 742.915 29.628C743.12 29.8427 743.409 29.95 743.783 29.95C744.203 29.95 744.553 29.8333 744.833 29.6L745.253 30.566C745.047 30.7433 744.8 30.874 744.511 30.958C744.231 31.042 743.937 31.084 743.629 31.084ZM740.017 24.686V23.58H744.749V24.686H740.017ZM747.063 33.8C746.708 33.8 746.363 33.7393 746.027 33.618C745.691 33.506 745.401 33.338 745.159 33.114L745.733 32.106C745.919 32.2833 746.125 32.4187 746.349 32.512C746.573 32.6053 746.811 32.652 747.063 32.652C747.389 32.652 747.66 32.568 747.875 32.4C748.089 32.232 748.29 31.9333 748.477 31.504L748.939 30.482L749.079 30.314L751.991 23.58H753.307L749.709 31.742C749.494 32.2647 749.251 32.6753 748.981 32.974C748.719 33.2727 748.43 33.4827 748.113 33.604C747.795 33.7347 747.445 33.8 747.063 33.8ZM748.827 31.238L745.439 23.58H746.839L749.723 30.188L748.827 31.238Z" fill="white"/>
<path d="M776.568 26.2006C775.537 26.2006 774.62 26.0239 773.818 25.6705C773.02 25.3172 772.39 24.8253 771.927 24.195C771.464 23.5647 771.218 22.8365 771.189 22.0104H773.882C773.906 22.4067 774.037 22.7529 774.276 23.049C774.515 23.3403 774.832 23.5671 775.229 23.7294C775.625 23.8918 776.069 23.973 776.561 23.973C777.086 23.973 777.552 23.8822 777.958 23.7008C778.364 23.5146 778.681 23.2567 778.91 22.9272C779.14 22.5977 779.252 22.2181 779.247 21.7884C779.252 21.3443 779.137 20.9527 778.903 20.6137C778.669 20.2747 778.33 20.0096 777.886 19.8186C777.447 19.6276 776.917 19.5321 776.296 19.5321H775V17.4836H776.296C776.807 17.4836 777.253 17.3953 777.635 17.2186C778.022 17.0419 778.325 16.7936 778.545 16.4737C778.765 16.149 778.872 15.7741 778.867 15.3492C778.872 14.9337 778.779 14.5732 778.588 14.2676C778.402 13.9572 778.137 13.7161 777.793 13.5442C777.454 13.3723 777.055 13.2863 776.597 13.2863C776.148 13.2863 775.733 13.3675 775.35 13.5298C774.968 13.6922 774.66 13.9238 774.427 14.2246C774.193 14.5207 774.068 14.874 774.054 15.2847H771.497C771.516 14.4634 771.752 13.7423 772.206 13.1216C772.665 12.496 773.276 12.009 774.04 11.6604C774.804 11.307 775.661 11.1304 776.611 11.1304C777.59 11.1304 778.44 11.3142 779.161 11.6819C779.887 12.0448 780.448 12.5342 780.844 13.1502C781.241 13.7662 781.439 14.4467 781.439 15.1916C781.444 16.0177 781.2 16.7101 780.708 17.2687C780.221 17.8274 779.581 18.1927 778.789 18.3646V18.4792C779.82 18.6225 780.61 19.0045 781.159 19.6252C781.713 20.2412 781.988 21.0076 781.983 21.9245C781.983 22.7458 781.749 23.4811 781.281 24.1306C780.818 24.7752 780.178 25.2813 779.362 25.649C778.55 26.0167 777.619 26.2006 776.568 26.2006ZM789.46 24.0991V23.5645C789.46 23.1717 789.542 22.8104 789.707 22.4803C789.875 22.1503 790.12 21.8847 790.44 21.6834C790.76 21.482 791.148 21.3814 791.603 21.3814C792.072 21.3814 792.464 21.482 792.781 21.6834C793.098 21.8814 793.337 22.1454 793.499 22.4754C793.664 22.8054 793.747 23.1684 793.747 23.5645V24.0991C793.747 24.4918 793.664 24.8532 793.499 25.1832C793.334 25.5132 793.091 25.7789 792.771 25.9802C792.455 26.1815 792.065 26.2822 791.603 26.2822C791.141 26.2822 790.75 26.1815 790.43 25.9802C790.11 25.7789 789.867 25.5132 789.702 25.1832C789.54 24.8532 789.46 24.4918 789.46 24.0991ZM790.752 23.5645V24.0991C790.752 24.3598 790.814 24.5991 790.94 24.8169C791.065 25.0347 791.286 25.1436 791.603 25.1436C791.923 25.1436 792.143 25.0363 792.261 24.8218C792.384 24.604 792.445 24.3631 792.445 24.0991V23.5645C792.445 23.3004 792.387 23.0595 792.271 22.8417C792.156 22.6206 791.933 22.51 791.603 22.51C791.293 22.51 791.073 22.6206 790.945 22.8417C790.816 23.0595 790.752 23.3004 790.752 23.5645ZM784.306 18.2974V17.7627C784.306 17.3667 784.39 17.0037 784.559 16.6737C784.727 16.3436 784.971 16.0796 785.291 15.8816C785.612 15.6803 785.999 15.5797 786.455 15.5797C786.92 15.5797 787.311 15.6803 787.628 15.8816C787.948 16.0796 788.189 16.3436 788.351 16.6737C788.512 17.0037 788.593 17.3667 788.593 17.7627V18.2974C788.593 18.6934 788.511 19.0564 788.346 19.3864C788.184 19.7131 787.943 19.9755 787.623 20.1735C787.303 20.3715 786.913 20.4705 786.455 20.4705C785.989 20.4705 785.597 20.3715 785.277 20.1735C784.96 19.9755 784.719 19.7115 784.554 19.3815C784.389 19.0515 784.306 18.6901 784.306 18.2974ZM785.608 17.7627V18.2974C785.608 18.5614 785.669 18.8023 785.791 19.0201C785.917 19.2346 786.138 19.3419 786.455 19.3419C786.772 19.3419 786.989 19.2346 787.108 19.0201C787.23 18.8023 787.291 18.5614 787.291 18.2974V17.7627C787.291 17.4987 787.234 17.2578 787.118 17.04C787.003 16.8189 786.781 16.7083 786.455 16.7083C786.141 16.7083 785.922 16.8189 785.796 17.04C785.671 17.2611 785.608 17.502 785.608 17.7627ZM784.871 26L791.841 15.8618H793.078L786.108 26H784.871Z" fill="white"/>
<path d="M595 214.5L703.427 136.818H782.919" stroke="white" stroke-width="0.95" stroke-miterlimit="10"/>
<path d="M782.918 136.818C782.918 139.159 784.81 141.05 787.153 141.05C789.495 141.05 791.387 139.159 791.387 136.818C791.387 134.477 789.495 132.586 787.153 132.586C784.81 132.586 782.918 134.477 782.918 136.818Z" stroke="white" stroke-width="0.95" stroke-miterlimit="10"/>
<path d="M483.977 218.489H673.426C673.426 170.032 654.925 121.574 617.938 84.609C603.633 70.3124 587.594 58.7799 570.51 50.0115L483.977 218.489Z" fill="url(#paint1_linear_111_130)"/>
<g style="mix-blend-mode:overlay" opacity="0.2">
<path d="M607.444 93.1924C594.475 80.2315 579.985 69.7174 564.541 61.6499L483.977 218.489H658.962C659.213 173.166 642.036 127.777 607.444 93.1924Z" fill="#FAFAFA"/>
</g>
<path d="M812.688 146.128C811.835 146.128 811.045 145.989 810.32 145.712C809.605 145.424 808.981 145.024 808.448 144.512C807.925 143.989 807.515 143.381 807.216 142.688C806.917 141.995 806.768 141.232 806.768 140.4C806.768 139.568 806.917 138.805 807.216 138.112C807.515 137.419 807.931 136.816 808.464 136.304C808.997 135.781 809.621 135.381 810.336 135.104C811.061 134.816 811.851 134.672 812.704 134.672C813.568 134.672 814.363 134.821 815.088 135.12C815.824 135.408 816.448 135.84 816.96 136.416L815.92 137.424C815.493 136.976 815.013 136.645 814.48 136.432C813.947 136.208 813.376 136.096 812.768 136.096C812.139 136.096 811.552 136.203 811.008 136.416C810.475 136.629 810.011 136.928 809.616 137.312C809.221 137.696 808.912 138.155 808.688 138.688C808.475 139.211 808.368 139.781 808.368 140.4C808.368 141.019 808.475 141.595 808.688 142.128C808.912 142.651 809.221 143.104 809.616 143.488C810.011 143.872 810.475 144.171 811.008 144.384C811.552 144.597 812.139 144.704 812.768 144.704C813.376 144.704 813.947 144.597 814.48 144.384C815.013 144.16 815.493 143.819 815.92 143.36L816.96 144.368C816.448 144.944 815.824 145.381 815.088 145.68C814.363 145.979 813.563 146.128 812.688 146.128ZM822.435 146.096C821.528 146.096 820.728 145.909 820.035 145.536C819.352 145.163 818.819 144.651 818.435 144C818.062 143.349 817.875 142.603 817.875 141.76C817.875 140.917 818.056 140.171 818.419 139.52C818.792 138.869 819.299 138.363 819.939 138C820.59 137.627 821.32 137.44 822.131 137.44C822.952 137.44 823.678 137.621 824.307 137.984C824.936 138.347 825.427 138.859 825.779 139.52C826.142 140.171 826.323 140.933 826.323 141.808C826.323 141.872 826.318 141.947 826.307 142.032C826.307 142.117 826.302 142.197 826.291 142.272H819.075V141.168H825.491L824.867 141.552C824.878 141.008 824.766 140.523 824.531 140.096C824.296 139.669 823.971 139.339 823.555 139.104C823.15 138.859 822.675 138.736 822.131 138.736C821.598 138.736 821.123 138.859 820.707 139.104C820.291 139.339 819.966 139.675 819.731 140.112C819.496 140.539 819.379 141.029 819.379 141.584V141.84C819.379 142.405 819.507 142.912 819.763 143.36C820.03 143.797 820.398 144.139 820.867 144.384C821.336 144.629 821.875 144.752 822.483 144.752C822.984 144.752 823.438 144.667 823.843 144.496C824.259 144.325 824.622 144.069 824.931 143.728L825.779 144.72C825.395 145.168 824.915 145.509 824.339 145.744C823.774 145.979 823.139 146.096 822.435 146.096ZM826.99 146L830.638 141.264L830.622 142.048L827.15 137.52H828.862L831.518 141.008H830.862L833.518 137.52H835.198L831.678 142.08L831.694 141.264L835.374 146H833.63L830.83 142.288L831.454 142.384L828.702 146H826.99ZM841.571 146V134.8H843.171V144.608H849.235V146H841.571ZM850.847 146V137.52H852.383V146H850.847ZM851.615 135.888C851.316 135.888 851.065 135.792 850.863 135.6C850.671 135.408 850.575 135.173 850.575 134.896C850.575 134.608 850.671 134.368 850.863 134.176C851.065 133.984 851.316 133.888 851.615 133.888C851.913 133.888 852.159 133.984 852.351 134.176C852.553 134.357 852.655 134.587 852.655 134.864C852.655 135.152 852.559 135.397 852.367 135.6C852.175 135.792 851.924 135.888 851.615 135.888ZM857.747 146.096C857.043 146.096 856.371 146 855.731 145.808C855.102 145.616 854.606 145.381 854.243 145.104L854.883 143.888C855.246 144.133 855.694 144.341 856.227 144.512C856.761 144.683 857.305 144.768 857.859 144.768C858.574 144.768 859.086 144.667 859.395 144.464C859.715 144.261 859.875 143.979 859.875 143.616C859.875 143.349 859.779 143.141 859.587 142.992C859.395 142.843 859.139 142.731 858.819 142.656C858.51 142.581 858.163 142.517 857.779 142.464C857.395 142.4 857.011 142.325 856.627 142.24C856.243 142.144 855.891 142.016 855.571 141.856C855.251 141.685 854.995 141.456 854.803 141.168C854.611 140.869 854.515 140.475 854.515 139.984C854.515 139.472 854.659 139.024 854.947 138.64C855.235 138.256 855.641 137.963 856.163 137.76C856.697 137.547 857.326 137.44 858.051 137.44C858.606 137.44 859.166 137.509 859.731 137.648C860.307 137.776 860.777 137.963 861.139 138.208L860.483 139.424C860.099 139.168 859.699 138.992 859.283 138.896C858.867 138.8 858.451 138.752 858.035 138.752C857.363 138.752 856.862 138.864 856.531 139.088C856.201 139.301 856.035 139.579 856.035 139.92C856.035 140.208 856.131 140.432 856.323 140.592C856.526 140.741 856.782 140.859 857.091 140.944C857.411 141.029 857.763 141.104 858.147 141.168C858.531 141.221 858.915 141.296 859.299 141.392C859.683 141.477 860.03 141.6 860.339 141.76C860.659 141.92 860.915 142.144 861.107 142.432C861.31 142.72 861.411 143.104 861.411 143.584C861.411 144.096 861.262 144.539 860.963 144.912C860.665 145.285 860.243 145.579 859.699 145.792C859.155 145.995 858.505 146.096 857.747 146.096ZM863.331 146V137.52H864.867V146H863.331ZM864.099 135.888C863.8 135.888 863.55 135.792 863.347 135.6C863.155 135.408 863.059 135.173 863.059 134.896C863.059 134.608 863.155 134.368 863.347 134.176C863.55 133.984 863.8 133.888 864.099 133.888C864.398 133.888 864.643 133.984 864.835 134.176C865.038 134.357 865.139 134.587 865.139 134.864C865.139 135.152 865.043 135.397 864.851 135.6C864.659 135.792 864.408 135.888 864.099 135.888ZM870.712 146.096C869.858 146.096 869.197 145.867 868.728 145.408C868.258 144.949 868.024 144.293 868.024 143.44V135.664H869.56V143.376C869.56 143.835 869.672 144.187 869.896 144.432C870.13 144.677 870.461 144.8 870.888 144.8C871.368 144.8 871.768 144.667 872.088 144.4L872.568 145.504C872.333 145.707 872.05 145.856 871.72 145.952C871.4 146.048 871.064 146.096 870.712 146.096ZM866.584 138.784V137.52H871.992V138.784H866.584ZM874.425 146V137.52H875.961V146H874.425ZM875.193 135.888C874.894 135.888 874.643 135.792 874.441 135.6C874.249 135.408 874.153 135.173 874.153 134.896C874.153 134.608 874.249 134.368 874.441 134.176C874.643 133.984 874.894 133.888 875.193 133.888C875.491 133.888 875.737 133.984 875.929 134.176C876.131 134.357 876.233 134.587 876.233 134.864C876.233 135.152 876.137 135.397 875.945 135.6C875.753 135.792 875.502 135.888 875.193 135.888ZM883.422 137.44C884.115 137.44 884.723 137.573 885.246 137.84C885.779 138.107 886.195 138.512 886.494 139.056C886.792 139.6 886.942 140.288 886.942 141.12V146H885.406V141.296C885.406 140.475 885.203 139.856 884.798 139.44C884.403 139.024 883.843 138.816 883.118 138.816C882.574 138.816 882.099 138.923 881.694 139.136C881.288 139.349 880.974 139.664 880.75 140.08C880.536 140.496 880.43 141.013 880.43 141.632V146H878.894V137.52H880.366V139.808L880.126 139.2C880.403 138.645 880.83 138.213 881.406 137.904C881.982 137.595 882.654 137.44 883.422 137.44ZM893.496 149.2C892.717 149.2 891.96 149.088 891.224 148.864C890.499 148.651 889.907 148.341 889.448 147.936L890.184 146.752C890.579 147.093 891.064 147.36 891.64 147.552C892.216 147.755 892.819 147.856 893.448 147.856C894.451 147.856 895.187 147.621 895.656 147.152C896.125 146.683 896.36 145.968 896.36 145.008V143.216L896.52 141.536L896.44 139.84V137.52H897.896V144.848C897.896 146.341 897.523 147.44 896.776 148.144C896.029 148.848 894.936 149.2 893.496 149.2ZM893.304 145.648C892.483 145.648 891.747 145.477 891.096 145.136C890.456 144.784 889.944 144.299 889.56 143.68C889.187 143.061 889 142.347 889 141.536C889 140.715 889.187 140 889.56 139.392C889.944 138.773 890.456 138.293 891.096 137.952C891.747 137.611 892.483 137.44 893.304 137.44C894.029 137.44 894.691 137.589 895.288 137.888C895.885 138.176 896.36 138.624 896.712 139.232C897.075 139.84 897.256 140.608 897.256 141.536C897.256 142.453 897.075 143.216 896.712 143.824C896.36 144.432 895.885 144.891 895.288 145.2C894.691 145.499 894.029 145.648 893.304 145.648ZM893.48 144.304C894.045 144.304 894.547 144.187 894.984 143.952C895.421 143.717 895.763 143.392 896.008 142.976C896.264 142.56 896.392 142.08 896.392 141.536C896.392 140.992 896.264 140.512 896.008 140.096C895.763 139.68 895.421 139.36 894.984 139.136C894.547 138.901 894.045 138.784 893.48 138.784C892.915 138.784 892.408 138.901 891.96 139.136C891.523 139.36 891.176 139.68 890.92 140.096C890.675 140.512 890.552 140.992 890.552 141.536C890.552 142.08 890.675 142.56 890.92 142.976C891.176 143.392 891.523 143.717 891.96 143.952C892.408 144.187 892.915 144.304 893.48 144.304Z" fill="white"/>
<path d="M908.568 149.201C907.537 149.201 906.62 149.024 905.818 148.671C905.02 148.317 904.39 147.825 903.927 147.195C903.464 146.565 903.218 145.836 903.189 145.01H905.882C905.906 145.407 906.037 145.753 906.276 146.049C906.515 146.34 906.832 146.567 907.229 146.729C907.625 146.892 908.069 146.973 908.561 146.973C909.086 146.973 909.552 146.882 909.958 146.701C910.364 146.515 910.681 146.257 910.91 145.927C911.14 145.598 911.252 145.218 911.247 144.788C911.252 144.344 911.137 143.953 910.903 143.614C910.669 143.275 910.33 143.01 909.886 142.819C909.447 142.628 908.917 142.532 908.296 142.532H907V140.484H908.296C908.807 140.484 909.253 140.395 909.635 140.219C910.022 140.042 910.325 139.794 910.545 139.474C910.765 139.149 910.872 138.774 910.867 138.349C910.872 137.934 910.779 137.573 910.588 137.268C910.402 136.957 910.137 136.716 909.793 136.544C909.454 136.372 909.055 136.286 908.597 136.286C908.148 136.286 907.733 136.367 907.35 136.53C906.968 136.692 906.66 136.924 906.427 137.225C906.193 137.521 906.068 137.874 906.054 138.285H903.497C903.516 137.463 903.752 136.742 904.206 136.122C904.665 135.496 905.276 135.009 906.04 134.66C906.804 134.307 907.661 134.13 908.611 134.13C909.59 134.13 910.44 134.314 911.161 134.682C911.887 135.045 912.448 135.534 912.844 136.15C913.241 136.766 913.439 137.447 913.439 138.192C913.444 139.018 913.2 139.71 912.708 140.269C912.221 140.827 911.581 141.193 910.789 141.365V141.479C911.82 141.622 912.61 142.004 913.159 142.625C913.713 143.241 913.988 144.008 913.983 144.924C913.983 145.746 913.749 146.481 913.281 147.131C912.818 147.775 912.178 148.281 911.362 148.649C910.55 149.017 909.619 149.201 908.568 149.201ZM924.285 146.25V145.476C924.285 144.908 924.404 144.385 924.643 143.907C924.886 143.43 925.24 143.045 925.703 142.754C926.166 142.463 926.727 142.317 927.386 142.317C928.064 142.317 928.632 142.463 929.091 142.754C929.549 143.041 929.896 143.423 930.129 143.9C930.368 144.378 930.488 144.903 930.488 145.476V146.25C930.488 146.818 930.368 147.341 930.129 147.818C929.891 148.296 929.54 148.68 929.077 148.971C928.618 149.263 928.055 149.408 927.386 149.408C926.718 149.408 926.152 149.263 925.689 148.971C925.225 148.68 924.874 148.296 924.636 147.818C924.402 147.341 924.285 146.818 924.285 146.25ZM926.154 145.476V146.25C926.154 146.627 926.245 146.973 926.426 147.288C926.608 147.603 926.928 147.761 927.386 147.761C927.849 147.761 928.167 147.606 928.339 147.295C928.516 146.98 928.604 146.632 928.604 146.25V145.476C928.604 145.094 928.52 144.745 928.353 144.43C928.186 144.11 927.864 143.95 927.386 143.95C926.937 143.95 926.62 144.11 926.434 144.43C926.247 144.745 926.154 145.094 926.154 145.476ZM916.828 137.855V137.081C916.828 136.508 916.95 135.983 917.194 135.506C917.437 135.028 917.791 134.646 918.254 134.36C918.717 134.068 919.278 133.923 919.937 133.923C920.61 133.923 921.176 134.068 921.635 134.36C922.098 134.646 922.446 135.028 922.68 135.506C922.914 135.983 923.031 136.508 923.031 137.081V137.855C923.031 138.428 922.912 138.953 922.673 139.431C922.439 139.903 922.091 140.283 921.627 140.57C921.164 140.856 920.601 140.999 919.937 140.999C919.264 140.999 918.696 140.856 918.232 140.57C917.774 140.283 917.425 139.901 917.187 139.424C916.948 138.946 916.828 138.423 916.828 137.855ZM918.712 137.081V137.855C918.712 138.237 918.801 138.586 918.977 138.901C919.159 139.211 919.479 139.366 919.937 139.366C920.395 139.366 920.711 139.211 920.883 138.901C921.059 138.586 921.148 138.237 921.148 137.855V137.081C921.148 136.699 921.064 136.351 920.897 136.036C920.73 135.716 920.41 135.556 919.937 135.556C919.483 135.556 919.166 135.716 918.984 136.036C918.803 136.356 918.712 136.704 918.712 137.081ZM917.645 149L927.73 134.331H929.521L919.436 149H917.645Z" fill="white"/>
<path d="M483.974 218.489L282.02 380.248H195.09" stroke="white" stroke-width="0.95" stroke-miterlimit="10"/>
<path d="M186.621 380.248C186.621 382.589 188.513 384.48 190.856 384.48C193.198 384.48 195.09 382.589 195.09 380.248C195.09 377.907 193.198 376.016 190.856 376.016C188.513 376.016 186.621 377.907 186.621 380.248Z" stroke="white" stroke-width="0.95" stroke-miterlimit="10"/>
<path d="M484.157 221.857L280.853 175C265.303 242.661 287.883 310.37 337.682 365.868C429.655 468.368 676.682 439.368 689.182 221.857H484.157Z" fill="url(#paint2_linear_111_130)"/>
<g style="mix-blend-mode:overlay" opacity="0.2">
<path d="M347.182 363.368C396.182 421.868 639.682 472.368 676.182 221.857H484.156L293.238 177.857C279.012 240.836 299.881 315.195 347.182 363.368Z" fill="#FAFAFA"/>
</g>
<path d="M4.944 389.128C4.09067 389.128 3.27467 389 2.496 388.744C1.71733 388.477 1.104 388.136 0.656 387.72L1.248 386.472C1.67467 386.845 2.21867 387.155 2.88 387.4C3.54133 387.645 4.22933 387.768 4.944 387.768C5.59467 387.768 6.12267 387.693 6.528 387.544C6.93333 387.395 7.232 387.192 7.424 386.936C7.616 386.669 7.712 386.371 7.712 386.04C7.712 385.656 7.584 385.347 7.328 385.112C7.08267 384.877 6.75733 384.691 6.352 384.552C5.95733 384.403 5.52 384.275 5.04 384.168C4.56 384.061 4.07467 383.939 3.584 383.8C3.104 383.651 2.66133 383.464 2.256 383.24C1.86133 383.016 1.54133 382.717 1.296 382.344C1.05067 381.96 0.928 381.469 0.928 380.872C0.928 380.296 1.07733 379.768 1.376 379.288C1.68533 378.797 2.15467 378.408 2.784 378.12C3.424 377.821 4.23467 377.672 5.216 377.672C5.86667 377.672 6.512 377.757 7.152 377.928C7.792 378.099 8.34667 378.344 8.816 378.664L8.288 379.944C7.808 379.624 7.30133 379.395 6.768 379.256C6.23467 379.107 5.71733 379.032 5.216 379.032C4.58667 379.032 4.06933 379.112 3.664 379.272C3.25867 379.432 2.96 379.645 2.768 379.912C2.58667 380.179 2.496 380.477 2.496 380.808C2.496 381.203 2.61867 381.517 2.864 381.752C3.12 381.987 3.44533 382.173 3.84 382.312C4.24533 382.451 4.688 382.579 5.168 382.696C5.648 382.803 6.128 382.925 6.608 383.064C7.09867 383.203 7.54133 383.384 7.936 383.608C8.34133 383.832 8.66667 384.131 8.912 384.504C9.15733 384.877 9.28 385.357 9.28 385.944C9.28 386.509 9.12533 387.037 8.816 387.528C8.50667 388.008 8.02667 388.397 7.376 388.696C6.736 388.984 5.92533 389.128 4.944 389.128ZM14.3055 389.096C13.4522 389.096 12.7908 388.867 12.3215 388.408C11.8522 387.949 11.6175 387.293 11.6175 386.44V378.664H13.1535V386.376C13.1535 386.835 13.2655 387.187 13.4895 387.432C13.7242 387.677 14.0548 387.8 14.4815 387.8C14.9615 387.8 15.3615 387.667 15.6815 387.4L16.1615 388.504C15.9268 388.707 15.6442 388.856 15.3135 388.952C14.9935 389.048 14.6575 389.096 14.3055 389.096ZM10.1775 381.784V380.52H15.5855V381.784H10.1775ZM21.5133 389.096C20.6066 389.096 19.8066 388.909 19.1133 388.536C18.4306 388.163 17.8973 387.651 17.5133 387C17.1399 386.349 16.9533 385.603 16.9533 384.76C16.9533 383.917 17.1346 383.171 17.4973 382.52C17.8706 381.869 18.3773 381.363 19.0173 381C19.6679 380.627 20.3986 380.44 21.2093 380.44C22.0306 380.44 22.7559 380.621 23.3853 380.984C24.0146 381.347 24.5053 381.859 24.8573 382.52C25.2199 383.171 25.4013 383.933 25.4013 384.808C25.4013 384.872 25.3959 384.947 25.3853 385.032C25.3853 385.117 25.3799 385.197 25.3693 385.272H18.1533V384.168H24.5693L23.9453 384.552C23.9559 384.008 23.8439 383.523 23.6093 383.096C23.3746 382.669 23.0493 382.339 22.6333 382.104C22.2279 381.859 21.7533 381.736 21.2093 381.736C20.6759 381.736 20.2013 381.859 19.7853 382.104C19.3693 382.339 19.0439 382.675 18.8093 383.112C18.5746 383.539 18.4573 384.029 18.4573 384.584V384.84C18.4573 385.405 18.5853 385.912 18.8413 386.36C19.1079 386.797 19.4759 387.139 19.9453 387.384C20.4146 387.629 20.9533 387.752 21.5613 387.752C22.0626 387.752 22.5159 387.667 22.9213 387.496C23.3373 387.325 23.6999 387.069 24.0093 386.728L24.8573 387.72C24.4733 388.168 23.9933 388.509 23.4173 388.744C22.8519 388.979 22.2173 389.096 21.5133 389.096ZM32.5638 389V387.208L32.4838 386.872V383.816C32.4838 383.165 32.2918 382.664 31.9078 382.312C31.5344 381.949 30.9691 381.768 30.2118 381.768C29.7104 381.768 29.2198 381.853 28.7398 382.024C28.2598 382.184 27.8544 382.403 27.5238 382.68L26.8838 381.528C27.3211 381.176 27.8438 380.909 28.4518 380.728C29.0704 380.536 29.7158 380.44 30.3878 380.44C31.5504 380.44 32.4464 380.723 33.0758 381.288C33.7051 381.853 34.0198 382.717 34.0198 383.88V389H32.5638ZM29.7798 389.096C29.1504 389.096 28.5958 388.989 28.1158 388.776C27.6464 388.563 27.2838 388.269 27.0278 387.896C26.7718 387.512 26.6438 387.08 26.6438 386.6C26.6438 386.141 26.7504 385.725 26.9638 385.352C27.1878 384.979 27.5451 384.68 28.0358 384.456C28.5371 384.232 29.2091 384.12 30.0518 384.12H32.7398V385.224H30.1158C29.3478 385.224 28.8304 385.352 28.5638 385.608C28.2971 385.864 28.1638 386.173 28.1638 386.536C28.1638 386.952 28.3291 387.288 28.6598 387.544C28.9904 387.789 29.4491 387.912 30.0358 387.912C30.6118 387.912 31.1131 387.784 31.5398 387.528C31.9771 387.272 32.2918 386.899 32.4838 386.408L32.7878 387.464C32.5851 387.965 32.2278 388.365 31.7158 388.664C31.2038 388.952 30.5584 389.096 29.7798 389.096ZM36.8623 389V377.128H38.3983V389H36.8623ZM44.4618 389.096C43.6084 389.096 42.9471 388.867 42.4778 388.408C42.0084 387.949 41.7738 387.293 41.7738 386.44V378.664H43.3098V386.376C43.3098 386.835 43.4218 387.187 43.6458 387.432C43.8804 387.677 44.2111 387.8 44.6378 387.8C45.1178 387.8 45.5178 387.667 45.8378 387.4L46.3178 388.504C46.0831 388.707 45.8004 388.856 45.4698 388.952C45.1498 389.048 44.8138 389.096 44.4618 389.096ZM40.3338 381.784V380.52H45.7418V381.784H40.3338ZM52.7028 380.44C53.3961 380.44 54.0041 380.573 54.5268 380.84C55.0601 381.107 55.4761 381.512 55.7748 382.056C56.0734 382.6 56.2228 383.288 56.2228 384.12V389H54.6868V384.296C54.6868 383.475 54.4841 382.856 54.0788 382.44C53.6841 382.024 53.1241 381.816 52.3988 381.816C51.8548 381.816 51.3801 381.923 50.9748 382.136C50.5694 382.349 50.2548 382.664 50.0308 383.08C49.8174 383.496 49.7108 384.013 49.7108 384.632V389H48.1748V377.128H49.7108V382.808L49.4068 382.2C49.6841 381.645 50.1108 381.213 50.6868 380.904C51.2628 380.595 51.9348 380.44 52.7028 380.44ZM63.5863 389V377.8H65.1863V387.608H71.2503V389H63.5863ZM78.1263 389V387.208L78.0463 386.872V383.816C78.0463 383.165 77.8543 382.664 77.4703 382.312C77.0969 381.949 76.5316 381.768 75.7743 381.768C75.2729 381.768 74.7823 381.853 74.3023 382.024C73.8223 382.184 73.4169 382.403 73.0863 382.68L72.4463 381.528C72.8836 381.176 73.4063 380.909 74.0143 380.728C74.6329 380.536 75.2783 380.44 75.9503 380.44C77.1129 380.44 78.0089 380.723 78.6383 381.288C79.2676 381.853 79.5823 382.717 79.5823 383.88V389H78.1263ZM75.3423 389.096C74.7129 389.096 74.1583 388.989 73.6783 388.776C73.2089 388.563 72.8463 388.269 72.5903 387.896C72.3343 387.512 72.2063 387.08 72.2063 386.6C72.2063 386.141 72.3129 385.725 72.5263 385.352C72.7503 384.979 73.1076 384.68 73.5983 384.456C74.0996 384.232 74.7716 384.12 75.6143 384.12H78.3023V385.224H75.6783C74.9103 385.224 74.3929 385.352 74.1263 385.608C73.8596 385.864 73.7263 386.173 73.7263 386.536C73.7263 386.952 73.8916 387.288 74.2223 387.544C74.5529 387.789 75.0116 387.912 75.5983 387.912C76.1743 387.912 76.6756 387.784 77.1023 387.528C77.5396 387.272 77.8543 386.899 78.0463 386.408L78.3503 387.464C78.1476 387.965 77.7903 388.365 77.2783 388.664C76.7663 388.952 76.1209 389.096 75.3423 389.096ZM85.9928 389.096C85.2674 389.096 84.6274 388.963 84.0728 388.696C83.5288 388.429 83.1021 388.024 82.7928 387.48C82.4941 386.925 82.3448 386.232 82.3448 385.4V380.52H83.8808V385.224C83.8808 386.056 84.0781 386.68 84.4728 387.096C84.8781 387.512 85.4434 387.72 86.1688 387.72C86.7021 387.72 87.1661 387.613 87.5608 387.4C87.9554 387.176 88.2594 386.856 88.4728 386.44C88.6861 386.013 88.7928 385.501 88.7928 384.904V380.52H90.3288V389H88.8728V386.712L89.1128 387.32C88.8354 387.885 88.4194 388.323 87.8648 388.632C87.3101 388.941 86.6861 389.096 85.9928 389.096ZM97.7809 380.44C98.4742 380.44 99.0822 380.573 99.6049 380.84C100.138 381.107 100.554 381.512 100.853 382.056C101.152 382.6 101.301 383.288 101.301 384.12V389H99.7649V384.296C99.7649 383.475 99.5622 382.856 99.1569 382.44C98.7622 382.024 98.2022 381.816 97.4769 381.816C96.9329 381.816 96.4582 381.923 96.0529 382.136C95.6475 382.349 95.3329 382.664 95.1089 383.08C94.8955 383.496 94.7889 384.013 94.7889 384.632V389H93.2529V380.52H94.7249V382.808L94.4849 382.2C94.7622 381.645 95.1889 381.213 95.7649 380.904C96.3409 380.595 97.0129 380.44 97.7809 380.44ZM107.84 389.096C106.976 389.096 106.202 388.909 105.52 388.536C104.848 388.163 104.32 387.651 103.936 387C103.552 386.349 103.36 385.603 103.36 384.76C103.36 383.917 103.552 383.171 103.936 382.52C104.32 381.869 104.848 381.363 105.52 381C106.202 380.627 106.976 380.44 107.84 380.44C108.608 380.44 109.29 380.595 109.888 380.904C110.496 381.203 110.965 381.651 111.296 382.248L110.128 383C109.85 382.584 109.509 382.28 109.104 382.088C108.709 381.885 108.282 381.784 107.824 381.784C107.269 381.784 106.773 381.907 106.336 382.152C105.898 382.397 105.552 382.744 105.296 383.192C105.04 383.629 104.912 384.152 104.912 384.76C104.912 385.368 105.04 385.896 105.296 386.344C105.552 386.792 105.898 387.139 106.336 387.384C106.773 387.629 107.269 387.752 107.824 387.752C108.282 387.752 108.709 387.656 109.104 387.464C109.509 387.261 109.85 386.952 110.128 386.536L111.296 387.272C110.965 387.859 110.496 388.312 109.888 388.632C109.29 388.941 108.608 389.096 107.84 389.096ZM117.703 380.44C118.396 380.44 119.004 380.573 119.527 380.84C120.06 381.107 120.476 381.512 120.775 382.056C121.073 382.6 121.223 383.288 121.223 384.12V389H119.687V384.296C119.687 383.475 119.484 382.856 119.079 382.44C118.684 382.024 118.124 381.816 117.399 381.816C116.855 381.816 116.38 381.923 115.975 382.136C115.569 382.349 115.255 382.664 115.031 383.08C114.817 383.496 114.711 384.013 114.711 384.632V389H113.175V377.128H114.711V382.808L114.407 382.2C114.684 381.645 115.111 381.213 115.687 380.904C116.263 380.595 116.935 380.44 117.703 380.44Z" fill="white"/>
<path d="M137.396 374.13C138.098 374.135 138.781 374.259 139.445 374.503C140.113 374.742 140.715 375.133 141.25 375.677C141.785 376.217 142.21 376.94 142.525 377.848C142.84 378.755 142.997 379.877 142.997 381.214C143.002 382.475 142.868 383.602 142.596 384.595C142.329 385.583 141.945 386.419 141.443 387.102C140.942 387.785 140.338 388.305 139.631 388.663C138.924 389.021 138.129 389.201 137.246 389.201C136.319 389.201 135.498 389.019 134.782 388.656C134.07 388.293 133.495 387.797 133.056 387.166C132.616 386.536 132.347 385.815 132.246 385.003H134.861C134.994 385.586 135.267 386.049 135.677 386.393C136.093 386.732 136.616 386.901 137.246 386.901C138.263 386.901 139.046 386.46 139.595 385.576C140.144 384.693 140.419 383.466 140.419 381.895H140.319C140.085 382.315 139.781 382.678 139.409 382.983C139.036 383.284 138.614 383.516 138.141 383.678C137.673 383.841 137.177 383.922 136.651 383.922C135.792 383.922 135.018 383.716 134.331 383.306C133.648 382.895 133.106 382.332 132.705 381.615C132.308 380.899 132.108 380.08 132.103 379.159C132.103 378.204 132.323 377.346 132.762 376.587C133.206 375.823 133.824 375.221 134.617 374.782C135.41 374.338 136.336 374.121 137.396 374.13ZM137.403 376.279C136.888 376.279 136.422 376.406 136.007 376.659C135.596 376.907 135.271 377.246 135.033 377.676C134.799 378.101 134.682 378.576 134.682 379.101C134.686 379.622 134.803 380.094 135.033 380.519C135.267 380.944 135.584 381.281 135.985 381.529C136.391 381.778 136.854 381.902 137.375 381.902C137.762 381.902 138.122 381.828 138.456 381.68C138.791 381.532 139.082 381.326 139.33 381.064C139.583 380.796 139.779 380.493 139.917 380.154C140.061 379.815 140.13 379.457 140.125 379.08C140.125 378.578 140.006 378.115 139.767 377.69C139.533 377.265 139.211 376.924 138.8 376.666C138.394 376.408 137.929 376.279 137.403 376.279ZM145.118 386.278V384.165L151.342 374.331H153.104V377.339H152.03L147.839 383.979V384.094H156.528V386.278H145.118ZM152.115 389V385.634L152.144 384.688V374.331H154.651V389H152.115ZM166.659 386.25V385.476C166.659 384.908 166.779 384.385 167.017 383.907C167.261 383.43 167.614 383.045 168.077 382.754C168.541 382.463 169.102 382.317 169.761 382.317C170.439 382.317 171.007 382.463 171.465 382.754C171.924 383.041 172.27 383.423 172.504 383.9C172.743 384.378 172.862 384.903 172.862 385.476V386.25C172.862 386.818 172.743 387.341 172.504 387.818C172.265 388.296 171.914 388.68 171.451 388.971C170.993 389.263 170.429 389.408 169.761 389.408C169.092 389.408 168.526 389.263 168.063 388.971C167.6 388.68 167.249 388.296 167.01 387.818C166.776 387.341 166.659 386.818 166.659 386.25ZM168.529 385.476V386.25C168.529 386.627 168.619 386.973 168.801 387.288C168.982 387.603 169.302 387.761 169.761 387.761C170.224 387.761 170.541 387.606 170.713 387.295C170.89 386.98 170.978 386.632 170.978 386.25V385.476C170.978 385.094 170.895 384.745 170.728 384.43C170.56 384.11 170.238 383.95 169.761 383.95C169.312 383.95 168.994 384.11 168.808 384.43C168.622 384.745 168.529 385.094 168.529 385.476ZM159.203 377.855V377.081C159.203 376.508 159.325 375.983 159.568 375.506C159.812 375.028 160.165 374.646 160.628 374.36C161.091 374.068 161.653 373.923 162.311 373.923C162.985 373.923 163.551 374.068 164.009 374.36C164.472 374.646 164.821 375.028 165.055 375.506C165.289 375.983 165.406 376.508 165.406 377.081V377.855C165.406 378.428 165.286 378.953 165.048 379.431C164.814 379.903 164.465 380.283 164.002 380.57C163.539 380.856 162.975 380.999 162.311 380.999C161.638 380.999 161.07 380.856 160.607 380.57C160.148 380.283 159.8 379.901 159.561 379.424C159.322 378.946 159.203 378.423 159.203 377.855ZM161.087 377.081V377.855C161.087 378.237 161.175 378.586 161.352 378.901C161.533 379.211 161.853 379.366 162.311 379.366C162.77 379.366 163.085 379.211 163.257 378.901C163.434 378.586 163.522 378.237 163.522 377.855V377.081C163.522 376.699 163.438 376.351 163.271 376.036C163.104 375.716 162.784 375.556 162.311 375.556C161.858 375.556 161.54 375.716 161.359 376.036C161.177 376.356 161.087 376.704 161.087 377.081ZM160.019 389L170.104 374.331H171.895L161.81 389H160.019Z" fill="white"/>
<g style="mix-blend-mode:overlay" opacity="0.53">
<path d="M561.443 281.137C575.55 263.786 584.006 241.66 584.006 217.524C584.006 201.045 580.036 185.518 573.049 171.777L577.469 164.133H568.748C554.284 140.975 530.702 124.1 502.978 118.571L499.63 110.398L494.337 117.249C490.632 116.839 486.86 116.601 483.049 116.601C459.07 116.601 437.076 124.946 419.767 138.872L412.343 136.201L413.759 144.123C394.253 162.519 382.078 188.586 382.078 217.524C382.078 234.69 386.366 250.838 393.922 264.989L388.232 274.882L399.943 274.855C418.152 301.2 448.563 318.446 483.062 318.446C511.646 318.446 537.425 306.583 555.793 287.539L564.249 289.178L561.47 281.137H561.443Z" fill="white"/>
</g>
<path d="M483.976 288.2C522.499 288.2 553.729 256.989 553.729 218.489C553.729 179.989 522.499 148.778 483.976 148.778C445.452 148.778 414.223 179.989 414.223 218.489C414.223 256.989 445.452 288.2 483.976 288.2Z" fill="url(#paint3_linear_111_130)"/>
<g style="mix-blend-mode:overlay" opacity="0.2">
<path d="M483.974 281.058C518.551 281.058 546.581 253.045 546.581 218.489C546.581 183.933 518.551 155.92 483.974 155.92C449.397 155.92 421.367 183.933 421.367 218.489C421.367 253.045 449.397 281.058 483.974 281.058Z" fill="#FAFAFA"/>
</g>
<defs>
<linearGradient id="paint0_linear_111_130" x1="511.304" y1="49.6944" x2="455.771" y2="203.374" gradientUnits="userSpaceOnUse">
<stop stop-color="#FF63DE"/>
<stop offset="1" stop-color="#B122E5"/>
</linearGradient>
<linearGradient id="paint1_linear_111_130" x1="661.908" y1="161.394" x2="526.709" y2="162.044" gradientUnits="userSpaceOnUse">
<stop stop-color="#FCC230"/>
<stop offset="1" stop-color="#F47C35"/>
</linearGradient>
<linearGradient id="paint2_linear_111_130" x1="664.063" y1="338.812" x2="369.206" y2="340.912" gradientUnits="userSpaceOnUse">
<stop stop-color="#6821FF"/>
<stop offset="1" stop-color="#3B04AF"/>
</linearGradient>
<linearGradient id="paint3_linear_111_130" x1="434.655" y1="169.198" x2="533.25" y2="267.853" gradientUnits="userSpaceOnUse">
<stop stop-color="#FF839D"/>
<stop offset="1" stop-color="#F50B9A"/>
</linearGradient>
</defs>
</svg>
